<!-- Generator: Adobe Illustrator 21.0.0, SVG Export Plug-In  -->
<svg version="1.1"
	 xmlns="http://www.w3.org/2000/svg" xmlns:xlink="http://www.w3.org/1999/xlink" xmlns:a="http://ns.adobe.com/AdobeSVGViewerExtensions/3.0/"
	 x="0px" y="0px" width="45px" height="45px" viewBox="0 0 45 45" style="enable-background:new 0 0 45 45;" xml:space="preserve">
<style type="text/css">
	.st0{fill:#FFFFFF;}
</style>
<defs>
</defs>
<g>
	<g>
		<g id="_x37_65-arrow-left_x40_2x.png_3_">
			<g>
				<path class="st0" d="M23.5,22.5c0-0.1,0-0.2-0.1-0.3l0,0L12.6,11l0,0c-0.1-0.1-0.2-0.1-0.3-0.1c-0.2,0-0.4,0.2-0.4,0.4
					c0,0.1,0,0.2,0.1,0.3l0,0l10.5,10.9L12,33.4l0,0c-0.1,0.1-0.1,0.2-0.1,0.3c0,0.2,0.2,0.4,0.4,0.4c0.1,0,0.2,0,0.3-0.1l0,0
					l10.8-11.2l0,0C23.4,22.7,23.5,22.6,23.5,22.5z"/>
			</g>
		</g>
		<g id="_x37_65-arrow-left_x40_2x.png_1_">
			<g>
				<path class="st0" d="M34,33.4L23.5,22.5L34,11.6l0,0c0.1-0.1,0.1-0.2,0.1-0.3c0-0.2-0.2-0.4-0.4-0.4c-0.1,0-0.2,0-0.3,0.1l0,0
					L22.6,22.2l0,0c-0.1,0.1-0.1,0.2-0.1,0.3s0,0.2,0.1,0.3l0,0L33.4,34l0,0c0.1,0.1,0.2,0.1,0.3,0.1c0.2,0,0.4-0.2,0.4-0.4
					C34.1,33.6,34,33.5,34,33.4L34,33.4z"/>
			</g>
		</g>
	</g>
	<g>
		<path class="st0" d="M22.5,0C34.9,0,45,10.1,45,22.5S34.9,45,22.5,45S0,34.9,0,22.5S10.1,0,22.5,0z M22.5,44
			C34.4,44,44,34.4,44,22.5S34.4,1,22.5,1S1,10.6,1,22.5S10.6,44,22.5,44z"/>
	</g>
</g>
</svg>