<!-- Generator: Adobe Illustrator 21.1.0, SVG Export Plug-In  -->
<svg version="1.1"
	 xmlns="http://www.w3.org/2000/svg" xmlns:xlink="http://www.w3.org/1999/xlink" xmlns:a="http://ns.adobe.com/AdobeSVGViewerExtensions/3.0/"
	 x="0px" y="0px" width="44.6px" height="39.4px" viewBox="0 0 44.6 39.4" style="enable-background:new 0 0 44.6 39.4;"
	 xml:space="preserve">
<style type="text/css">
	.st0{fill:#ffffff;}
</style>
<defs>
</defs>
<g>
	<path class="st0" d="M24.3,0.3c-0.8-0.5-1.8-0.5-2.6,0c0,0-0.1,0.1-0.1,0.1L10,10.3H0.9c-0.5,0-0.9,0.4-0.9,0.9v16.3c0,0.2,0.1,0.4,0.2,0.6
		c0.2,0.2,0.4,0.2,0.6,0.2l9.1,0L21.6,39c0,0,0.1,0.1,0.1,0.1c0.4,0.3,0.9,0.4,1.4,0.4c0.4,0,0.9-0.1,1.3-0.3
		c0.9-0.5,1.4-1.4,1.4-2.4v-34C25.7,1.7,25.2,0.8,24.3,0.3L24.3,0.3z M24,36.7c0,0.4-0.2,0.7-0.5,0.9c-0.1,0.1-0.5,0.2-0.9,0
		L11.1,27.1v-3.9c0-0.5-0.4-0.9-0.9-0.9c-0.5,0-0.9,0.4-0.9,0.9v3.4l-7.7,0V12h7.7v3.4c0,0.5,0.4,0.9,0.9,0.9c0.5,0,0.9-0.4,0.9-0.9
		v-3.9l11.5-9.7c0.4-0.2,0.7-0.1,0.9,0C23.8,2,24,2.3,24,2.7V36.7z M24,36.7"/>
	<path class="st0" d="M33.3,3.5c-0.4-0.2-0.9,0.1-1.1,0.5c-0.2,0.4,0.1,0.9,0.5,1.1c6.1,2.1,10.2,7.8,10.2,14.2c0,6.4-4.1,12.1-10.2,14.2
		c-0.4,0.1-0.7,0.6-0.5,1.1c0.1,0.4,0.5,0.6,0.8,0.6c0.1,0,0.2,0,0.3,0c6.8-2.3,11.3-8.7,11.3-15.8C44.6,12.1,40,5.8,33.3,3.5
		L33.3,3.5z M33.3,3.5"/>
	<path class="st0" d="M36.9,19.3c0-5.1-3.4-9.7-8.4-11.1c-0.5-0.1-0.9,0.1-1.1,0.6c-0.1,0.5,0.1,0.9,0.6,1.1c4.2,1.2,7.1,5.1,7.1,9.5
		c0,4.4-2.9,8.3-7.1,9.5c-0.5,0.1-0.7,0.6-0.6,1.1c0.1,0.4,0.4,0.6,0.8,0.6c0.1,0,0.2,0,0.2,0C33.4,29,36.9,24.4,36.9,19.3
		L36.9,19.3z M36.9,19.3"/>
</g>
</svg>