<!-- Generator: Adobe Illustrator 21.0.0, SVG Export Plug-In  -->
<svg version="1.1"
	 xmlns="http://www.w3.org/2000/svg" xmlns:xlink="http://www.w3.org/1999/xlink" xmlns:a="http://ns.adobe.com/AdobeSVGViewerExtensions/3.0/"
	 x="0px" y="0px" width="92.9px" height="92.9px" viewBox="0 0 92.9 92.9" style="enable-background:new 0 0 92.9 92.9;"
	 xml:space="preserve">
<style type="text/css">
	.st0{fill:#FFFFFF;}
	.st1{fill:none;stroke:#FFFFFF;stroke-width:2;stroke-miterlimit:10;}
	.st2{fill:#FFFFFF;stroke:#FFFFFF;stroke-width:2;stroke-miterlimit:10;}
</style>
<defs>
</defs>
<g>
	<g>
		<g>
			<g>
				<g id="_x37_65-arrow-left_x40_2x.png_13_">
					<g>
						<path class="st0" d="M54.7,46.5c0-0.1-0.1-0.3-0.1-0.3l0,0L41.8,33l0,0c-0.1-0.1-0.2-0.2-0.4-0.2c-0.3,0-0.5,0.2-0.5,0.5
							c0,0.1,0.1,0.3,0.1,0.3l0,0l12.4,12.9L41.1,59.4l0,0C41,59.5,41,59.6,41,59.7c0,0.3,0.2,0.5,0.5,0.5c0.1,0,0.3-0.1,0.4-0.2
							l0,0l12.7-13.2l0,0C54.6,46.8,54.7,46.6,54.7,46.5z"/>
					</g>
					<g>
						<path class="st1" d="M54.7,46.5c0-0.1-0.1-0.3-0.1-0.3l0,0L41.8,33l0,0c-0.1-0.1-0.2-0.2-0.4-0.2c-0.3,0-0.5,0.2-0.5,0.5
							c0,0.1,0.1,0.3,0.1,0.3l0,0l12.4,12.9L41.1,59.4l0,0C41,59.5,41,59.6,41,59.7c0,0.3,0.2,0.5,0.5,0.5c0.1,0,0.3-0.1,0.4-0.2
							l0,0l12.7-13.2l0,0C54.6,46.8,54.7,46.6,54.7,46.5z"/>
					</g>
				</g>
				<g>
					<path class="st2" d="M46.3,16.2c16.7,0,30.3,13.6,30.3,30.3S63.1,76.8,46.3,76.8S16,63.2,16,46.5S29.6,16.2,46.3,16.2z
						 M46.3,75.5c16,0,29-13,29-29s-13-29-29-29s-29,13-29,29S30.4,75.5,46.3,75.5z"/>
				</g>
			</g>
		</g>
	</g>
</g>
</svg>