<!-- Generator: Adobe Illustrator 21.1.0, SVG Export Plug-In  -->
<svg version="1.1"
	 xmlns="http://www.w3.org/2000/svg" xmlns:xlink="http://www.w3.org/1999/xlink" xmlns:a="http://ns.adobe.com/AdobeSVGViewerExtensions/3.0/"
	 x="0px" y="0px" width="43.7px" height="51.7px" viewBox="0 0 43.7 51.7" style="enable-background:new 0 0 43.7 51.7;"
	 xml:space="preserve">
<style type="text/css">
	.st0{fill:#ffffff;}
</style>
<defs>
</defs>
<g>
	<path class="st0" d="M5,8.1c0,0.8,0.6,1.4,1.4,1.4H34v35.7c0,0.8,0.6,1.4,1.4,1.4c0.8,0,1.4-0.6,1.4-1.4V8.1c0-0.8-0.6-1.4-1.4-1.4h-29
		C5.6,6.7,5,7.3,5,8.1L5,8.1z M5,8.1"/>
	<path class="st0" d="M42.2,0H5.7C5.2,0,4.8,0.2,4.5,0.6L0.3,6.9C0.1,7.1,0,7.4,0,7.7l0,39.4c0,0,0,0.1,0,0.1v3.1c0,0.8,0.6,1.4,1.4,1.4h34.3
		c0.2,0,0.3,0,0.5-0.1c0.2,0,0.3-0.1,0.5-0.2l6.3-4.8c0.4-0.3,0.6-0.7,0.6-1.1v-44C43.7,0.6,43,0,42.2,0L42.2,0z M40.8,44.7
		l-5.4,4.1H2.9v-1.8c0,0,0-0.1,0-0.1l0-38.8l3.6-5.2h34.3V44.7z M40.8,44.7"/>
	<path class="st0" d="M15.2,21.7c-0.1-0.3-0.4-0.5-0.7-0.5H13c-0.3,0-0.6,0.2-0.7,0.5L8.2,33.8c-0.1,0.2,0,0.5,0.1,0.7c0.1,0.2,0.4,0.3,0.6,0.3
		h0.9c0.3,0,0.6-0.2,0.7-0.5l1.2-3.5h4l1.2,3.5c0.1,0.3,0.4,0.5,0.7,0.5h0.9c0.3,0,0.5-0.1,0.6-0.3c0.1-0.2,0.2-0.5,0.1-0.7
		L15.2,21.7z M12.3,28.7l1.1-3.2l0,0c0.1-0.3,0.2-0.6,0.3-1c0.1,0.3,0.2,0.7,0.3,1l1.1,3.2H12.3z M12.3,28.7"/>
	<path class="st0" d="M25.8,24.6c-1.1,0-2.1,0.4-2.8,1v-3.7c0-0.4-0.4-0.8-0.8-0.8h-0.9c-0.2,0-0.4,0.1-0.6,0.2c-0.1,0.1-0.2,0.3-0.2,0.6l0,12.1
		c0,0.4,0.4,0.8,0.8,0.8H22c0.4,0,0.8-0.4,0.8-0.8c0,0,0,0,0,0c0.7,0.7,1.6,1,2.7,1c1.2,0,2.3-0.5,3.1-1.3c0.9-1,1.4-2.4,1.4-4
		c0-1.6-0.5-3-1.4-3.9C27.9,25,26.9,24.6,25.8,24.6L25.8,24.6z M27.2,32.4c-0.4,0.4-0.9,0.6-1.5,0.6c-0.6,0-1.1-0.2-1.4-0.5
		c-0.9-0.9-0.8-2.6-0.8-2.7c0,0,0,0,0,0c0-0.1,0.1-3,2.3-3c2.2,0,2.4,2.9,2.4,3C28.1,30.2,27.9,31.6,27.2,32.4L27.2,32.4z
		 M27.2,32.4"/>
</g>
</svg>