<!-- Generator: Adobe Illustrator 21.0.0, SVG Export Plug-In  -->
<svg version="1.1"
	 xmlns="http://www.w3.org/2000/svg" xmlns:xlink="http://www.w3.org/1999/xlink" xmlns:a="http://ns.adobe.com/AdobeSVGViewerExtensions/3.0/"
	 x="0px" y="0px" width="29.9px" height="29.9px" viewBox="0 0 29.9 29.9" style="enable-background:new 0 0 29.9 29.9;"
	 xml:space="preserve">
<style type="text/css">
	.st0{fill:#010101;}
</style>
<defs>
</defs>
<path d="M14.9,1c7.7,0,13.9,6.2,13.9,13.9s-6.2,13.9-13.9,13.9C7.2,28.9,1,22.6,1,14.9S7.2,1,14.9,1 M14.9,0C6.7,0,0,6.7,0,14.9
	s6.7,14.9,14.9,14.9c8.2,0,14.9-6.7,14.9-14.9S23.2,0,14.9,0L14.9,0z"/>
<g>
	<path class="st0" d="M20,14.5l-7.4-4.6c-0.5-0.4-1-0.1-1,0.6v8.9c0,0.7,0.4,0.9,1,0.6l7.4-4.6c0,0,0.3-0.2,0.3-0.4
		C20.3,14.7,20,14.5,20,14.5z"/>
</g>
</svg>