<!-- Generator: Adobe Illustrator 21.0.0, SVG Export Plug-In  -->
<svg version="1.1"
	 xmlns="http://www.w3.org/2000/svg" xmlns:xlink="http://www.w3.org/1999/xlink" xmlns:a="http://ns.adobe.com/AdobeSVGViewerExtensions/3.0/"
	 x="0px" y="0px" width="377.5px" height="100.7px" viewBox="0 0 377.5 100.7" style="enable-background:new 0 0 377.5 100.7;"
	 xml:space="preserve">
<style type="text/css">
	.st0{opacity:0.75;}
	.st1{fill:#026B88;}
</style>
<defs>
</defs>
<g class="st0">
	<path class="st1" d="M19.3,52.9c0,0-10.6-10.2-10.8-21.4s8.6-11.3,8.6-11.3l-3.8-6.7c0,0,2.8-5.2,34.5-7.6S216-2,280.3,0.8
		c28.4,0.3,46.3,1.3,59.3-0.2C352.6-1,359,5.7,359,5.7l6.4,11.9c0,0-3.3,4-2.2,7.1l1.4,4.9c0,0-6.4,4-5.1,7.4c0,0,0.1,6,2.2,6.5
		c0,0-1.5,2.4-1.5,3.7c0,1.3-2,5.2-0.9,6.5c1.1,1.3,0.9,4.9,1.4,5.4s7.3,3.8,3.6,10.3c0,0-6.5,0.9-4.9,4.5s-4.6,3.5-4.6,3.5
		s-3.4,1.6-3.1,3.7c0.3,2.1-3.4,1.6-3.3,2.7c0,1-1,0.3-1,3.9c0.1,3.6-1.7,6.5-1.7,6.5l-0.2,2.9c0,0-4.6,3.7-8.3,3.8
		s-7.3-1.4-13.3-1.3c-6,0.1-1.8-0.5-9.6-0.4s-6.8-0.1-11.2-0.1s-6.8-3.8-7.8-0.4c0,0-67.4-1.2-91.8,0.3c0,0-97,2.4-107.9,1.1
		c0,0-46.5,2.4-78.1-16.1c0,0-2.9-2.8-4.5-5.4c0,0-15.5-10.1-12.6-21.6c0,0,1.5-5.2,6.7-5.1C7,51.8,14.1,54.5,19.3,52.9z"/>
	<g class="st0">
		<path class="st1" d="M376.2,47c-0.5-2,0.8-3.9,1-6c0.1-1.5-0.5-3-1.1-4.3c-2.7-5.4-7.3-9.7-12.8-12l1.3,4.7c0,0-6.4,4-5.1,7.4
			c0,0,0.1,6,2.2,6.5c0,0-1.5,2.4-1.5,3.7c0,1.3-2,5.2-0.9,6.5c1.1,1.3,0.9,4.9,1.4,5.4c0.5,0.5,7.3,3.8,3.6,10.3
			c0,0-6.5,0.9-4.9,4.5c1.6,3.6-4.6,3.5-4.6,3.5s-3.4,1.6-3.1,3.7c0.3,2.1-3.4,1.6-3.3,2.7c0,1-1,0.3-1,3.9c0.1,3.6-1.7,6.5-1.7,6.5
			l-0.2,2.9c0,0-2.3,1.8-4.9,2.9c2.3,1.2,5.5,0.5,7.9-0.8c2.8-1.4,5.5-3.5,8.7-3.5c-0.4-1.6,0.6-3.2,1.8-4.3
			c1.2-1.1,2.6-2.2,3.1-3.7c0.3-1,0.2-2.1,0.6-3.1c0.4-1.2,1.3-2.1,1.9-3.2c0.6-1.1,0.7-2.7-0.4-3.4c-0.4-0.2-0.9-0.4-0.9-0.9
			c0-0.5,0.7-0.6,1.2-0.6c2.1,0,4.2-0.8,5.7-2.3c-0.5-1.8,2.6-2.7,2.8-4.5c0.1-0.5-0.1-0.9,0.1-1.4c0.2-0.7,1-1,1.4-1.6
			c0.6-0.9,0.1-2,0.2-3.1c0.1-1.4,1.2-2.5,1.7-3.9c0.7-2.2-0.4-4.6,0.4-6.8c0.3-0.7,0.7-1.4,0.8-2.2C377.5,49.3,376.5,48.3,376.2,47
			z"/>
	</g>
</g>
</svg>