<!-- Generator: Adobe Illustrator 21.0.0, SVG Export Plug-In  -->
<svg version="1.1"
	 xmlns="http://www.w3.org/2000/svg" xmlns:xlink="http://www.w3.org/1999/xlink" xmlns:a="http://ns.adobe.com/AdobeSVGViewerExtensions/3.0/"
	 x="0px" y="0px" width="29.9px" height="29.9px" viewBox="0 0 29.9 29.9" style="enable-background:new 0 0 29.9 29.9;"
	 xml:space="preserve">
<style type="text/css">
	.st0{opacity:0.9;}
	.st1{fill:#010101;}
</style>
<defs>
</defs>
<g class="st0">
	<g id="_x37_50-home_x40_2x.png_1_">
		<g>
			<g>
				<path class="st1" d="M21.6,14.7L21.6,14.7l-2.3-2.4V9.4c0-0.3-0.2-0.5-0.5-0.5h-1c-0.3,0-0.5,0.2-0.5,0.5v0.9L15.1,8l0,0
					C15.1,8,15,8,14.9,8c-0.1,0-0.1,0-0.2,0.1l0,0l-6.5,6.7l0,0c0,0-0.1,0.1-0.1,0.2c0,0.1,0.1,0.2,0.2,0.2c0.1,0,0.1,0,0.2-0.1l0,0
					l1-1.1v6.9c0,0.3,0.2,0.5,0.5,0.5h9.6c0.3,0,0.5-0.2,0.5-0.5V14l1,1.1l0,0c0,0,0.1,0.1,0.2,0.1c0.1,0,0.2-0.1,0.2-0.2
					C21.6,14.8,21.6,14.8,21.6,14.7z M17.8,9.4h1v2.4l-1-1V9.4z M16.4,20.9h-2.9v-5.3h2.9V20.9z M19.7,20.9h-2.9v-5.3
					c0-0.3-0.2-0.5-0.5-0.5h-2.9c-0.3,0-0.5,0.2-0.5,0.5v5.3h-2.9v-7.4l4.8-5l4.8,5V20.9z"/>
			</g>
		</g>
		<g>
			<g>
				<path d="M19.7,21.5h-9.6c-0.3,0-0.6-0.3-0.6-0.6v-6.6l-0.8,0.8c0,0,0,0,0,0c-0.1,0.1-0.2,0.1-0.3,0.1c-0.2,0-0.4-0.2-0.4-0.4
					c0-0.1,0-0.2,0.1-0.3l6.5-6.7c0.1-0.1,0.4-0.1,0.5,0l2,2.1V9.4c0-0.3,0.3-0.6,0.6-0.6h1c0.3,0,0.6,0.3,0.6,0.6v2.9l2.3,2.4
					c0,0,0,0,0,0c0.1,0.1,0.1,0.2,0.1,0.2c0,0.2-0.2,0.4-0.4,0.4c-0.1,0-0.2,0-0.3-0.1c0,0,0,0,0,0l-0.8-0.8v6.6
					C20.3,21.2,20.1,21.5,19.7,21.5z M9.6,13.9C9.7,13.9,9.7,13.9,9.6,13.9c0.1,0,0.1,0.1,0.1,0.1v6.9c0,0.2,0.2,0.4,0.4,0.4h9.6
					c0.2,0,0.4-0.2,0.4-0.4V14c0-0.1,0-0.1,0.1-0.1c0,0,0.1,0,0.1,0l1,1.1c0,0,0,0,0,0c0,0,0,0,0.1,0c0.1,0,0.1-0.1,0.1-0.1
					c0,0,0-0.1,0-0.1c0,0,0,0,0,0l-2.3-2.4c0,0,0-0.1,0-0.1V9.4C19.1,9.2,19,9,18.8,9h-1c-0.2,0-0.4,0.2-0.4,0.4v0.9
					c0,0.1,0,0.1-0.1,0.1c0,0-0.1,0-0.1,0L15,8.1c0,0-0.1-0.1-0.2,0l-6.5,6.7c0,0,0,0,0,0.1C8.3,15,8.4,15,8.4,15c0,0,0.1,0,0.1,0
					c0,0,0,0,0,0L9.6,13.9C9.6,13.9,9.6,13.9,9.6,13.9z M19.7,21h-2.9c-0.1,0-0.1-0.1-0.1-0.1v-5.3c0-0.2-0.2-0.4-0.4-0.4h-2.9
					c-0.2,0-0.4,0.2-0.4,0.4v5.3c0,0.1-0.1,0.1-0.1,0.1h-2.9C10.1,21,10,21,10,20.9v-7.4c0,0,0-0.1,0-0.1l4.8-5c0,0,0.1,0,0.2,0
					l4.8,5c0,0,0,0.1,0,0.1v7.4C19.9,21,19.8,21,19.7,21z M17,20.8h2.6v-7.2l-4.7-4.8l-4.7,4.8v7.2h2.6v-5.2c0-0.3,0.3-0.6,0.6-0.6
					h2.9c0.3,0,0.6,0.3,0.6,0.6V20.8z M16.4,21h-2.9c-0.1,0-0.1-0.1-0.1-0.1v-5.3c0-0.1,0.1-0.1,0.1-0.1h2.9c0.1,0,0.1,0.1,0.1,0.1
					v5.3C16.5,21,16.4,21,16.4,21z M13.6,20.8h2.6v-5h-2.6V20.8z M18.8,12C18.7,12,18.7,11.9,18.8,12l-1-1c0,0,0-0.1,0-0.1V9.4
					c0-0.1,0.1-0.1,0.1-0.1h1c0.1,0,0.1,0.1,0.1,0.1v2.4C18.9,11.9,18.9,11.9,18.8,12C18.8,12,18.8,12,18.8,12z M17.9,10.8l0.7,0.7
					v-2h-0.7V10.8z"/>
			</g>
		</g>
	</g>
	<path d="M14.9,1c7.7,0,13.9,6.2,13.9,13.9s-6.2,13.9-13.9,13.9C7.2,28.9,1,22.6,1,14.9S7.2,1,14.9,1 M14.9,0C6.7,0,0,6.7,0,14.9
		s6.7,14.9,14.9,14.9c8.2,0,14.9-6.7,14.9-14.9S23.2,0,14.9,0L14.9,0z"/>
</g>
</svg>