<!-- Generator: Adobe Illustrator 21.0.0, SVG Export Plug-In  -->
<svg version="1.1"
	 xmlns="http://www.w3.org/2000/svg" xmlns:xlink="http://www.w3.org/1999/xlink" xmlns:a="http://ns.adobe.com/AdobeSVGViewerExtensions/3.0/"
	 x="0px" y="0px" width="93.1px" height="92.9px" viewBox="0 0 93.1 92.9" style="enable-background:new 0 0 93.1 92.9;"
	 xml:space="preserve">
<style type="text/css">
	.st0{opacity:1;}
	.st1{fill:#FFFFFF;}
	.st2{fill:none;stroke:#FFFFFF;stroke-width:2;stroke-miterlimit:10;}
	.st3{fill:#FFFFFF;stroke:#FFFFFF;stroke-width:2;stroke-miterlimit:10;}
</style>
<defs>
</defs>
<g>
	<g class="st0">
		<g>
			<g>
				<g id="_x37_65-arrow-left_x40_2x.png_12_">
					<g>
						<path class="st1" d="M51.8,59.4L39.4,46.5l12.4-12.9l0,0c0.1-0.1,0.1-0.2,0.1-0.3c0-0.3-0.2-0.5-0.5-0.5
							c-0.1,0-0.3,0.1-0.4,0.2l0,0L38.3,46.2l0,0c-0.1,0.1-0.1,0.2-0.1,0.3c0,0.1,0.1,0.3,0.1,0.3l0,0L51,60.1l0,0
							c0.1,0.1,0.2,0.2,0.4,0.2c0.3,0,0.5-0.2,0.5-0.5C51.9,59.6,51.8,59.5,51.8,59.4L51.8,59.4z"/>
					</g>
					<g>
						<path class="st2" d="M51.8,59.4L39.4,46.5l12.4-12.9l0,0c0.1-0.1,0.1-0.2,0.1-0.3c0-0.3-0.2-0.5-0.5-0.5
							c-0.1,0-0.3,0.1-0.4,0.2l0,0L38.3,46.2l0,0c-0.1,0.1-0.1,0.2-0.1,0.3c0,0.1,0.1,0.3,0.1,0.3l0,0L51,60.1l0,0
							c0.1,0.1,0.2,0.2,0.4,0.2c0.3,0,0.5-0.2,0.5-0.5C51.9,59.6,51.8,59.5,51.8,59.4L51.8,59.4z"/>
					</g>
				</g>
				<g>
					<path class="st3" d="M46.5,76.8c-16.7,0-30.3-13.6-30.3-30.3s13.6-30.3,30.3-30.3s30.3,13.6,30.3,30.3S63.2,76.8,46.5,76.8z
						 M46.5,17.5c-16,0-29,13-29,29s13,29,29,29s29-13,29-29S62.5,17.5,46.5,17.5z"/>
				</g>
			</g>
		</g>
	</g>
</g>
</svg>