<!-- Generator: Adobe Illustrator 21.0.0, SVG Export Plug-In  -->
<svg version="1.1"
	 xmlns="http://www.w3.org/2000/svg" xmlns:xlink="http://www.w3.org/1999/xlink" xmlns:a="http://ns.adobe.com/AdobeSVGViewerExtensions/3.0/"
	 x="0px" y="0px" width="29.9px" height="29.9px" viewBox="0 0 29.9 29.9" style="enable-background:new 0 0 29.9 29.9;"
	 xml:space="preserve">
<defs>
</defs>
<g>
	<g>
		<path d="M22.2,9.6h-1.5V7.3c0-0.6-0.5-1.1-1.1-1.1h-9.3c-0.6,0-1.1,0.5-1.1,1.1v2.3H7.7c-1,0-1.7,0.8-1.7,1.7v7.4
			c0,1,0.8,1.7,1.7,1.7h0.7c0.2,0,0.3-0.1,0.3-0.3c0-0.2-0.1-0.3-0.3-0.3H7.7c-0.7,0-1.2-0.5-1.2-1.2v-7.4c0-0.7,0.5-1.2,1.2-1.2
			h14.5c0.7,0,1.2,0.5,1.2,1.2v7.4c0,0.7-0.5,1.2-1.2,1.2h-0.5c-0.2,0-0.3,0.1-0.3,0.3c0,0.2,0.1,0.3,0.3,0.3h0.5
			c1,0,1.7-0.8,1.7-1.7v-7.4C23.9,10.4,23.1,9.6,22.2,9.6L22.2,9.6z M9.7,7.3c0-0.3,0.3-0.6,0.6-0.6h9.3c0.3,0,0.6,0.3,0.6,0.6v2.2
			H9.7L9.7,7.3L9.7,7.3z"/>
		<path d="M18.3,18.3h-6.7c-0.2,0-0.3,0.1-0.3,0.3c0,0.2,0.1,0.3,0.3,0.3h6.7c0.2,0,0.3-0.1,0.3-0.3C18.6,18.4,18.5,18.3,18.3,18.3
			L18.3,18.3z"/>
		<path d="M18.3,20.2h-6.7c-0.2,0-0.3,0.1-0.3,0.3c0,0.2,0.1,0.3,0.3,0.3h6.7c0.2,0,0.3-0.1,0.3-0.3C18.6,20.4,18.5,20.2,18.3,20.2
			L18.3,20.2z"/>
		<path d="M8.7,11.8c0,0.3-0.3,0.6-0.6,0.6c-0.3,0-0.6-0.3-0.6-0.6c0-0.3,0.3-0.6,0.6-0.6C8.5,11.2,8.7,11.5,8.7,11.8L8.7,11.8z"/>
		<path d="M10.5,11.8c0,0.3-0.3,0.6-0.6,0.6c-0.3,0-0.6-0.3-0.6-0.6c0-0.3,0.3-0.6,0.6-0.6C10.3,11.2,10.5,11.5,10.5,11.8L10.5,11.8
			z"/>
		<path d="M12.3,11.8c0,0.3-0.3,0.6-0.6,0.6c-0.3,0-0.6-0.3-0.6-0.6c0-0.3,0.3-0.6,0.6-0.6C12,11.2,12.3,11.5,12.3,11.8L12.3,11.8z"
			/>
		<path d="M9,23.1h11.8v-7.3H9V23.1z M9.7,16.4h10.5v6H9.7V16.4z"/>
	</g>
	<path d="M14.9,1c7.7,0,13.9,6.2,13.9,13.9s-6.2,13.9-13.9,13.9C7.2,28.9,1,22.6,1,14.9S7.2,1,14.9,1 M14.9,0C6.7,0,0,6.7,0,14.9
		s6.7,14.9,14.9,14.9s14.9-6.7,14.9-14.9S23.2,0,14.9,0L14.9,0z"/>
</g>
</svg>