<!-- Generator: Adobe Illustrator 21.0.0, SVG Export Plug-In  -->
<svg version="1.1"
	 xmlns="http://www.w3.org/2000/svg" xmlns:xlink="http://www.w3.org/1999/xlink" xmlns:a="http://ns.adobe.com/AdobeSVGViewerExtensions/3.0/"
	 x="0px" y="0px" width="30px" height="30px" viewBox="0 0 30 30" style="enable-background:new 0 0 30 30;" xml:space="preserve">
<style type="text/css">
	.st0{opacity:0.9;}
</style>
<defs>
</defs>
<g id="_x37_24-info_x40_2x.png_2_" class="st0">
	<g>
		<path d="M15,0C6.7,0,0,6.7,0,15s6.7,15,15,15s15-6.7,15-15S23.3,0,15,0z M15,28.9C7.3,28.9,1.1,22.7,1.1,15S7.3,1.1,15,1.1
			S28.9,7.3,28.9,15S22.7,28.9,15,28.9z M14.9,11.3c0.4,0,0.8-0.2,1.1-0.5c0.3-0.3,0.5-0.7,0.5-1.2S16.3,8.8,16,8.5
			C15.7,8.2,15.3,8,14.9,8c-0.4,0-0.8,0.2-1.1,0.5c-0.3,0.3-0.5,0.7-0.5,1.2s0.2,0.8,0.5,1.2C14.1,11.2,14.4,11.3,14.9,11.3z
			 M16.9,21.1c-0.2-0.1-0.3-0.2-0.3-0.3c-0.1-0.1-0.1-0.3-0.1-0.5v-7.1l-0.1-0.1l-4,0.2v0.7c0.2,0,0.3,0.1,0.5,0.1
			c0.2,0.1,0.3,0.1,0.4,0.2c0.1,0.1,0.2,0.2,0.3,0.4c0.1,0.2,0.1,0.3,0.1,0.6v5.2c0,0.2,0,0.4-0.1,0.5c-0.1,0.1-0.2,0.2-0.4,0.3
			c-0.1,0-0.2,0.1-0.4,0.1c-0.1,0-0.3,0-0.4,0V22h5.1v-0.7c-0.1,0-0.3,0-0.4-0.1C17.1,21.2,17,21.1,16.9,21.1z"/>
	</g>
</g>
</svg>