<!-- Generator: Adobe Illustrator 21.0.0, SVG Export Plug-In  -->
<svg version="1.1"
	 xmlns="http://www.w3.org/2000/svg" xmlns:xlink="http://www.w3.org/1999/xlink" xmlns:a="http://ns.adobe.com/AdobeSVGViewerExtensions/3.0/"
	 x="0px" y="0px" width="19.2px" height="19.2px" viewBox="0 0 19.2 19.2" style="enable-background:new 0 0 19.2 19.2;"
	 xml:space="preserve">
<style type="text/css">
	.st0{fill:#311D18;}
</style>
<defs>
</defs>
<g id="Mark-up_Btn_3_copy">
	<path class="st0" d="M17.9,1.2c-1.7-1.7-4.3-1.7-6,0l-11,11c-0.1,0.1-0.1,0.2-0.2,0.3l-0.8,6c0,0.2,0,0.3,0.2,0.5
		c0.1,0.1,0.2,0.2,0.4,0.2c0,0,0,0,0.1,0l3.6-0.5c0.3,0,0.5-0.3,0.5-0.6c0-0.3-0.3-0.5-0.6-0.5L1.2,18l0.6-4.2l4.4,4.4
		c0.1,0.1,0.2,0.2,0.4,0.2c0.1,0,0.3-0.1,0.4-0.2l11-11c0.8-0.8,1.2-1.9,1.2-3C19.2,3.1,18.7,2,17.9,1.2L17.9,1.2z M12.2,2.6L14,4.4
		l-10,10l-1.8-1.8L12.2,2.6z M6.6,17l-1.8-1.8l10-10L16.6,7L6.6,17z M17.4,6.2L13,1.8c0.6-0.5,1.3-0.7,2-0.7c0.8,0,1.6,0.3,2.2,0.9
		c0.6,0.6,0.9,1.4,0.9,2.2C18.1,5,17.8,5.7,17.4,6.2L17.4,6.2z M17.4,6.2"/>
</g>
</svg>