<!-- Generator: Adobe Illustrator 21.0.0, SVG Export Plug-In  -->
<svg version="1.1"
	 xmlns="http://www.w3.org/2000/svg" xmlns:xlink="http://www.w3.org/1999/xlink" xmlns:a="http://ns.adobe.com/AdobeSVGViewerExtensions/3.0/"
	 x="0px" y="0px" width="37px" height="37px" viewBox="0 0 37 37" style="enable-background:new 0 0 37 37;" xml:space="preserve">
<style type="text/css">
	.st0{opacity:0.9;}
	.st1{fill:#231F20;}
	.st2{fill:#FFFFFF;}
</style>
<defs>
</defs>
<g>
	<g class="st0">
		<circle class="st1" cx="18.5" cy="18.5" r="18.5"/>
	</g>
	<g>
		<g>
			<polygon class="st2" points="25.8,29.3 11.3,29.3 11.3,12.9 12.4,12.9 12.4,28.2 24.6,28.2 24.6,12.9 25.8,12.9 			"/>
		</g>
		<g>
			<rect x="14.5" y="15.7" class="st2" width="1.1" height="10.2"/>
		</g>
		<g>
			<rect x="18" y="15.7" class="st2" width="1.1" height="10.2"/>
		</g>
		<g>
			<rect x="21.4" y="15.7" class="st2" width="1.1" height="10.2"/>
		</g>
		<g>
			<path class="st2" d="M27.4,13.5H9.6V10h17.7V13.5z M10.8,12.4h15.5v-1.3H10.8V12.4z"/>
		</g>
		<g>
			<polygon class="st2" points="21.3,10.4 20.2,10.4 20.2,8.8 16.8,8.8 16.8,10.4 15.7,10.4 15.7,7.7 21.3,7.7 			"/>
		</g>
	</g>
</g>
</svg>