<?xml version="1.0" encoding="utf-8"?>
<!-- Generator: Adobe Illustrator 22.0.1, SVG Export Plug-In . SVG Version: 6.00 Build 0)  -->
<svg version="1.1" id="Layer_1" xmlns="http://www.w3.org/2000/svg" xmlns:xlink="http://www.w3.org/1999/xlink" x="0px" y="0px"
	 viewBox="0 0 37 37" style="enable-background:new 0 0 37 37;" xml:space="preserve">
<style type="text/css">
	.st0{opacity:0.9;}
	.st1{fill:#231F20;}
	.st2{fill:#FFFFFF;}
</style>
<g>
	<g class="st0">
		<circle class="st1" cx="18.5" cy="18.5" r="18.5"/>
	</g>
	<g>
		<path class="st2" d="M10.8,27.2c-0.3,0-0.5-0.1-0.7-0.3c-0.4-0.4-0.4-1,0-1.4l7-7l-7-7c-0.4-0.4-0.4-1,0-1.4s1-0.4,1.4,0l7.7,7.7
			c0.4,0.4,0.4,1,0,1.4l-7.7,7.7C11.3,27.1,11.1,27.2,10.8,27.2z"/>
	</g>
	<g>
		<path class="st2" d="M26.2,27.2c-0.3,0-0.5-0.1-0.7-0.3l-7.7-7.7c-0.2-0.2-0.3-0.4-0.3-0.7s0.1-0.5,0.3-0.7l7.7-7.7
			c0.4-0.4,1-0.4,1.4,0s0.4,1,0,1.4l-7,7l7,7c0.4,0.4,0.4,1,0,1.4C26.7,27.1,26.4,27.2,26.2,27.2z"/>
	</g>
</g>
</svg>
