<!-- Generator: Adobe Illustrator 21.0.0, SVG Export Plug-In  -->
<svg version="1.1"
	 xmlns="http://www.w3.org/2000/svg" xmlns:xlink="http://www.w3.org/1999/xlink" xmlns:a="http://ns.adobe.com/AdobeSVGViewerExtensions/3.0/"
	 x="0px" y="0px" width="469.3px" height="67.4px" viewBox="0 0 469.3 67.4" style="enable-background:new 0 0 469.3 67.4;"
	 xml:space="preserve">
<style type="text/css">
	.st0{opacity:0.7;}
	.st1{fill:#026C88;}
	.st2{opacity:0.45;}
</style>
<defs>
</defs>
<g>
	<g class="st0">
		<path class="st1" d="M309.5,0.9c3.4-0.1,6.7-0.2,10-0.3c-28.4-1.2-57.8-0.5-86.7,0.6c-7.2,0.3-14.3,0.6-21.4,0.9
			c-3.5,0.2-7,0.3-10.6,0.3c-3.5,0.1-7,0.1-10.6,0.3c-14.3,0.4-28.2,0.8-41.5,0.7c-3.4-0.4-10.1-1.3-13.5-1.8
			c-13.2,0.1-27.8,1.1-42.1,2.1c-14.3,1-28.3,2.1-40.6,2.8C46.4,6.8,40.9,9.1,37,11c-3.9,2-6.4,4-6.4,4c-3.2,1.3-6.5,4.1-3.5,5.9
			c3.1,0.7,8.7,1,13.4,1.8c4.8,0.6,8.7,1.4,8.7,3c0,0.8-3.2,0.7-6.4,0.7c0,3.2-10,8.7-13.4,8.6c-1.7,0.7-7.5,1.7-13.5,2.8
			C10,38.5,4,39.3,2.2,39.9c-5.1,0.4-0.8,4.6,7,9c3.9,2.3,8.5,4.4,13.1,6.2c4.6,1.9,9.1,3.2,12.6,3.9c6.9,1.9-0.1,3.8-0.3,6.1
			c7.1-0.4,10.5,1.8,17.6,1.2c0,0.4,5.2,0.8,11.8,1c3.3,0.1,6.9,0.1,10.3,0.1c3.4,0,6.7-0.1,9.2-0.2c0,0,0.9-0.2,3-0.5
			c2.1-0.3,5.6-0.6,10.7-1c3.4-0.2,3.4-1,3.3-1.8c0.1,0.8,0.1,0.8,0.1,1.5c1.7-0.9,4.2-1.1,6.8-1.1c2.5-0.1,5.1-0.1,6.7-0.6
			c0.1,0.8,0.1,0.8,0.1,1.5c6.6-2.1,13.4-1.2,20-2.5c0.1,0.8,0.1,0.8,0.1,1.5c3.3-0.3,6.6-0.6,6.7,0.1c0.1,0.8,0.1,0.8,0.1,1.5
			c3.4,0.4,9.9-1.7,10-0.2c-0.1-0.8-0.1-0.8-0.1-1.5c13.2-1.3,23-1.4,32.7-1.5c6.5,0.3,13.2,0.2,20.6,0c7.2-0.1,14.9-0.8,22.6-1.4
			c15-1.3,30.4-2.9,45-4.4c3.3-0.1,6.4-1.8,3.1-3.2c3.3-0.1,6.5-0.3,9.8-0.4c6.5-0.3,3.2-2.4,9.7-2.7c52.3-5.8,104.9-1.9,157.6-3.5
			c-13.2-0.9-23.1-2.6-36.2-1.9c0-0.8,0-2.3-3.3-2.3c-19.8-0.9-42.8,0.8-52.7-2.2c-3.3-0.7-6.6-3-16.5-2.8c3.3,0,6.6-0.1,9.9-0.1
			c0-0.8,0-2.3,0-2.3c-13.2-0.6-29.7-1-42.9-1.4c0,0,0-1.5-0.1-2.3l-6.6,0.2c-3.4-2.6,4-4,14.3-4.8c10.3-0.8,23.5-1.1,31.8-1.6
			c0-0.8,0-2.3,0-3.1l-6.6,0.1l0-1.5c19.9-0.3,36.4-0.4,56.3-0.4c-3.3,0-10,0-13.3,0c0-0.8,0-1.5-3.3-1.5
			c13.3-0.1,29.8,0.8,43.1-0.6c3.3-0.7,0-3.1-9.9-3.9c-10,0-16.6-0.1-26.6-0.1l0-1.5c6.6,0,16.6,0.8,23.3,0.1
			c3.3-0.7-6.6-2.3-3.3-3.1c3.3,0,6.7,0,10-0.7c-10-0.1-23.3,0.6-33.3-0.1c-3.3-0.8-6.7-1.5-6.7-3c-16.6,0.8-30-1.3-40.1-5
			C336.2-0.5,319.5,0.6,309.5,0.9z"/>
	</g>
	<g class="st2">
		<path class="st1" d="M127.7,63.8c0-0.9-1.6-1.7,0.7-2.3c7.3-1.4,13.5,1,20.8-0.5c0.1-0.5,0.3-1,0.4-1.5c5.7,0.1,11.7,0.3,17.7,0.5
			c11-1.3,21.8-2.6,32.6-4c-0.3-0.5-0.5-1,0.6-1.3c4.5-0.7,10.6-0.8,17.2-1c1-0.1,1.9-0.3,2.9-0.4c0.7-0.4,0.9-0.9,1-1.2
			c2.9-0.1,5.6-0.2,8.1-0.2c7.9-1.3,15.9-2.6,24-4c8-1.3,16.1-2.6,24.3-3.8c16.4-2.5,33.2-4.9,50.8-7c7.4-1.5,14.9-3.1,22-3.8
			c10.7-0.8,24.3,0,34.7,0.1c-1.6-5.2,23.8-7.8,18.7-13c7,0.1,17.4,0.3,18-1.2c1.6-4.4,7-9.4,25.6-11.9c7.3-0.6,18.4,1.5,20.9,0.6
			c4-1.4-9.4-3.2-5.3-4.6c-53.9-2.3-106-0.3-160.6,1.8c-4.6,0.8-15.9,1.7-30.7,2.9c-14.8,1.2-33.3,2.8-51.7,4.4
			c-9.3,0.7-18.9,1.4-28.1,2.3c-9.2,0.9-18.1,1.7-26.3,2.5c-16.4,1.6-29.9,2.7-37.7,3.1c-0.9,0.1-1.9,0.2-2.8,0.3
			C108,21.5,87.6,23,73.5,25c-3.3,0.7-6.5,1.3-9.8,1.9c-3.3,0.6-6.6,1.4-9.9,1.9c3,1,5.9,1.9,8.3,2.8c-1.7-0.1-3.4-0.1-5-0.2
			c-1.6-0.1-3.2-0.2-4.6-0.2c-2.9-0.1-5.2,0-6.5,0.4c-14.5,1.1-6.7,4.3-1.2,8.3c4,1.7-1.7,3.8,4.7,5.7c-2.3-0.1-4.1-0.3-5.8-0.4
			c-1.7-0.2-3.5-0.3-5.8-0.6c-0.3,0.7,3.3,0.8,6.5,1c3.3,0.1,6.2,0.3,4.5,1.4c-4.5-0.7-9.6-0.3-14.2-0.7c0.7,1.1,4.8,1.6,8.5,2.1
			c3.8,0.4,7.2,0.7,6.8,1.7c-1.3,0.1-4.6-0.6-7.6-1.3c-3.1-0.7-5.9-1.1-6.5,0.1c-0.2,0.5,4.5,0.9,6.8,1.2c-7.3-0.2-13,0.1-15.3,0.8
			c-1.1,0.4-1.4,0.9-0.6,1.6c0.8,0.7,2.8,1.6,6.1,2.6c-2.3-0.2-5.1-0.8-8-1.4c-2.8-0.6-5.7-1.1-8.2-1.2c0,0,0,0,0,0
			c2.4,0.4,6.6,1.4,8.9,1.7c-2.8-0.4-5.6-0.8-8.4-1.2c0.4,0.4,0.8,0.8,1.3,1.2c2.1,0.6,4.1,1.1,6.3,1.4c-1.9-0.3-3.7-0.5-5.6-0.8
			c1.3,1,2.8,1.9,4.5,2.8c1.6,0.6,3.2,1.2,4.8,1.9c1.6,0.6,3.1,1.2,4.5,1.7c2.8,1,5.3,1.8,7.2,2c14.8,1.6,29.5,2.3,44.2,2.3
			C99.1,65.5,113.5,64.8,127.7,63.8z"/>
	</g>
</g>
</svg>