<!-- Generator: Adobe Illustrator 21.0.0, SVG Export Plug-In  -->
<svg version="1.1"
	 xmlns="http://www.w3.org/2000/svg" xmlns:xlink="http://www.w3.org/1999/xlink" xmlns:a="http://ns.adobe.com/AdobeSVGViewerExtensions/3.0/"
	 x="0px" y="0px" width="379.7px" height="106.4px" viewBox="0 0 379.7 106.4" style="enable-background:new 0 0 379.7 106.4;"
	 xml:space="preserve">
<style type="text/css">
	.st0{opacity:0.85;}
	.st1{fill:#A8BE47;}
	.st2{opacity:0.65;}
</style>
<defs>
</defs>
<g class="st0">
	<path class="st1" d="M35.9,12.8c0,0-2.6-4.3,25.8-5.4c44.5-1.6,88.6-5.2,133.2-6.7c12-0.4,24-0.8,35.9,0
		c12.1,0.8,24.2,2.8,36.3,3.3c18.1,0.7,36.2-2.1,54.2,0c15.9,1.9,31.4,7.6,44.7,16.7c-4.9,0.7-9.5,3.2-12.7,6.9
		c1.5,0.9,3,1.9,4.5,2.8c-1.7,3.4-4,6.4-6.7,9.1c4,2.4,6.8,6.9,7.1,11.5c-1.1,1.5-3.2,2.2-5,1.6c0.1,3.7,3.8,6.8,7.4,6.3
		c-3,2.2-6,4.4-9,6.6c-1.1,0.8-2.3,1.7-3.7,1.9c-1.9,0.3-3.7-0.8-5.6-0.9c-1.9-0.2-4.3,1.3-3.7,3.1c7.3,2.9,11.9,11.5,10.1,19.2
		c-1.7,7.6-8.6,13.1-16,15.5c-7.4,2.4-15.4,2.1-23.1,1.8c-77.5-3.1-154.9-6.2-232.4-9.3c-19.5-0.8-39.1-1.6-58.3-5.5
		c-4.2-0.9-8.7-2-11.7-5.2c-2.9-3.2-3.3-9,0.3-11.4c3.8-2.5,10.6-0.7,12.2-5c-6.6-3.7-12.3-9-16.6-15.2c-2-2.9-3.8-6.5-3-10
		c0.8-3.5,5.5-6,8.2-3.6c1.7-0.7,0.6-3.5-1-4.4s-3.8-2.1-3.6-3.9c0.3-2.5,4.1-2.1,6.5-3.2c1.9-0.9,2.8-3,3.8-4.8
		c4.3-7.5,13.1-12.2,21.8-11.6"/>
	<g class="st2">
		<path class="st1" d="M379.4,69.7c-1.3-5.4-6.9-8.5-11-12.2c-4.1-3.7-6.8-11.1-2.3-14.4c-1.3-1-2.5-2-3.8-3
			c1.2,0.1,2.5-0.7,2.8-1.9c-2.2-2.6-4.9-4.8-7.9-6.5c-1.7,2.9-3.7,5.6-6.1,8c4,2.4,6.8,6.9,7.1,11.5c-1.1,1.5-3.2,2.2-5,1.6
			c0.1,3.7,3.8,6.8,7.4,6.3c-3,2.2-6,4.4-9,6.6c-1.1,0.8-2.3,1.7-3.7,1.9c-1.9,0.3-3.7-0.8-5.6-0.9c-1.9-0.2-4.3,1.3-3.7,3.1
			c7.3,2.9,11.9,11.5,10.1,19.2c-1.7,7.6-8.6,13.1-16,15.5c-1.7,0.5-3.5,0.9-5.3,1.2c3.6,0,7.1-0.3,10.7-1.1
			c11.7-2.6,21.6-10.1,31-17.5C374.8,82.7,381.1,76.6,379.4,69.7z"/>
		<path class="st1" d="M307.4,3.3c-10-2.1-20-3.5-30.2-3.3C266.6,0.2,256,2,245.5,2.2c7.2,0.8,14.3,1.6,21.5,1.9
			C280.5,4.6,294,3.2,307.4,3.3z"/>
		<path class="st1" d="M33.5,93.8c2,0.9,4.3,1.4,6.4,1.7c21.9,3.2,44,4.7,66,4.5c5.5-0.1,11-0.2,16.4-1.3c-15-0.6-30-1.2-45.1-1.8
			C62.7,96.3,48,95.7,33.5,93.8z"/>
		<path class="st1" d="M21.2,17c-2,0.6-3.8,1.6-5.1,3.3c-0.8,1-1.3,2.3-1.6,3.5C16.2,21.1,18.5,18.8,21.2,17z"/>
	</g>
</g>
</svg>