<!-- Generator: Adobe Illustrator 21.1.0, SVG Export Plug-In  -->
<svg version="1.1"
	 xmlns="http://www.w3.org/2000/svg" xmlns:xlink="http://www.w3.org/1999/xlink" xmlns:a="http://ns.adobe.com/AdobeSVGViewerExtensions/3.0/"
	 x="0px" y="0px" width="358px" height="20.7px" viewBox="0 0 358 20.7" style="enable-background:new 0 0 358 20.7;"
	 xml:space="preserve">
<style type="text/css">
	.st0{fill:#311D19;}
	.st1{fill:#EFB24F;}
	.st2{fill:#823129;}
</style>
<defs>
</defs>
<g>
	<g>
		<g>
			<g>
				<g>
					<g>
						<path class="st0" d="M0.9,10c-1.3,0.1,0.7,0.3-0.9,0.1C0.2,10,0.4,9.9,0.9,10z"/>
						<path class="st0" d="M353.6,10.2c-4.2,0.8-9.8,0-14.4,0.5c-0.5,0,0.1-0.4-1.1-0.3c-4.5,0.6-11.6,0.2-17-0.2l0.3-0.1
							c-1-0.1-2.3,0.3-3.4,0.3c0-0.1,0.4-0.1,0.1-0.2c-0.3,0.2-2,0.1-2.5,0.3c-0.4-0.1-0.4-0.3-1-0.4l-0.6,0.3
							c-1.8,0.6-4.3,0-6.7,0.3c0.1-0.1,0.4-0.1,0.2-0.2c-3.8,0.4-8.7,0.3-13,0.5c0.2-0.1,0.3-0.3,0.1-0.4c-0.2,0.3-1.5,0.4-2.7,0.4
							c-0.5-0.3-2,0.3-3.3,0.1l0.1-0.1c-1,0.3-1.5-0.2-2.3,0.2l-0.6-0.2c-0.4,0.4-1.4-0.2-2.3,0l0,0.1c-0.8,0.1-1.2-0.1-1.9,0
							l-0.1,0c-1.7,0.1-2.7-0.1-2.6,0.2c-0.6-0.3,1.6-0.1,0.7-0.5c-5.6,0.3-11.3,0.3-16.9,0.3c-0.6-0.1-1-0.2-1.2-0.3
							c-0.6,0.1-2.1,0.1-2.6,0.2c0.2,0-0.4-0.2-0.7-0.2c-1-0.1-1.1,0.4-2.2,0.2c0.4-0.1,0.6-0.2,0.4-0.3c-1,0.2-2.2,0.2-3.4,0.3
							c0.2-0.1,0.4-0.1,0.4-0.2c-1.2,0.3-2.3-0.1-3.3,0.1l0.4-0.2c-1.7-0.2-0.5,0.4-2,0.3c0.4-0.1,0.2-0.1,0.3-0.2
							c-1.4,0.3-3.7,0.2-5.1,0.3c0.1,0,0.1-0.1,0.1-0.1c-1.5,0-3.1-0.1-4.8,0.1c-0.6-0.1,0.2-0.5-1.4-0.4c0.1,0.4-2.7,0.2-1.8,0.6
							c-1.4-0.1-3.6-0.2-4.5-0.1c0.6-0.1-0.7-0.5,0.5-0.5l-0.9-0.2c0.1-0.2,0.9,0.1,0.6-0.1c-0.6,0-2.3,0.2-2.8,0.1
							c-1.1,0.2-2,0.7-3.8,0.7c0.8-0.1-0.5-0.4,0.1-0.5l-2.4,0.7c-0.6,0-0.1-0.3-1-0.2c0,0.1-0.3,0.2-0.6,0.2
							c-0.2,0-2.4,0.1-2.6-0.3c-0.3-0.1,0.9-0.1,0.3-0.2c-1.1,0-1.1,0.1-2.2,0.1l0,0c-0.7-0.1-2.1,0.2-1.3,0.4
							c0.5,0-0.2-0.2,0.5-0.1c-0.5,0.2-1.7,0.3-2.8,0.3c0.4-0.1,0.3-0.2,0.5-0.3c-1.4,0.3-2.9,0.4-4.5,0.5c0,0.2,0.6-0.3,0.8-0.2
							c-2-0.2-4.2,0.3-5.9,0c0.3,0,0.2,0.2,0.1,0.2c-1,0-0.9-0.3-1.6-0.2c-0.1-0.1-0.8,0-1.5,0.1c-0.3,0.1-0.2-0.1,0.4-0.1
							c-0.9,0.1-4.6,0.4-6.7,0.1c0,0.1-1.3,0.4-1.8,0.3l0.2-0.2c-0.4-0.1-1.6,0-1.7-0.2c-1,0.3,4-0.2,2.6,0c-0.4-0.2-2,0.4-1.7,0.1
							c-1,0-1.9,0.3-2.9,0.1c0.3,0,0.8-0.3,0-0.3c-1.4,0-0.4,0.1-1.5,0.2l-0.7,0.1c0,0.2-1.2,0-0.7,0.2c-0.2-0.2-2,0.1-1.9-0.3
							l0.2-0.3c-0.6,0-1,0.3-1.5,0.4c-0.1,0-0.2-0.1-0.2-0.1c-0.1,0.4-1.4,0-2.2,0.3c-1.3-0.2-3.2,0-3.8-0.3c-1,0.1-1.9,0.3-3,0.2
							c0.2,0,0.5-0.1,0.6-0.2c-0.7-0.1-0.9,0-1.5,0.1c0.1-0.1-1.4-0.3-2.2-0.4c-1,0.1-0.6,0.4-0.7,0.5c-0.9-0.4-2.7,0.3-3.8-0.1
							c0.3-0.1,1.4-0.2,0.6-0.3c-0.9-0.4-1.8,0.3-3.2,0.1l0.3,0.4c-0.6-0.2-2.1,0.2-1.9-0.2c-0.5,0.1-1.7-0.1-1.5,0.2
							c-2.3-0.3-5.7,0.2-7.1-0.5c-0.3,0.1-1.2,0-1,0.2c0.6,0.2,0.8-0.1,1,0c-0.3,0-0.4,0.1-0.4,0.2c-0.7-0.1-1.3-0.1-0.6-0.4
							c-1.6-0.2-1.7,0.6-3.7,0.5c0.1-0.1-0.1-0.2-0.7-0.2l-1.1,0.3c-1.3-0.1-0.8-0.3-0.8-0.6c-0.7,0-1.6,0-1.9,0.2l-0.9-0.3
							c0.6,0.2-0.6,0.2-0.9,0.2l0.3-0.1c-0.1-0.1-1,0-1.4,0c0.1,0.2,0.9,0.2,1.4,0.3c-0.4,0.1-0.9,0.1-1.4,0.2
							c0.2-0.2-1.2-0.2-1.7-0.2c-0.6-0.1-0.7,0.2-0.9,0.2c0-0.1-1.1,0-0.6-0.2c0.2,0,0.5,0.1,0.9,0c-0.4-0.1-0.4-0.3-1.3-0.2
							c-0.7,0.1,0.2,0.5-1.1,0.3c0.3-0.1,0.4-0.2,0.7-0.2l-1.2-0.1l-0.1,0.2c-0.2-0.1,0-0.1-0.1-0.1c-0.4,0.2-1.8,0.1-2.1,0.3
							c-0.6,0-1.3-0.2-1.8-0.2l0.1,0c-0.7-0.1-1.6,0-2.2,0.1l0,0c-0.4,0-1.3,0-1.8,0.1c-1-0.2-0.3-0.8-1.4-0.6c-1,0-1.5,0.4-1.1,0.6
							c-1.8-0.2-3.7,0.2-5.4-0.1c-0.3,0.1-0.1,0.1-0.6,0.2c-2.6-0.1-5.4,0.3-7.5-0.2c0.7-0.1,0.1-0.2,0-0.3c-0.6,0.2-0.7-0.2-1,0.1
							c0.1,0.2,0,0.3,0.7,0.4c-1.5,0.1-3.9,0.1-4.7-0.1c0.4,0.1,0.1,0.2-0.2,0.2c0.1-0.3-1-0.4-1.9-0.3l-0.1,0.2l-0.6-0.2
							c-0.3,0.1-0.4,0.4-1.2,0.2c0-0.1-0.1-0.2-0.2-0.2c-0.9,0.2-2.1,0.4-3.1,0.3l-0.8-0.3c-0.4,0-1.1,0.2-0.4,0.3
							c-1.6-0.2-2.7-0.2-3.2-0.4c-2.8,0.6-6.9,0.6-10.2,0.6l0.1-0.1c-0.9-0.1-0.5,0.3-1.1,0.2c0.3-0.1-0.7-0.3,0-0.5
							c-1.3-0.2-1.6,0.3-2.5,0.3c-0.1,0.2,0.7-0.1,0.5,0.1c-0.1,0.1-1.8-0.1-1.9,0.1c-0.3-0.1-0.1-0.3,0.1-0.4L80.2,12
							c-0.9-0.3,2.2-0.6,1.2-1l-0.7,0c-0.7-0.3,1.9-0.3,0.1-0.4c-0.8,0.1-1.4,0.6-0.7,0.7c-1.6,0.1-0.7,0.7-2.5,0.7
							c-0.5-0.2,1.4,0,1.1-0.3c-0.8-0.2-1.6,0.1-2.4,0c0.8,0.1,0.1,0.4-0.4,0.5c-0.9-0.1,0.6-0.3-0.7-0.3c-0.2,0.2-1.4,0.3-0.4,0.4
							c-0.5,0.4-1.3-0.1-2,0.2c-0.4-0.3,1.3-0.6-0.1-0.8c0.2,0.3-1.7,0.4-1,0.7c-0.5-0.1-0.6-0.3-0.2-0.4c-0.8-0.2-1.9,0.5-2.1,0
							l-0.3,0.3c-0.2-0.1-0.6-0.2-1-0.3c-0.7,0-2.2,0.4-2.1,0c-0.2,0-1.8,0-1.2,0.3c1,0.2,1.1-0.2,1.6,0.2c-0.7-0.3-1.4,0-1.9,0.1
							l-0.1-0.2c-0.3,0.1-1.1,0-1.3,0.2c0.3-0.1,0.1-0.2-0.1-0.2l-0.3,0.2c-1.3,0.1-0.3-0.4-1.6-0.3l1-0.2c-0.2,0-0.7-0.2-1.3-0.1
							c-0.2,0.2-0.7,0.5-0.9,0.6c-0.7,0.1-0.3-0.2-1.1,0l1-0.3c0.1-0.1-0.6-0.4-1.6-0.3c-0.6,0.1-1.6,0.4-0.6,0.5
							c-0.5,0-1.2-0.1-0.8-0.3c-1.1,0.1,0.1,0.2-0.8,0.4c-0.4-0.1-1.6-0.3-2.4-0.6l1-0.4l-0.7,0c0.9-0.3-0.4-0.2,0-0.5
							c-0.5,0-1,0.1-1.5,0.1c1.3,0.5-1.5,0.7-1.1,1.1c-1.8,0.1-1.1-1.1-3.1-0.4c0.3,0.1-0.6,0.5,0.6,0.3c-1.1,0-0.8,0.4-2.1,0.3
							c1-0.2-1.1-0.4,0.4-0.7c-0.1,0.1,0.8,0.1,1,0.1c-0.5-0.2,0.1-0.4-1.1-0.4c-0.7,0-1.7,0.1-1.6,0.3c0,0.3,1.1,0,0.6,0.2
							c-1.4,0.1-1.7-0.3-2.2,0.2c0.9,0,1.1,0.2,1.1,0.4l-1,0.1l0.2-0.2c-1.7-0.1-0.5,0.3-2.1,0.3l-0.8-0.3c0.4-0.3,2.4,0.1,2.1-0.3
							c-1.1,0-1.4,0.2-2.4,0.1c0.2,0,0.5-0.1,0.7-0.1c-0.4,0-0.8-0.6-2.3-0.3c-0.8,0.1-0.2,0.2-0.2,0.3c-1.7,0.1-2.2,0.2-3.3,0.3
							c0.2-0.3-1.9,0-0.7-0.4c0.6,0.2,3,0.2,3.6-0.1c-0.6-0.4,1.3,0.1,1.7-0.4c-1.4,0-1.3-0.4-1.5-0.7c-0.4,0-0.7,0.1-1,0.1
							c-0.2,0.2,0.3,0.2,0.4,0.5c-1.5-0.1-3,0.1-3.8,0.3c-0.5-0.1-0.3-0.4,0.3-0.4c-1.8,0.1-3.7,0-5.4,0c1.1,0.4-1.9,0.1-1.2,0.4
							c0.9,0.1,1.7,0.4,1.2,0.6c-0.6,0,0-0.2-0.2-0.3c-0.7,0.2-1.1-0.3-1.9,0c1.6-0.1,0.3-0.5,0.6-0.8C26.8,11.4,28,11,26.8,11
							c-1.2,0.2-2.6,0.3-4,0.4c-1.7-0.3-4.2,0-5.7,0c-0.8-0.2-0.2-0.5-1.1-0.6c-1,0,0.7,0.4-0.7,0.2l0.1-0.1
							c-0.4,0.1-2.7-0.2-3.1,0.3l0.4-0.4c-0.3,0-0.5,0.1-0.7,0.1c0-0.1-0.3-0.2,0.1-0.3c-0.9-0.3-1.9,0-2.9,0.1l0.6,0.2
							c-1.7,0.2-2.8,0-4.4,0l0-0.2l-1,0.1c0.2-0.2-0.6-0.4-1.2-0.2L6,10.1c0.7,0.1-0.8,0.3-0.3,0.5c0.4,0.2,1.9,0.1,2.1-0.1
							c-0.6,0-0.6,0-1,0.1c-0.2-0.3,0.7-0.3,1.1-0.5c-0.3,0-0.7-0.1-0.8,0C7.7,10,8.3,10,9.3,10c-0.7,0.1,0.4,0.2,0.1,0.3
							c0.1-0.3,1-0.4,2.2-0.3c0.9,0.3,2.3-0.2,3.7-0.1c-0.6,0.3-1.3,0.5-2.2,0.6c0.9,0.1,1,0,1.9,0.1c0.4-0.2,0.7-0.5,1.9-0.6
							l0.1,0.2c1-0.1,1-0.4,2.4-0.3c2.3,0.1,4.6,0.1,6.4,0.1l0.1,0.2c1-0.4,3.2-0.2,4.5-0.4c2.2,0.2,4.8-0.2,5.9,0.2
							c3.9-0.2,7.3-0.3,11.4-0.2L46.9,10c0.7-0.2,0.5,0.2,1.2,0.1c-0.8-0.2,1-0.3,1.5-0.5c1.8,0.2,4.1,0,5.7-0.2l0.1,0.2
							c1.6-0.4,3.5,0,5.6,0c0.2,0.1,0.6,0.3,1.2,0.3c1.1-0.3,1.7-0.3,3.3-0.5c1.2,0,3.1,0.1,4.3,0.2c4.4-0.5,8.9-0.2,13.5-0.4
							l0.3,0.2c4.4-0.5,9.9,0,13.7-0.3l-0.4,0.4c1.2,0.1,2.7-0.1,2.4-0.4c1.2,0.1,3-0.2,3.7,0.1c1.2,0.1,1.5-0.2,2.5-0.2
							c2.4,0.2,3.3,0.1,5.6,0l-0.6,0c-0.3,0.1-0.3,0.3,0.3,0.3c0.9-0.1,3.1,0.1,2.3-0.4c2.4,0.3,5.7-0.2,8.1,0.2
							c-0.2-0.1,0.4-0.2,0.7-0.2c2.1,0,4.4,0.3,6.1,0c0.3,0.1-0.5,0.2,0.3,0.2c0.5-0.1,0-0.2,0.6-0.2c3.5-0.2,7,0.3,10.2,0.2
							c5.6-0.3,11.5-0.1,16.9-0.2L155.8,9c1.8-0.4,4.2,0.4,5.7-0.2c0.4,0.1,1.6,0,1.3,0.2c1.4-0.3,4,0.2,6.1-0.1
							c-0.2,0-0.3,0-0.5,0.1c2.1,0.2,4-0.1,6.2,0.1c-0.2,0-0.6,0.1-0.7,0.2c0.9,0.2,2-0.4,2.5,0.1c0.5,0,0.3-0.2,0-0.2
							c4.9,0.2,10-0.1,15.1-0.2c3.6,0.3,0.2,0.8,3.1,0.4c0.2,0.1,0.2-0.2,0.2-0.1c1.1-0.1,1.7,0.5,2.5,0.3c-0.3-0.3,0.5-0.2,0.5-0.3
							c2.2,0.2,2.7,0.4,4.4,0.2l-0.1,0.2c2-0.4,4.4-0.2,6.1-0.7c11.3-0.1,22.1-0.4,33.1-0.4c10.9,0.1,21.5-0.1,32.6,0.1
							c2.6,0.4,2.8,0.4,5.6,0.2c-0.1,0.1-0.3,0.1-0.1,0.1c0.1-0.3,2,0,2.3-0.3c4.1,0.1,7.8,0,12,0c-0.7,0-1,0.3-0.2,0.3l0.8-0.2
							l0.1,0.1c0.5,0,1.1-0.2,0.6-0.3c10.6-0.3,20.9,0.4,31.3,0.3c2.5,0.1,5.9,0,8.6-0.1c7.9,0.4,15,0.8,23.1,0.5
							C358,9.1,356.9,10,353.6,10.2z"/>
						<path class="st0" d="M2.4,10c0.3,0.2,1.2,0.3,0.5,0.5C2.8,10.3,2.3,10.1,2.4,10z"/>
						<path class="st0" d="M27,11.7c0,0,0.3,0.1,0.4,0.1c-0.3,0-0.6,0.2-0.8,0.1C26.9,11.8,26.8,11.7,27,11.7z"/>
						<path class="st0" d="M33.3,11.8C33.2,11.9,31.8,12,31,12L33.3,11.8z"/>
						<path class="st0" d="M39.1,12.4c0.5,0.1,0.4,0.2-0.3,0.2C38.7,12.5,39,12.4,39.1,12.4z"/>
						<path class="st0" d="M39.5,12c0.5,0,0.7,0.1,1,0.2C40.5,12.1,39.4,12.3,39.5,12z"/>
						<path class="st0" d="M52.2,12.5c0.3,0,1-0.1,1.3,0C53.1,12.4,52,12.7,52.2,12.5z"/>
						<path class="st0" d="M58.1,12.2c0.2,0,0.3,0,0.5,0c0.3,0.1,0,0.2-0.3,0.2L58.1,12.2z"/>
						<polygon class="st0" points="165.5,11.7 164.8,11.7 164.9,11.6 						"/>
						<path class="st0" d="M212.5,11.6c0.6-0.1,0.4,0.1,0.5,0.2C212.5,11.8,213.3,11.6,212.5,11.6z"/>
						<polygon class="st0" points="237.9,10.9 237.7,10.9 237.8,10.6 						"/>
					</g>
				</g>
			</g>
		</g>
	</g>
	<g>
		<circle class="st1" cx="250.2" cy="10" r="8.8"/>
		<g>
			<g>
				<g>
					<g>
						<path class="st2" d="M250.1,19.3c0.2,0-0.1-0.2,0.1-0.1C250.2,19.3,250.2,19.4,250.1,19.3z"/>
						<path class="st2" d="M250.9,19.1c0.3-0.3,0.7-0.4,1.1-0.4c0.4-0.1,0.8-0.1,1.1-0.4c0.1-0.1,0.1,0.4,0.3,0.2
							c0.5-0.7,1.5-0.9,2.5-1.1l0,0.1c0.2,0,0.1-0.4,0.3-0.5c0,0.1,0,0.1,0.1,0.2c-0.1-0.2,0.2-0.3,0.1-0.5c0.1,0,0.2,0.1,0.3,0.1
							l-0.1-0.2c-0.2-0.6,0.5-0.5,0.5-0.9c0,0,0,0.1,0.1,0.1c0.1-0.7,0.6-1.2,0.7-1.9c0.1,0.1,0.2,0.2,0.3,0.2
							c-0.2-0.1-0.2-0.3-0.1-0.5c0.3,0-0.1-0.4,0.1-0.5l0,0c-0.2-0.2,0.2-0.2,0-0.4l0.2,0c-0.3-0.2,0.2-0.2,0.1-0.3l-0.1,0
							c-0.1-0.1,0.1-0.1,0.1-0.3l0,0c0-0.3,0.2-0.4-0.1-0.4c0.2,0,0.1,0.3,0.4,0.2c-0.1-0.9,0-1.7-0.1-2.6c0.1-0.1,0.1-0.2,0.2-0.2
							c-0.1-0.1-0.1-0.3-0.3-0.4c0,0,0.1-0.1,0.1-0.1c0.1-0.2-0.3-0.1-0.2-0.3c0.1,0,0.2,0.1,0.3,0c-0.3-0.1-0.3-0.3-0.4-0.4
							c0.1,0,0.1,0,0.2,0c-0.3-0.1,0-0.4-0.2-0.5l0.2,0c0.1-0.3-0.4,0-0.3-0.2c0.1,0,0.1,0,0.2,0c-0.4-0.1-0.4-0.5-0.6-0.6
							c0,0,0.1,0,0.1,0c-0.1-0.2-0.1-0.5-0.4-0.6c0-0.1,0.4-0.2,0.2-0.4c-0.3,0.2-0.3-0.3-0.6,0c0-0.2-0.2-0.5-0.3-0.6
							c0.2,0,0.3-0.3,0.4-0.2l0.1-0.2c0.1-0.1,0,0.1,0.2,0c-0.1-0.1-0.3-0.2-0.3-0.3c-0.3,0-0.6,0.1-0.8,0c0.2,0,0.2-0.3,0.3-0.3
							c-0.2,0.1-0.5,0.1-0.7,0.2c-0.1,0,0.2-0.2,0-0.2C255.9,4,255.8,4,255.7,4c0,0-0.3-0.2-0.1-0.4c0.1-0.1,0.1,0,0.2-0.1
							c-0.1-0.1-0.2,0-0.3-0.1l0,0c-0.1-0.1-0.3-0.1-0.3,0.1c0,0.1,0.1-0.2,0.1,0c-0.2,0.1-0.3,0-0.5,0c0.1,0,0.1-0.1,0.2-0.1
							c-0.3,0.1-0.5,0.1-0.8,0c-0.1,0.1,0.2-0.2,0.2-0.1c-0.1-0.3-0.7,0-0.7-0.4c0,0-0.1,0.2-0.1,0.2c-0.1-0.1,0-0.3-0.1-0.2
							c0-0.1-0.1,0-0.2,0c-0.1,0.1,0-0.1,0.1-0.1c-0.2,0.1-0.7,0.1-0.9-0.2c0,0.1-0.3,0.3-0.3,0.2l0.1-0.2c0-0.1-0.2,0-0.2-0.2
							c-0.2,0.2,0.6-0.1,0.4,0.1c0-0.2-0.3,0.2-0.2,0c-0.1,0-0.3,0.2-0.4,0c0,0,0.2-0.3,0-0.3c-0.2,0-0.1,0.1-0.2,0.1l-0.1,0.1
							c0,0.2-0.2-0.1-0.1,0.2c0-0.2-0.3,0.1-0.2-0.3l0.1-0.3c-0.1,0-0.2,0.3-0.2,0.4c0,0,0-0.1,0-0.1c0,0.4-0.2,0-0.3,0.3
							c-0.2-0.2-0.4,0-0.5-0.3c-0.1,0.1-0.2,0.3-0.4,0.2c0,0,0.1-0.1,0.1-0.1c-0.1-0.1-0.1,0-0.2,0.1c0-0.1-0.2-0.2-0.3-0.3
							c-0.1,0.1,0,0.3,0,0.5c-0.2-0.4-0.3,0.3-0.5,0c0-0.1,0.2-0.2,0-0.3c-0.2-0.3-0.2,0.3-0.4,0.2l0.1,0.3
							c-0.1-0.2-0.2,0.2-0.3-0.1c0,0.1-0.3,0-0.1,0.3c-0.4-0.1-0.6,0.4-1.1,0c0,0.1-0.1,0.1-0.1,0.2c0.1,0.1,0-0.2,0.1-0.1
							c0,0,0,0.1,0,0.1c-0.1,0-0.2,0-0.2-0.3c-0.3-0.1,0,0.6-0.3,0.6c-0.1-0.1-0.1-0.2-0.2-0.1l0,0.3c-0.2,0-0.2-0.2-0.4-0.4
							c-0.1,0.1-0.2,0.1-0.1,0.3l-0.3-0.2c0.2,0.1,0,0.2,0,0.2l0-0.1c-0.1-0.1-0.1,0.1-0.2,0.1c0.1,0.1,0.2,0.1,0.3,0.1
							c0,0.1-0.1,0.1,0,0.3c-0.1-0.2-0.2,0-0.3,0c-0.1,0,0,0.2,0,0.2c-0.1-0.1-0.1,0.1-0.2-0.1c0,0,0.1,0,0.1-0.1
							c-0.1,0-0.2-0.2-0.2,0c0,0.1,0.3,0.3,0.1,0.3c0-0.1-0.1-0.1-0.1-0.2l-0.2,0l0.1,0.1c-0.1,0-0.1,0-0.1-0.1
							c0.1,0.2-0.1,0.2,0,0.4c0,0.1-0.2,0-0.3,0.1l0,0c-0.1,0-0.2,0.1-0.1,0.3l0,0c0,0-0.1,0.1-0.1,0.3c-0.2,0-0.6-0.4-0.5-0.2
							c-0.1,0.1,0.2,0.4,0.3,0.4C243.9,5.6,244,6,243.6,6c0.1,0.1,0.1,0.1,0.1,0.2c-0.3,0.3-0.1,0.7-0.6,0.8c0-0.1-0.2-0.1-0.3-0.1
							c0.1,0.1-0.2,0,0.1,0.2c0.2,0.1,0.2,0.1,0.3,0c0,0.2-0.1,0.5-0.3,0.6c0.1,0,0.1,0,0.2,0.1c-0.3-0.1-0.4,0-0.3,0.2L243,8
							l-0.2,0c0,0.1,0.3,0.1,0.1,0.2c-0.1,0-0.1,0-0.2,0c0.1,0.2,0.3,0.4,0.1,0.4l-0.3,0.1c0,0.1,0.2,0.2,0.2,0.1
							c-0.2,0.2-0.2,0.3-0.4,0.4c0.5,0.4,0.5,0.9,0.5,1.4l-0.1,0c-0.1,0.1,0.2,0,0.1,0.1c-0.1,0-0.3,0.1-0.4,0
							c-0.1,0.2,0.2,0.2,0.3,0.3c0.2,0-0.1-0.1,0.1-0.1c0.1,0-0.1,0.2,0.2,0.2c-0.1,0.1-0.3,0.1-0.4,0l0.1,0.1
							c-0.3,0.2-0.6-0.2-0.9,0l0.1,0.1c-0.2,0.1-0.3-0.2-0.4,0c0.1,0.1,0.5,0.1,0.6,0c0.1,0.2,0.6,0,0.6,0.2
							c-0.1,0.1-0.1-0.2-0.3-0.1c-0.2,0.2,0.2,0.2,0.1,0.3c0.1-0.1,0.3-0.1,0.4,0c-0.1,0.1-0.3,0-0.2,0.2c0.2,0,0.3,0.1,0.4,0
							c0.3,0,0,0.2,0.2,0.2c-0.2,0.1-0.6,0-0.6,0.2c0.2-0.1,0.4,0.1,0.7-0.1c0,0.1-0.2,0.1-0.4,0.1c-0.1,0.1,0.5,0.1,0.1,0.3l0.2,0
							c-0.1,0.1-0.1,0.1-0.2,0.2c0,0.1,0.4,0.1,0.1,0.3c0,0,0.1,0.2,0.3,0c0.1-0.2-0.2-0.1,0-0.2c-0.2,0.2,0.1,0.1,0.2,0.2l-0.1,0.1
							c0.1,0,0.1,0.1,0.2,0.1c-0.1,0-0.2,0.1-0.2,0.1l0.2-0.1c0.2,0.1-0.3,0.2-0.2,0.3l-0.2,0c0,0-0.1,0.2,0,0.2
							c0.2-0.1,0.4-0.1,0.6-0.2c0.1,0-0.2,0.1,0.1,0.1l-0.3,0c-0.1,0-0.2,0.2-0.2,0.3c0.1,0,0.4,0,0.4-0.2c0,0.1,0,0.2-0.2,0.2
							c0.1,0.1,0.2-0.1,0.3-0.1c-0.1,0.1-0.1,0.3-0.2,0.5l-0.3,0.1l0.1,0.1c-0.3,0.1-0.1,0.2-0.4,0.3c0,0.1,0.1,0.1,0.2,0.1
							c0.2-0.4,0.6-0.2,0.9-0.5c0.2,0.1-0.6,0.7,0,0.5c0-0.1,0.3-0.2,0.2-0.2c0.1,0.1,0.4-0.2,0.3,0c-0.2,0-0.2,0.4-0.5,0.4
							c0.1-0.1,0-0.1,0-0.1c-0.1,0.1-0.3,0.3-0.2,0.4c0.1,0,0.2,0.1,0.3,0c0.2-0.2-0.1-0.1,0.1-0.2c0.2,0.1,0,0.3,0.3,0.1
							c-0.1-0.1,0-0.2,0.1-0.3c0,0,0.1,0,0.2,0l-0.1,0.1c0.1,0.2,0.2-0.2,0.4,0l-0.1,0.3c-0.2,0.2-0.1-0.3-0.4,0
							c0.1,0.1,0.3,0,0.3,0.1c0,0-0.1,0-0.1,0c0,0-0.3,0.5,0.1,0.4c0.2,0,0.1-0.1,0.2-0.2c0.2,0.1,0.4,0,0.5,0.1
							c-0.2,0.2,0.2,0.2-0.1,0.3c0-0.2-0.2-0.4-0.5-0.2c-0.2,0.3-0.1-0.1-0.4,0.1c0.1,0.1-0.1,0.4-0.2,0.6c0,0,0.1,0,0.2,0
							c0.2-0.2,0.1-0.2,0.2-0.4c0.1,0.2,0.4,0.2,0.6,0.1c0,0.1-0.1,0.3-0.2,0.3c0.2,0.1,0.5,0.2,0.6,0.4c0-0.4,0.3,0.1,0.3-0.2
							c-0.1-0.1,0-0.4,0.1-0.5c0.1,0.1-0.1,0.1-0.1,0.2c0.2-0.1,0,0.3,0.2,0.1c-0.2,0-0.2,0.4-0.4,0.6c0.2-0.1-0.1,0.2,0.1,0.2
							c0.2-0.1,0.5-0.1,0.7-0.1c0.1,0.3,0.6,0.2,0.7,0.3c0.1,0.2-0.1,0.4,0,0.5c0.1,0,0-0.4,0.2-0.2l0,0.1c0.1-0.1,0.3,0.3,0.5-0.1
							l-0.1,0.3c0,0,0.1,0,0.1-0.1c0,0.1,0,0.2-0.1,0.3c0.1,0.3,0.3,0,0.4,0l-0.1-0.2c0.3-0.1,0.4,0.1,0.6,0.1l0,0.2l0.2-0.1
							c-0.1,0.2,0.1,0.3,0.2,0.2c-0.1,0.2-0.3,0.3-0.4,0.5c-0.1-0.1,0.1-0.2,0.1-0.4c0-0.2-0.3-0.2-0.3,0c0.1,0,0.1,0,0.2-0.1
							c0,0.3-0.1,0.2-0.2,0.4c0,0,0.1,0.1,0.1,0c-0.1,0.1-0.2,0.1-0.4,0.1c0.1-0.1,0-0.2,0-0.2c-0.1,0.2-0.2,0.3-0.4,0.2
							c-0.1-0.3-0.4,0.1-0.6-0.1c0.2-0.2,0.3-0.4,0.5-0.4c-0.1-0.2-0.1,0-0.2-0.2c-0.1,0.2-0.2,0.4-0.4,0.5l0-0.2
							c-0.2,0-0.3,0.3-0.5,0.2c-0.3-0.2-0.7-0.3-0.9-0.5l0.1-0.2c-0.3,0.3-0.5-0.1-0.8-0.1c-0.2-0.3-0.8-0.3-0.7-0.7
							c-0.3-0.1-0.6-0.3-0.8-0.4c-0.3-0.2-0.5-0.4-0.7-0.7l0.3-0.1c-0.2,0,0.1-0.2,0-0.2c-0.1,0.2-0.3,0.1-0.5,0.1
							c0-0.4-0.4-0.5-0.7-0.6l0.1-0.1c-0.4,0-0.4-0.5-0.5-0.8c0-0.1,0.2-0.2,0.1-0.3c-0.3,0-0.4-0.1-0.6-0.3
							c-0.1-0.2-0.1-0.5-0.1-0.7c-0.7-0.6-0.6-1.4-0.9-2.2l0.2-0.1c-0.5-0.7-0.1-1.7-0.2-2.4l0.3,0.1c0.1-0.2,0-0.5-0.3-0.5
							c0.1-0.2-0.1-0.6,0.2-0.6c0.1-0.2-0.1-0.3-0.1-0.5c0.2-0.4,0.3-0.5,0.4-0.9l-0.1,0.1c0.1,0.1,0.2,0.1,0.3,0
							C241,6.3,241.3,6,240.9,6c0.4-0.3,0.3-1,0.8-1.2c-0.1,0-0.1-0.1-0.1-0.2c0.2-0.3,0.6-0.5,0.7-0.9c0.1,0,0.1,0.2,0.2,0.1
							c0-0.1-0.1-0.1-0.1-0.2c0.1-0.3,0.4-0.5,0.6-0.7c0.3-0.2,0.6-0.3,0.8-0.5c0.6-0.8,1.6-1.3,2.5-1.7l0,0.1
							c0.2-0.4,0.8,0.1,0.9-0.5c0.1,0.1,0.3,0,0.3,0.1c0.2-0.3,0.7,0,1-0.3c0,0-0.1,0-0.1,0.1c0.4,0.1,0.7-0.2,1.1,0
							c0,0-0.1,0.1-0.1,0.2c0.2,0.2,0.3-0.4,0.4,0c0.1,0,0.1-0.2,0-0.2c0.8,0.1,1.8-0.1,2.7,0c0.6,0.4-0.1,0.7,0.4,0.5
							c0,0.1,0.1-0.1,0.1-0.1c0.2-0.1,0.1,0.5,0.3,0.4c0-0.3,0.1-0.1,0.2-0.3c0.3,0.3,0.3,0.5,0.6,0.5L254,1.2
							c0.5-0.2,0.8,0.2,1.2-0.1c1.8,0.9,3.4,2.2,4.4,4c0.4,0.9,0.8,1.9,1,2.8c0.2,1,0.2,2,0,3c-0.4,0.4-0.4,0.5-0.3,1
							c-0.1,0-0.1-0.1-0.1,0c0.3,0.1,0,0.4,0.2,0.5c-0.2,0.7-0.4,1.4-0.7,2.1c0-0.1-0.2-0.3-0.2-0.1l0.1,0.2l-0.1,0
							c0,0.1,0.1,0.3,0.2,0.2c-0.3,0.9-1,1.7-1.7,2.4c-0.7,0.6-1.5,1.1-2.3,1.7c-0.4,0.1-0.9,0.5-1.4,0.8c-1.5,0.2-2.7,0.1-4.1,0.4
							C250.2,20,250.4,19.3,250.9,19.1z"/>
						<path class="st2" d="M249.8,19.3c0-0.1-0.2-0.2-0.1-0.4C249.8,19,249.8,19.2,249.8,19.3z"/>
						<path class="st2" d="M246.7,17C246.7,17,246.7,16.9,246.7,17c0-0.1,0.1-0.2,0.1-0.1C246.8,16.8,246.7,16.9,246.7,17z"/>
						<path class="st2" d="M246,16.5c0.1-0.1,0.3-0.1,0.4-0.1L246,16.5z"/>
						<path class="st2" d="M245.7,15.6c0-0.1,0.1-0.2,0.1-0.1C245.8,15.5,245.7,15.5,245.7,15.6z"/>
						<path class="st2" d="M245.5,15.8c0,0,0-0.1,0-0.2C245.4,15.7,245.6,15.6,245.5,15.8z"/>
						<path class="st2" d="M244.6,14.3c0,0-0.2,0-0.1-0.1C244.5,14.3,244.8,14.3,244.6,14.3z"/>
						<path class="st2" d="M244,13.8C244,13.8,244,13.8,244,13.8c0-0.1,0.1-0.1,0.1-0.1L244,13.8z"/>
						<polygon class="st2" points="248.4,2.5 248.3,2.6 248.3,2.4 						"/>
						<path class="st2" d="M254.5,3.6c0.1,0,0,0.1,0,0.2C254.5,3.7,254.6,3.6,254.5,3.6z"/>
						<polygon class="st2" points="257.5,5.7 257.4,5.7 257.7,5.6 						"/>
					</g>
				</g>
			</g>
		</g>
	</g>
	<g>
		<circle class="st1" cx="157.9" cy="10" r="8.8"/>
		<g>
			<g>
				<g>
					<g>
						<path class="st2" d="M148.7,9.9c0,0.2,0.2-0.1,0.1,0.1C148.7,10,148.6,10,148.7,9.9z"/>
						<path class="st2" d="M148.8,10.7c0.3,0.3,0.4,0.7,0.4,1.1c0.1,0.4,0.1,0.8,0.4,1.1c0.1,0.1-0.4,0.1-0.2,0.3
							c0.7,0.5,0.9,1.5,1.1,2.5l-0.1,0c0,0.2,0.4,0.1,0.5,0.3c-0.1,0-0.1,0-0.2,0.1c0.2-0.1,0.3,0.2,0.5,0.1c0,0.1-0.1,0.2-0.1,0.3
							l0.2-0.1c0.6-0.2,0.5,0.5,0.9,0.5c0,0-0.1,0-0.1,0.1c0.7,0.1,1.2,0.6,1.9,0.7c-0.1,0.1-0.2,0.2-0.2,0.3
							c0.1-0.2,0.3-0.2,0.5-0.1c0,0.3,0.4-0.1,0.5,0.1l0,0c0.2-0.2,0.2,0.2,0.4,0l0,0.2c0.2-0.3,0.2,0.2,0.3,0.1l0-0.1
							c0.1-0.1,0.1,0.1,0.3,0.1l0,0c0.3,0,0.4,0.2,0.4-0.1c0,0.2-0.3,0.1-0.2,0.4c0.9-0.1,1.7,0,2.6-0.1c0.1,0.1,0.2,0.1,0.2,0.2
							c0.1-0.1,0.3-0.1,0.4-0.3c0,0,0.1,0.1,0.1,0.1c0.2,0.1,0.1-0.3,0.3-0.2c0,0.1-0.1,0.2,0,0.3c0.1-0.3,0.3-0.3,0.4-0.4
							c0,0.1,0,0.1,0,0.2c0.1-0.3,0.4,0,0.5-0.2l0,0.2c0.3,0.1,0-0.4,0.2-0.3c0,0.1,0,0.1,0,0.2c0.1-0.4,0.5-0.4,0.6-0.6
							c0,0,0,0.1,0,0.1c0.2-0.1,0.5-0.1,0.6-0.4c0.1,0,0.2,0.4,0.4,0.2c-0.2-0.3,0.3-0.3,0-0.6c0.2,0,0.5-0.2,0.6-0.3
							c0,0.2,0.3,0.3,0.2,0.4l0.2,0.1c0.1,0.1-0.1,0,0,0.2c0.1-0.1,0.2-0.3,0.3-0.3c0-0.3-0.1-0.6,0-0.8c0,0.2,0.3,0.2,0.3,0.3
							c-0.1-0.2-0.1-0.5-0.2-0.7c0-0.1,0.2,0.2,0.2,0c-0.1-0.1-0.1-0.1-0.1-0.2c0,0,0.2-0.3,0.4-0.1c0.1,0.1,0,0.1,0.1,0.2
							c0.1-0.1,0-0.2,0.1-0.3l0,0c0.1-0.1,0.1-0.3-0.1-0.3c-0.1,0,0.2,0.1,0,0.1c-0.1-0.2,0-0.3,0-0.5c0,0.1,0.1,0.1,0.1,0.2
							c-0.1-0.3-0.1-0.5,0-0.8c-0.1-0.1,0.2,0.2,0.1,0.2c0.3-0.1,0-0.7,0.4-0.7c0,0-0.2-0.1-0.2-0.1c0.1-0.1,0.3,0,0.2-0.1
							c0.1,0,0-0.1,0-0.2c-0.1-0.1,0.1,0,0.1,0.1c-0.1-0.2-0.1-0.7,0.2-0.9c-0.1,0-0.3-0.3-0.2-0.3l0.2,0.1c0.1,0,0-0.2,0.2-0.2
							c-0.2-0.2,0.1,0.6-0.1,0.4c0.2,0-0.2-0.3,0-0.2c0-0.1-0.2-0.3,0-0.4c0,0,0.3,0.2,0.3,0c0-0.2-0.1-0.1-0.1-0.2l-0.1-0.1
							c-0.2,0,0.1-0.2-0.2-0.1c0.2,0-0.1-0.3,0.3-0.2l0.3,0.1c0-0.1-0.3-0.2-0.4-0.2c0,0,0.1,0,0.1,0c-0.4,0,0-0.2-0.3-0.3
							c0.2-0.2,0-0.4,0.3-0.5c-0.1-0.1-0.3-0.2-0.2-0.4c0,0,0.1,0.1,0.1,0.1c0.1-0.1,0-0.1-0.1-0.2c0.1,0,0.2-0.2,0.3-0.3
							c-0.1-0.1-0.3,0-0.5,0c0.4-0.2-0.3-0.3,0-0.5c0.1,0,0.2,0.2,0.3,0c0.3-0.2-0.3-0.2-0.2-0.4l-0.3,0.1c0.2-0.1-0.2-0.2,0.1-0.3
							c-0.1,0,0-0.3-0.3-0.1c0.1-0.4-0.4-0.6,0-1.1c-0.1,0-0.1-0.1-0.2-0.1c-0.1,0.1,0.2,0,0.1,0.1c0,0-0.1,0-0.1,0
							c0-0.1,0-0.2,0.3-0.2c0.1-0.3-0.6,0-0.6-0.3c0.1-0.1,0.2-0.1,0.1-0.2l-0.3,0c0-0.2,0.2-0.2,0.4-0.4c-0.1-0.1-0.1-0.2-0.3-0.1
							l0.2-0.3c-0.1,0.2-0.2,0-0.2,0l0.1,0c0.1-0.1-0.1-0.1-0.1-0.2c-0.1,0.1-0.1,0.2-0.1,0.3c-0.1,0-0.1-0.1-0.3,0
							c0.2-0.1,0-0.2,0-0.3c0-0.1-0.2,0-0.2,0c0.1-0.1-0.1-0.1,0.1-0.2c0,0,0,0.1,0.1,0.1c0-0.1,0.2-0.2,0-0.2
							c-0.1,0-0.3,0.3-0.3,0.1c0.1,0,0.1-0.1,0.2-0.1l0-0.2l-0.1,0.1c0,0,0-0.1,0.1-0.1c-0.2,0.1-0.2-0.1-0.4,0
							c-0.1,0,0-0.2-0.1-0.3l0,0c0-0.1-0.1-0.2-0.3-0.1l0,0c0,0-0.1-0.1-0.3-0.1c0-0.2,0.4-0.6,0.2-0.5c-0.1-0.1-0.4,0.2-0.4,0.3
							c-0.1-0.3-0.5-0.1-0.5-0.5c-0.1,0-0.1,0.1-0.2,0.1c-0.3-0.3-0.7-0.1-0.8-0.6c0.1,0,0.1-0.2,0.1-0.3c-0.1,0.1,0-0.2-0.2,0.1
							c-0.1,0.2-0.1,0.2,0,0.3c-0.2,0-0.5-0.1-0.6-0.3c0,0.1,0,0.1-0.1,0.2c0.1-0.3,0-0.4-0.2-0.3L160,2.9l0-0.2
							c-0.1,0-0.1,0.3-0.2,0.1c0-0.1,0-0.1,0-0.2c-0.2,0.1-0.4,0.3-0.4,0.1l-0.1-0.3c-0.1,0-0.2,0.2-0.1,0.2
							c-0.2-0.2-0.3-0.2-0.4-0.4c-0.4,0.5-0.9,0.5-1.4,0.5l0-0.1c-0.1-0.1,0,0.2-0.1,0.1c0-0.1-0.1-0.3,0-0.4
							c-0.2-0.1-0.2,0.2-0.3,0.3c0,0.2,0.1-0.1,0.1,0.1c0,0.1-0.2-0.1-0.2,0.2c-0.1-0.1-0.1-0.3,0-0.4l-0.1,0.1
							c-0.2-0.3,0.2-0.6,0-0.9l-0.1,0.1c-0.1-0.2,0.2-0.3,0-0.4c-0.1,0.1-0.1,0.5,0,0.6c-0.2,0.1,0,0.6-0.2,0.6
							c-0.1-0.1,0.2-0.1,0.1-0.3c-0.2-0.2-0.2,0.2-0.3,0.1c0.1,0.1,0.1,0.3,0,0.4c-0.1-0.1,0-0.3-0.2-0.2c0,0.2-0.1,0.3,0,0.4
							c0,0.3-0.2,0-0.2,0.2c-0.1-0.2,0-0.6-0.2-0.6c0.1,0.2-0.1,0.4,0.1,0.7c-0.1,0-0.1-0.2-0.1-0.4c-0.1-0.1-0.1,0.5-0.3,0.1l0,0.2
							c-0.1-0.1-0.1-0.1-0.2-0.2c-0.1,0-0.1,0.4-0.3,0.1c0,0-0.2,0.1,0,0.3c0.2,0.1,0.1-0.2,0.2,0c-0.2-0.2-0.1,0.1-0.2,0.2
							l-0.1-0.1c0,0.1-0.1,0.1-0.1,0.2c0-0.1-0.1-0.2-0.1-0.2l0.1,0.2c-0.1,0.2-0.2-0.3-0.3-0.2l0-0.2c0,0-0.2-0.1-0.2,0
							c0.1,0.2,0.1,0.4,0.2,0.6c0,0.1-0.1-0.2-0.1,0.1l0-0.3c0-0.1-0.2-0.2-0.3-0.2c0,0.1,0,0.4,0.2,0.4c-0.1,0-0.2,0-0.2-0.2
							C153.8,4,154,4.1,154,4.2c-0.1-0.1-0.3-0.1-0.5-0.2l-0.1-0.3l-0.1,0.1c-0.1-0.3-0.2-0.1-0.3-0.4c-0.1,0-0.1,0.1-0.1,0.2
							c0.4,0.2,0.2,0.6,0.5,0.9c-0.1,0.2-0.7-0.6-0.5,0c0.1,0,0.2,0.3,0.2,0.2c-0.1,0.1,0.2,0.4,0,0.3c0-0.2-0.4-0.2-0.4-0.5
							c0.1,0.1,0.1,0,0.1,0c-0.1-0.1-0.3-0.3-0.4-0.2c0,0.1-0.1,0.2,0,0.3c0.2,0.2,0.1-0.1,0.2,0.1c-0.1,0.2-0.3,0-0.1,0.3
							c0.1-0.1,0.2,0,0.3,0.1c0,0,0,0.1,0,0.2l-0.1-0.1c-0.2,0.1,0.2,0.2,0,0.4l-0.3-0.1c-0.2-0.2,0.3-0.1,0-0.4
							c-0.1,0.1,0,0.3-0.1,0.3c0,0,0-0.1,0-0.1c0,0-0.5-0.3-0.4,0.1c0,0.2,0.1,0.1,0.2,0.2c-0.1,0.2,0,0.4-0.1,0.5
							c-0.2-0.2-0.2,0.2-0.3-0.1c0.2,0,0.4-0.2,0.2-0.5c-0.3-0.2,0.1-0.1-0.1-0.4c-0.1,0.1-0.4-0.1-0.6-0.2c0,0,0,0.1,0,0.2
							c0.2,0.2,0.2,0.1,0.4,0.2c-0.2,0.1-0.2,0.4-0.1,0.6c-0.1,0-0.3-0.1-0.3-0.2c-0.1,0.2-0.2,0.5-0.4,0.6c0.4,0-0.1,0.3,0.2,0.3
							c0.1-0.1,0.4,0,0.5,0.1c-0.1,0.1-0.1-0.1-0.2-0.1c0.1,0.2-0.3,0-0.1,0.2c0-0.2-0.4-0.2-0.6-0.4c0.1,0.2-0.2-0.1-0.2,0.1
							c0.1,0.2,0.1,0.5,0.1,0.7c-0.3,0.1-0.2,0.6-0.3,0.7c-0.2,0.1-0.4-0.1-0.5,0c0,0.1,0.4,0,0.2,0.2l-0.1,0
							c0.1,0.1-0.3,0.3,0.1,0.5l-0.3-0.1c0,0,0,0.1,0.1,0.1c-0.1,0-0.2,0-0.3-0.1c-0.3,0.1,0,0.3,0,0.4l0.2-0.1
							c0.1,0.3-0.1,0.4-0.1,0.6l-0.2,0l0.1,0.2c-0.2-0.1-0.3,0.1-0.2,0.2c-0.2-0.1-0.3-0.3-0.5-0.4c0.1-0.1,0.2,0.1,0.4,0.1
							c0.2,0,0.2-0.3,0-0.3c0,0.1,0,0.1,0.1,0.2c-0.3,0-0.2-0.1-0.4-0.2c0,0-0.1,0.1,0,0.1c-0.1-0.1-0.1-0.2-0.1-0.4
							c0.1,0.1,0.2,0,0.2,0c-0.2-0.1-0.3-0.2-0.2-0.4c0.3-0.1-0.1-0.4,0.1-0.6c0.2,0.2,0.4,0.3,0.4,0.5c0.2-0.1,0-0.1,0.2-0.3
							c-0.2-0.1-0.4-0.2-0.5-0.4l0.2,0c0-0.2-0.3-0.3-0.2-0.5c0.2-0.3,0.3-0.7,0.5-0.9l0.2,0.1c-0.3-0.3,0.1-0.5,0.1-0.8
							c0.3-0.2,0.3-0.8,0.7-0.7c0.1-0.3,0.3-0.6,0.4-0.8c0.2-0.3,0.4-0.5,0.7-0.7l0.1,0.3c0-0.2,0.2,0.1,0.2,0
							c-0.2-0.1-0.1-0.3-0.1-0.5c0.4,0,0.5-0.4,0.6-0.7l0.1,0.1c0-0.4,0.5-0.4,0.8-0.5c0.1,0,0.2,0.2,0.3,0.1c0-0.3,0.1-0.4,0.3-0.6
							C154,1,154.4,1,154.6,1c0.6-0.7,1.4-0.6,2.2-0.9l0.1,0.2c0.7-0.5,1.7-0.1,2.4-0.2l-0.1,0.3c0.2,0.1,0.5,0,0.5-0.3
							c0.2,0.1,0.6-0.1,0.6,0.2c0.2,0.1,0.3-0.1,0.5-0.1c0.4,0.2,0.5,0.3,0.9,0.4l-0.1-0.1c-0.1,0.1-0.1,0.2,0,0.3
							c0.2-0.1,0.5,0.3,0.5-0.2c0.3,0.4,1,0.3,1.2,0.8c0-0.1,0.1-0.1,0.2-0.1c0.3,0.2,0.5,0.6,0.9,0.7c0,0.1-0.2,0.1-0.1,0.2
							c0.1,0,0.1-0.1,0.2-0.1c0.3,0.1,0.5,0.4,0.7,0.6c0.2,0.3,0.3,0.6,0.5,0.8c0.8,0.6,1.3,1.6,1.7,2.5l-0.1,0
							c0.4,0.2-0.1,0.8,0.5,0.9c-0.1,0.1,0,0.3-0.1,0.3c0.3,0.2,0,0.7,0.3,1c0,0,0-0.1-0.1-0.1c-0.1,0.4,0.2,0.7,0,1.1
							c0,0-0.1-0.1-0.2-0.1c-0.2,0.2,0.4,0.3,0,0.4c0,0.1,0.2,0.1,0.2,0c-0.1,0.8,0.1,1.8,0,2.7c-0.4,0.6-0.7-0.1-0.5,0.4
							c-0.1,0,0.1,0.1,0.1,0.1c0.1,0.2-0.5,0.1-0.4,0.3c0.3,0,0.1,0.1,0.3,0.2c-0.3,0.3-0.5,0.3-0.5,0.6l-0.1-0.1
							c0.2,0.5-0.2,0.8,0.1,1.2c-0.9,1.8-2.2,3.4-4,4.4c-0.9,0.4-1.9,0.8-2.8,1c-1,0.2-2,0.2-3,0c-0.4-0.4-0.5-0.4-1-0.3
							c0-0.1,0.1-0.1,0-0.1c-0.1,0.3-0.4,0-0.5,0.2c-0.7-0.2-1.4-0.4-2.1-0.7c0.1,0,0.3-0.2,0.1-0.2l-0.2,0.1l0-0.1
							c-0.1,0-0.3,0.1-0.2,0.2c-0.9-0.3-1.7-1-2.4-1.7c-0.6-0.7-1.1-1.5-1.7-2.3c-0.1-0.4-0.5-0.9-0.8-1.4c-0.2-1.5-0.1-2.7-0.4-4.1
							C147.9,10,148.6,10.2,148.8,10.7z"/>
						<path class="st2" d="M148.6,9.7c0.1,0,0.2-0.2,0.4-0.1C148.9,9.6,148.8,9.7,148.6,9.7z"/>
						<path class="st2" d="M151,6.5C150.9,6.5,151.1,6.5,151,6.5c0.1,0,0.2,0.1,0.1,0.1C151.1,6.6,151,6.6,151,6.5z"/>
						<path class="st2" d="M151.5,5.8c0.1,0.1,0.1,0.3,0.1,0.4L151.5,5.8z"/>
						<path class="st2" d="M152.4,5.5c0.1,0,0.2,0.1,0.1,0.1C152.4,5.6,152.4,5.6,152.4,5.5z"/>
						<path class="st2" d="M152.2,5.3c0,0,0.1,0,0.2,0C152.3,5.2,152.3,5.4,152.2,5.3z"/>
						<path class="st2" d="M153.6,4.4c0,0,0-0.2,0.1-0.1C153.6,4.3,153.7,4.6,153.6,4.4z"/>
						<path class="st2" d="M154.1,3.9C154.1,3.9,154.1,3.9,154.1,3.9c0.1,0,0.1,0.1,0.1,0.1L154.1,3.9z"/>
						<polygon class="st2" points="165.4,8.2 165.4,8.2 165.5,8.1 						"/>
						<path class="st2" d="M164.4,14.4c0,0.1-0.1,0-0.2,0C164.2,14.3,164.3,14.5,164.4,14.4z"/>
						<polygon class="st2" points="162.2,17.3 162.2,17.3 162.3,17.5 						"/>
					</g>
				</g>
			</g>
		</g>
	</g>
	<g>
		<circle class="st1" cx="204.1" cy="10" r="8.8"/>
		<g>
			<g>
				<g>
					<g>
						<path class="st2" d="M194.8,9.9c0,0.2,0.2-0.1,0.1,0.1C194.8,10,194.7,10,194.8,9.9z"/>
						<path class="st2" d="M195,10.7c0.3,0.3,0.4,0.7,0.4,1.1c0.1,0.4,0.1,0.8,0.4,1.1c0.1,0.1-0.4,0.1-0.2,0.3
							c0.7,0.5,0.9,1.5,1.1,2.5l-0.1,0c0,0.2,0.4,0.1,0.5,0.3c-0.1,0-0.1,0-0.2,0.1c0.2-0.1,0.3,0.2,0.5,0.1c0,0.1-0.1,0.2-0.1,0.3
							l0.2-0.1c0.6-0.2,0.5,0.5,0.9,0.5c0,0-0.1,0-0.1,0.1c0.7,0.1,1.2,0.6,1.9,0.7c-0.1,0.1-0.2,0.2-0.2,0.3
							c0.1-0.2,0.3-0.2,0.5-0.1c0,0.3,0.4-0.1,0.5,0.1l0,0c0.2-0.2,0.2,0.2,0.4,0l0,0.2c0.2-0.3,0.2,0.2,0.3,0.1l0-0.1
							c0.1-0.1,0.1,0.1,0.3,0.1l0,0c0.3,0,0.4,0.2,0.4-0.1c0,0.2-0.3,0.1-0.2,0.4c0.9-0.1,1.7,0,2.6-0.1c0.1,0.1,0.2,0.1,0.2,0.2
							c0.1-0.1,0.3-0.1,0.4-0.3c0,0,0.1,0.1,0.1,0.1c0.2,0.1,0.1-0.3,0.3-0.2c0,0.1-0.1,0.2,0,0.3c0.1-0.3,0.3-0.3,0.4-0.4
							c0,0.1,0,0.1,0,0.2c0.1-0.3,0.4,0,0.5-0.2l0,0.2c0.3,0.1,0-0.4,0.2-0.3c0,0.1,0,0.1,0,0.2c0.1-0.4,0.5-0.4,0.6-0.6
							c0,0,0,0.1,0,0.1c0.2-0.1,0.5-0.1,0.6-0.4c0.1,0,0.2,0.4,0.4,0.2c-0.2-0.3,0.3-0.3,0-0.6c0.2,0,0.5-0.2,0.6-0.3
							c0,0.2,0.3,0.3,0.2,0.4l0.2,0.1c0.1,0.1-0.1,0,0,0.2c0.1-0.1,0.2-0.3,0.3-0.3c0-0.3-0.1-0.6,0-0.8c0,0.2,0.3,0.2,0.3,0.3
							c-0.1-0.2-0.1-0.5-0.2-0.7c0-0.1,0.2,0.2,0.2,0c-0.1-0.1-0.1-0.1-0.1-0.2c0,0,0.2-0.3,0.4-0.1c0.1,0.1,0,0.1,0.1,0.2
							c0.1-0.1,0-0.2,0.1-0.3l0,0c0.1-0.1,0.1-0.3-0.1-0.3c-0.1,0,0.2,0.1,0,0.1c-0.1-0.2,0-0.3,0-0.5c0,0.1,0.1,0.1,0.1,0.2
							c-0.1-0.3-0.1-0.5,0-0.8c-0.1-0.1,0.2,0.2,0.1,0.2c0.3-0.1,0-0.7,0.4-0.7c0,0-0.2-0.1-0.2-0.1c0.1-0.1,0.3,0,0.2-0.1
							c0.1,0,0-0.1,0-0.2c-0.1-0.1,0.1,0,0.1,0.1c-0.1-0.2-0.1-0.7,0.2-0.9c-0.1,0-0.3-0.3-0.2-0.3l0.2,0.1c0.1,0,0-0.2,0.2-0.2
							c-0.2-0.2,0.1,0.6-0.1,0.4c0.2,0-0.2-0.3,0-0.2c0-0.1-0.2-0.3,0-0.4c0,0,0.3,0.2,0.3,0c0-0.2-0.1-0.1-0.1-0.2l-0.1-0.1
							c-0.2,0,0.1-0.2-0.2-0.1c0.2,0-0.1-0.3,0.3-0.2l0.3,0.1c0-0.1-0.3-0.2-0.4-0.2c0,0,0.1,0,0.1,0c-0.4,0,0-0.2-0.3-0.3
							c0.2-0.2,0-0.4,0.3-0.5c-0.1-0.1-0.3-0.2-0.2-0.4c0,0,0.1,0.1,0.1,0.1c0.1-0.1,0-0.1-0.1-0.2c0.1,0,0.2-0.2,0.3-0.3
							c-0.1-0.1-0.3,0-0.5,0c0.4-0.2-0.3-0.3,0-0.5c0.1,0,0.2,0.2,0.3,0c0.3-0.2-0.3-0.2-0.2-0.4l-0.3,0.1c0.2-0.1-0.2-0.2,0.1-0.3
							c-0.1,0,0-0.3-0.3-0.1c0.1-0.4-0.4-0.6,0-1.1c-0.1,0-0.1-0.1-0.2-0.1c-0.1,0.1,0.2,0,0.1,0.1c0,0-0.1,0-0.1,0
							c0-0.1,0-0.2,0.3-0.2c0.1-0.3-0.6,0-0.6-0.3c0.1-0.1,0.2-0.1,0.1-0.2l-0.3,0c0-0.2,0.2-0.2,0.4-0.4c-0.1-0.1-0.1-0.2-0.3-0.1
							l0.2-0.3c-0.1,0.2-0.2,0-0.2,0l0.1,0c0.1-0.1-0.1-0.1-0.1-0.2c-0.1,0.1-0.1,0.2-0.1,0.3c-0.1,0-0.1-0.1-0.3,0
							c0.2-0.1,0-0.2,0-0.3c0-0.1-0.2,0-0.2,0C210,5,209.8,5,210,4.9c0,0,0,0.1,0.1,0.1c0-0.1,0.2-0.2,0-0.2c-0.1,0-0.3,0.3-0.3,0.1
							c0.1,0,0.1-0.1,0.2-0.1l0-0.2l-0.1,0.1c0,0,0-0.1,0.1-0.1c-0.2,0.1-0.2-0.1-0.4,0c-0.1,0,0-0.2-0.1-0.3l0,0
							c0-0.1-0.1-0.2-0.3-0.1l0,0c0,0-0.1-0.1-0.3-0.1c0-0.2,0.4-0.6,0.2-0.5c-0.1-0.1-0.4,0.2-0.4,0.3c-0.1-0.3-0.5-0.1-0.5-0.5
							c-0.1,0-0.1,0.1-0.2,0.1c-0.3-0.3-0.7-0.1-0.8-0.6c0.1,0,0.1-0.2,0.1-0.3c-0.1,0.1,0-0.2-0.2,0.1C207,2.9,207,3,207,3.1
							c-0.2,0-0.5-0.1-0.6-0.3c0,0.1,0,0.1-0.1,0.2c0.1-0.3,0-0.4-0.2-0.3l-0.1,0.2l0-0.2c-0.1,0-0.1,0.3-0.2,0.1c0-0.1,0-0.1,0-0.2
							c-0.2,0.1-0.4,0.3-0.4,0.1l-0.1-0.3c-0.1,0-0.2,0.2-0.1,0.2c-0.2-0.2-0.3-0.2-0.4-0.4c-0.4,0.5-0.9,0.5-1.4,0.5l0-0.1
							c-0.1-0.1,0,0.2-0.1,0.1c0-0.1-0.1-0.3,0-0.4c-0.2-0.1-0.2,0.2-0.3,0.3c0,0.2,0.1-0.1,0.1,0.1c0,0.1-0.2-0.1-0.2,0.2
							c-0.1-0.1-0.1-0.3,0-0.4l-0.1,0.1c-0.2-0.3,0.2-0.6,0-0.9l-0.1,0.1c-0.1-0.2,0.2-0.3,0-0.4c-0.1,0.1-0.1,0.5,0,0.6
							c-0.2,0.1,0,0.6-0.2,0.6c-0.1-0.1,0.2-0.1,0.1-0.3c-0.2-0.2-0.2,0.2-0.3,0.1c0.1,0.1,0.1,0.3,0,0.4c-0.1-0.1,0-0.3-0.2-0.2
							c0,0.2-0.1,0.3,0,0.4c0,0.3-0.2,0-0.2,0.2c-0.1-0.2,0-0.6-0.2-0.6c0.1,0.2-0.1,0.4,0.1,0.7c-0.1,0-0.1-0.2-0.1-0.4
							c-0.1-0.1-0.1,0.5-0.3,0.1l0,0.2c-0.1-0.1-0.1-0.1-0.2-0.2c-0.1,0-0.1,0.4-0.3,0.1c0,0-0.2,0.1,0,0.3c0.2,0.1,0.1-0.2,0.2,0
							c-0.2-0.2-0.1,0.1-0.2,0.2L201,3.6c0,0.1-0.1,0.1-0.1,0.2c0-0.1-0.1-0.2-0.1-0.2l0.1,0.2c-0.1,0.2-0.2-0.3-0.3-0.2l0-0.2
							c0,0-0.2-0.1-0.2,0c0.1,0.2,0.1,0.4,0.2,0.6c0,0.1-0.1-0.2-0.1,0.1l0-0.3c0-0.1-0.2-0.2-0.3-0.2c0,0.1,0,0.4,0.2,0.4
							c-0.1,0-0.2,0-0.2-0.2c-0.1,0.1,0.1,0.2,0.1,0.3c-0.1-0.1-0.3-0.1-0.5-0.2l-0.1-0.3l-0.1,0.1c-0.1-0.3-0.2-0.1-0.3-0.4
							c-0.1,0-0.1,0.1-0.1,0.2c0.4,0.2,0.2,0.6,0.5,0.9c-0.1,0.2-0.7-0.6-0.5,0c0.1,0,0.2,0.3,0.2,0.2c-0.1,0.1,0.2,0.4,0,0.3
							c0-0.2-0.4-0.2-0.4-0.5c0.1,0.1,0.1,0,0.1,0c-0.1-0.1-0.3-0.3-0.4-0.2c0,0.1-0.1,0.2,0,0.3c0.2,0.2,0.1-0.1,0.2,0.1
							c-0.1,0.2-0.3,0-0.1,0.3c0.1-0.1,0.2,0,0.3,0.1c0,0,0,0.1,0,0.2L199,5.1c-0.2,0.1,0.2,0.2,0,0.4l-0.3-0.1
							c-0.2-0.2,0.3-0.1,0-0.4c-0.1,0.1,0,0.3-0.1,0.3c0,0,0-0.1,0-0.1c0,0-0.5-0.3-0.4,0.1c0,0.2,0.1,0.1,0.2,0.2
							c-0.1,0.2,0,0.4-0.1,0.5c-0.2-0.2-0.2,0.2-0.3-0.1c0.2,0,0.4-0.2,0.2-0.5c-0.3-0.2,0.1-0.1-0.1-0.4c-0.1,0.1-0.4-0.1-0.6-0.2
							c0,0,0,0.1,0,0.2c0.2,0.2,0.2,0.1,0.4,0.2c-0.2,0.1-0.2,0.4-0.1,0.6c-0.1,0-0.3-0.1-0.3-0.2c-0.1,0.2-0.2,0.5-0.4,0.6
							c0.4,0-0.1,0.3,0.2,0.3c0.1-0.1,0.4,0,0.5,0.1c-0.1,0.1-0.1-0.1-0.2-0.1c0.1,0.2-0.3,0-0.1,0.2c0-0.2-0.4-0.2-0.6-0.4
							c0.1,0.2-0.2-0.1-0.2,0.1c0.1,0.2,0.1,0.5,0.1,0.7c-0.3,0.1-0.2,0.6-0.3,0.7c-0.2,0.1-0.4-0.1-0.5,0c0,0.1,0.4,0,0.2,0.2
							l-0.1,0c0.1,0.1-0.3,0.3,0.1,0.5l-0.3-0.1c0,0,0,0.1,0.1,0.1c-0.1,0-0.2,0-0.3-0.1c-0.3,0.1,0,0.3,0,0.4l0.2-0.1
							c0.1,0.3-0.1,0.4-0.1,0.6l-0.2,0l0.1,0.2c-0.2-0.1-0.3,0.1-0.2,0.2c-0.2-0.1-0.3-0.3-0.5-0.4c0.1-0.1,0.2,0.1,0.4,0.1
							c0.2,0,0.2-0.3,0-0.3c0,0.1,0,0.1,0.1,0.2c-0.3,0-0.2-0.1-0.4-0.2c0,0-0.1,0.1,0,0.1c-0.1-0.1-0.1-0.2-0.1-0.4
							c0.1,0.1,0.2,0,0.2,0c-0.2-0.1-0.3-0.2-0.2-0.4c0.3-0.1-0.1-0.4,0.1-0.6c0.2,0.2,0.4,0.3,0.4,0.5c0.2-0.1,0-0.1,0.2-0.3
							c-0.2-0.1-0.4-0.2-0.5-0.4l0.2,0c0-0.2-0.3-0.3-0.2-0.5c0.2-0.3,0.3-0.7,0.5-0.9l0.2,0.1c-0.3-0.3,0.1-0.5,0.1-0.8
							c0.3-0.2,0.3-0.8,0.7-0.7c0.1-0.3,0.3-0.6,0.4-0.8c0.2-0.3,0.4-0.5,0.7-0.7l0.1,0.3c0-0.2,0.2,0.1,0.2,0
							c-0.2-0.1-0.1-0.3-0.1-0.5c0.4,0,0.5-0.4,0.6-0.7l0.1,0.1c0-0.4,0.5-0.4,0.8-0.5c0.1,0,0.2,0.2,0.3,0.1c0-0.3,0.1-0.4,0.3-0.6
							c0.2-0.1,0.5-0.1,0.7-0.1c0.6-0.7,1.4-0.6,2.2-0.9l0.1,0.2c0.7-0.5,1.7-0.1,2.4-0.2l-0.1,0.3c0.2,0.1,0.5,0,0.5-0.3
							c0.2,0.1,0.6-0.1,0.6,0.2c0.2,0.1,0.3-0.1,0.5-0.1c0.4,0.2,0.5,0.3,0.9,0.4l-0.1-0.1c-0.1,0.1-0.1,0.2,0,0.3
							c0.2-0.1,0.5,0.3,0.5-0.2c0.3,0.4,1,0.3,1.2,0.8c0-0.1,0.1-0.1,0.2-0.1c0.3,0.2,0.5,0.6,0.9,0.7c0,0.1-0.2,0.1-0.1,0.2
							c0.1,0,0.1-0.1,0.2-0.1c0.3,0.1,0.5,0.4,0.7,0.6c0.2,0.3,0.3,0.6,0.5,0.8c0.8,0.6,1.3,1.6,1.7,2.5l-0.1,0
							c0.4,0.2-0.1,0.8,0.5,0.9c-0.1,0.1,0,0.3-0.1,0.3c0.3,0.2,0,0.7,0.3,1c0,0,0-0.1-0.1-0.1c-0.1,0.4,0.2,0.7,0,1.1
							c0,0-0.1-0.1-0.2-0.1c-0.2,0.2,0.4,0.3,0,0.4c0,0.1,0.2,0.1,0.2,0c-0.1,0.8,0.1,1.8,0,2.7c-0.4,0.6-0.7-0.1-0.5,0.4
							c-0.1,0,0.1,0.1,0.1,0.1c0.1,0.2-0.5,0.1-0.4,0.3c0.3,0,0.1,0.1,0.3,0.2c-0.3,0.3-0.5,0.3-0.5,0.6l-0.1-0.1
							c0.2,0.5-0.2,0.8,0.1,1.2c-0.9,1.8-2.2,3.4-4,4.4c-0.9,0.4-1.9,0.8-2.8,1c-1,0.2-2,0.2-3,0c-0.4-0.4-0.5-0.4-1-0.3
							c0-0.1,0.1-0.1,0-0.1c-0.1,0.3-0.4,0-0.5,0.2c-0.7-0.2-1.4-0.4-2.1-0.7c0.1,0,0.3-0.2,0.1-0.2l-0.2,0.1l0-0.1
							c-0.1,0-0.3,0.1-0.2,0.2c-0.9-0.3-1.7-1-2.4-1.7c-0.6-0.7-1.1-1.5-1.7-2.3c-0.1-0.4-0.5-0.9-0.8-1.4c-0.2-1.5-0.1-2.7-0.4-4.1
							C194.1,10,194.8,10.2,195,10.7z"/>
						<path class="st2" d="M194.8,9.7c0.1,0,0.2-0.2,0.4-0.1C195.1,9.6,194.9,9.7,194.8,9.7z"/>
						<path class="st2" d="M197.1,6.5C197.1,6.5,197.2,6.5,197.1,6.5c0.1,0,0.2,0.1,0.1,0.1C197.3,6.6,197.2,6.6,197.1,6.5z"/>
						<path class="st2" d="M197.6,5.8c0.1,0.1,0.1,0.3,0.1,0.4L197.6,5.8z"/>
						<path class="st2" d="M198.5,5.5c0.1,0,0.2,0.1,0.1,0.1C198.6,5.6,198.6,5.6,198.5,5.5z"/>
						<path class="st2" d="M198.3,5.3c0,0,0.1,0,0.2,0C198.4,5.2,198.5,5.4,198.3,5.3z"/>
						<path class="st2" d="M199.8,4.4c0,0,0-0.2,0.1-0.1C199.8,4.3,199.8,4.6,199.8,4.4z"/>
						<path class="st2" d="M200.3,3.9C200.3,3.9,200.3,3.9,200.3,3.9c0.1,0,0.1,0.1,0.1,0.1L200.3,3.9z"/>
						<polygon class="st2" points="211.6,8.2 211.5,8.2 211.7,8.1 						"/>
						<path class="st2" d="M210.5,14.4c0,0.1-0.1,0-0.2,0C210.4,14.3,210.5,14.5,210.5,14.4z"/>
						<polygon class="st2" points="208.4,17.3 208.4,17.3 208.5,17.5 						"/>
					</g>
				</g>
			</g>
		</g>
	</g>
	<g>
		<circle class="st1" cx="111.7" cy="10.7" r="8.8"/>
		<g>
			<g>
				<g>
					<g>
						<path class="st2" d="M111.6,19.9c0.2,0-0.1-0.2,0.1-0.1C111.7,19.9,111.7,20,111.6,19.9z"/>
						<path class="st2" d="M112.4,19.7c0.3-0.3,0.7-0.4,1.1-0.4c0.4-0.1,0.8-0.1,1.1-0.4c0.1-0.1,0.1,0.4,0.3,0.2
							c0.5-0.7,1.5-0.9,2.5-1.1l0,0.1c0.2,0,0.1-0.4,0.3-0.5c0,0.1,0,0.1,0.1,0.2c-0.1-0.2,0.2-0.3,0.1-0.5c0.1,0,0.2,0.1,0.3,0.1
							l-0.1-0.2c-0.2-0.6,0.5-0.5,0.5-0.9c0,0,0,0.1,0.1,0.1c0.1-0.7,0.6-1.2,0.7-1.9c0.1,0.1,0.2,0.2,0.3,0.2
							c-0.2-0.1-0.2-0.3-0.1-0.5c0.3,0-0.1-0.4,0.1-0.5l0,0c-0.2-0.2,0.2-0.2,0-0.4l0.2,0c-0.3-0.2,0.2-0.2,0.1-0.3l-0.1,0
							c-0.1-0.1,0.1-0.1,0.1-0.3l0,0c0-0.3,0.2-0.4-0.1-0.4c0.2,0,0.1,0.3,0.4,0.2c-0.1-0.9,0-1.7-0.1-2.6c0.1-0.1,0.1-0.2,0.2-0.2
							c-0.1-0.1-0.1-0.3-0.3-0.4c0,0,0.1-0.1,0.1-0.1c0.1-0.2-0.3-0.1-0.2-0.3c0.1,0,0.2,0.1,0.3,0c-0.3-0.1-0.3-0.3-0.4-0.4
							c0.1,0,0.1,0,0.2,0c-0.3-0.1,0-0.4-0.2-0.5l0.2,0c0.1-0.3-0.4,0-0.3-0.2c0.1,0,0.1,0,0.2,0c-0.4-0.1-0.4-0.5-0.6-0.6
							c0,0,0.1,0,0.1,0c-0.1-0.2-0.1-0.5-0.4-0.6c0-0.1,0.4-0.2,0.2-0.4c-0.3,0.2-0.3-0.3-0.6,0c0-0.2-0.2-0.5-0.3-0.6
							c0.2,0,0.3-0.3,0.4-0.2l0.1-0.2c0.1-0.1,0,0.1,0.2,0c-0.1-0.1-0.3-0.2-0.3-0.3c-0.3,0-0.6,0.1-0.8,0c0.2,0,0.2-0.3,0.3-0.3
							c-0.2,0.1-0.5,0.1-0.7,0.2c-0.1,0,0.2-0.2,0-0.2c-0.1,0.1-0.1,0.1-0.2,0.1c0,0-0.3-0.2-0.1-0.4c0.1-0.1,0.1,0,0.2-0.1
							c-0.1-0.1-0.2,0-0.3-0.1l0,0c-0.1-0.1-0.3-0.1-0.3,0.1c0,0.1,0.1-0.2,0.1,0c-0.2,0.1-0.3,0-0.5,0c0.1,0,0.1-0.1,0.2-0.1
							c-0.3,0.1-0.5,0.1-0.8,0c-0.1,0.1,0.2-0.2,0.2-0.1c-0.1-0.3-0.7,0-0.7-0.4c0,0-0.1,0.2-0.1,0.2c-0.1-0.1,0-0.3-0.1-0.2
							c0-0.1-0.1,0-0.2,0c-0.1,0.1,0-0.1,0.1-0.1c-0.2,0.1-0.7,0.1-0.9-0.2c0,0.1-0.3,0.3-0.3,0.2l0.1-0.2c0-0.1-0.2,0-0.2-0.2
							c-0.2,0.2,0.6-0.1,0.4,0.1c0-0.2-0.3,0.2-0.2,0c-0.1,0-0.3,0.2-0.4,0c0,0,0.2-0.3,0-0.3c-0.2,0-0.1,0.1-0.2,0.1l-0.1,0.1
							c0,0.2-0.2-0.1-0.1,0.2c0-0.2-0.3,0.1-0.2-0.3l0.1-0.3c-0.1,0-0.2,0.3-0.2,0.4c0,0,0-0.1,0-0.1c0,0.4-0.2,0-0.3,0.3
							c-0.2-0.2-0.4,0-0.5-0.3c-0.1,0.1-0.2,0.3-0.4,0.2c0,0,0.1-0.1,0.1-0.1c-0.1-0.1-0.1,0-0.2,0.1c0-0.1-0.2-0.2-0.3-0.3
							c-0.1,0.1,0,0.3,0,0.5c-0.2-0.4-0.3,0.3-0.5,0c0-0.1,0.2-0.2,0-0.3c-0.2-0.3-0.2,0.3-0.4,0.2l0.1,0.3
							c-0.1-0.2-0.2,0.2-0.3-0.1c0,0.1-0.3,0-0.1,0.3c-0.4-0.1-0.6,0.4-1.1,0c0,0.1-0.1,0.1-0.1,0.2c0.1,0.1,0-0.2,0.1-0.1
							c0,0,0,0.1,0,0.1c-0.1,0-0.2,0-0.2-0.3c-0.3-0.1,0,0.6-0.3,0.6c-0.1-0.1-0.1-0.2-0.2-0.1l0,0.3c-0.2,0-0.2-0.2-0.4-0.4
							c-0.1,0.1-0.2,0.1-0.1,0.3L107,4c0.2,0.1,0,0.2,0,0.2l0-0.1c-0.1-0.1-0.1,0.1-0.2,0.1c0.1,0.1,0.2,0.1,0.3,0.1
							c0,0.1-0.1,0.1,0,0.3c-0.1-0.2-0.2,0-0.3,0c-0.1,0,0,0.2,0,0.2c-0.1-0.1-0.1,0.1-0.2-0.1c0,0,0.1,0,0.1-0.1
							c-0.1,0-0.2-0.2-0.2,0c0,0.1,0.3,0.3,0.1,0.3c0-0.1-0.1-0.1-0.1-0.2l-0.2,0l0.1,0.1c-0.1,0-0.1,0-0.1-0.1
							c0.1,0.2-0.1,0.2,0,0.4c0,0.1-0.2,0-0.3,0.1l0,0c-0.1,0-0.2,0.1-0.1,0.3l0,0c0,0-0.1,0.1-0.1,0.3c-0.2,0-0.6-0.4-0.5-0.2
							c-0.1,0.1,0.2,0.4,0.3,0.4c-0.3,0.1-0.1,0.5-0.5,0.5c0,0.1,0.1,0.1,0.1,0.2c-0.3,0.3-0.1,0.7-0.6,0.8c0-0.1-0.2-0.1-0.3-0.1
							c0.1,0.1-0.2,0,0.1,0.2c0.2,0.1,0.2,0.1,0.3,0c0,0.2-0.1,0.5-0.3,0.6c0.1,0,0.1,0,0.2,0.1c-0.3-0.1-0.4,0-0.3,0.2l0.2,0.1
							l-0.2,0c0,0.1,0.3,0.1,0.1,0.2c-0.1,0-0.1,0-0.2,0c0.1,0.2,0.3,0.4,0.1,0.4l-0.3,0.1c0,0.1,0.2,0.2,0.2,0.1
							c-0.2,0.2-0.2,0.3-0.4,0.4c0.5,0.4,0.5,0.9,0.5,1.4l-0.1,0c-0.1,0.1,0.2,0,0.1,0.1c-0.1,0-0.3,0.1-0.4,0
							c-0.1,0.2,0.2,0.2,0.3,0.3c0.2,0-0.1-0.1,0.1-0.1c0.1,0-0.1,0.2,0.2,0.2c-0.1,0.1-0.3,0.1-0.4,0l0.1,0.1
							c-0.3,0.2-0.6-0.2-0.9,0l0.1,0.1c-0.2,0.1-0.3-0.2-0.4,0c0.1,0.1,0.5,0.1,0.6,0c0.1,0.2,0.6,0,0.6,0.2
							c-0.1,0.1-0.1-0.2-0.3-0.1c-0.2,0.2,0.2,0.2,0.1,0.3c0.1-0.1,0.3-0.1,0.4,0c-0.1,0.1-0.3,0-0.2,0.2c0.2,0,0.3,0.1,0.4,0
							c0.3,0,0,0.2,0.2,0.2c-0.2,0.1-0.6,0-0.6,0.2c0.2-0.1,0.4,0.1,0.7-0.1c0,0.1-0.2,0.1-0.4,0.1c-0.1,0.1,0.5,0.1,0.1,0.3l0.2,0
							c-0.1,0.1-0.1,0.1-0.2,0.2c0,0.1,0.4,0.1,0.1,0.3c0,0,0.1,0.2,0.3,0c0.1-0.2-0.2-0.1,0-0.2c-0.2,0.2,0.1,0.1,0.2,0.2l-0.1,0.1
							c0.1,0,0.1,0.1,0.2,0.1c-0.1,0-0.2,0.1-0.2,0.1l0.2-0.1c0.2,0.1-0.3,0.2-0.2,0.3l-0.2,0c0,0-0.1,0.2,0,0.2
							c0.2-0.1,0.4-0.1,0.6-0.2c0.1,0-0.2,0.1,0.1,0.1l-0.3,0c-0.1,0-0.2,0.2-0.2,0.3c0.1,0,0.4,0,0.4-0.2c0,0.1,0,0.2-0.2,0.2
							c0.1,0.1,0.2-0.1,0.3-0.1c-0.1,0.1-0.1,0.3-0.2,0.5l-0.3,0.1l0.1,0.1c-0.3,0.1-0.1,0.2-0.4,0.3c0,0.1,0.1,0.1,0.2,0.1
							c0.2-0.4,0.6-0.2,0.9-0.5c0.2,0.1-0.6,0.7,0,0.5c0-0.1,0.3-0.2,0.2-0.2c0.1,0.1,0.4-0.2,0.3,0c-0.2,0-0.2,0.4-0.5,0.4
							c0.1-0.1,0-0.1,0-0.1c-0.1,0.1-0.3,0.3-0.2,0.4c0.1,0,0.2,0.1,0.3,0c0.2-0.2-0.1-0.1,0.1-0.2c0.2,0.1,0,0.3,0.3,0.1
							c-0.1-0.1,0-0.2,0.1-0.3c0,0,0.1,0,0.2,0l-0.1,0.1c0.1,0.2,0.2-0.2,0.4,0L107,16c-0.2,0.2-0.1-0.3-0.4,0
							c0.1,0.1,0.3,0,0.3,0.1c0,0-0.1,0-0.1,0c0,0-0.3,0.5,0.1,0.4c0.2,0,0.1-0.1,0.2-0.2c0.2,0.1,0.4,0,0.5,0.1
							c-0.2,0.2,0.2,0.2-0.1,0.3c0-0.2-0.2-0.4-0.5-0.2c-0.2,0.3-0.1-0.1-0.4,0.1c0.1,0.1-0.1,0.4-0.2,0.6c0,0,0.1,0,0.2,0
							c0.2-0.2,0.1-0.2,0.2-0.4c0.1,0.2,0.4,0.2,0.6,0.1c0,0.1-0.1,0.3-0.2,0.3c0.2,0.1,0.5,0.2,0.6,0.4c0-0.4,0.3,0.1,0.3-0.2
							c-0.1-0.1,0-0.4,0.1-0.5c0.1,0.1-0.1,0.1-0.1,0.2c0.2-0.1,0,0.3,0.2,0.1c-0.2,0-0.2,0.4-0.4,0.6c0.2-0.1-0.1,0.2,0.1,0.2
							c0.2-0.1,0.5-0.1,0.7-0.1c0.1,0.3,0.6,0.2,0.7,0.3c0.1,0.2-0.1,0.4,0,0.5c0.1,0,0-0.4,0.2-0.2l0,0.1c0.1-0.1,0.3,0.3,0.5-0.1
							l-0.1,0.3c0,0,0.1,0,0.1-0.1c0,0.1,0,0.2-0.1,0.3c0.1,0.3,0.3,0,0.4,0l-0.1-0.2c0.3-0.1,0.4,0.1,0.6,0.1l0,0.2l0.2-0.1
							c-0.1,0.2,0.1,0.3,0.2,0.2c-0.1,0.2-0.3,0.3-0.4,0.5c-0.1-0.1,0.1-0.2,0.1-0.4c0-0.2-0.3-0.2-0.3,0c0.1,0,0.1,0,0.2-0.1
							c0,0.3-0.1,0.2-0.2,0.4c0,0,0.1,0.1,0.1,0c-0.1,0.1-0.2,0.1-0.4,0.1c0.1-0.1,0-0.2,0-0.2c-0.1,0.2-0.2,0.3-0.4,0.2
							c-0.1-0.3-0.4,0.1-0.6-0.1c0.2-0.2,0.3-0.4,0.5-0.4c-0.1-0.2-0.1,0-0.2-0.2c-0.1,0.2-0.2,0.4-0.4,0.5l0-0.2
							c-0.2,0-0.3,0.3-0.5,0.2c-0.3-0.2-0.7-0.3-0.9-0.5l0.1-0.2c-0.3,0.3-0.5-0.1-0.8-0.1c-0.2-0.3-0.8-0.3-0.7-0.7
							c-0.3-0.1-0.6-0.3-0.8-0.4c-0.3-0.2-0.5-0.4-0.7-0.7L105,17c-0.2,0,0.1-0.2,0-0.2c-0.1,0.2-0.3,0.1-0.5,0.1
							c0-0.4-0.4-0.5-0.7-0.6l0.1-0.1c-0.4,0-0.4-0.5-0.5-0.8c0-0.1,0.2-0.2,0.1-0.3c-0.3,0-0.4-0.1-0.6-0.3
							c-0.1-0.2-0.1-0.5-0.1-0.7c-0.7-0.6-0.6-1.4-0.9-2.2l0.2-0.1c-0.5-0.7-0.1-1.7-0.2-2.4l0.3,0.1c0.1-0.2,0-0.5-0.3-0.5
							c0.1-0.2-0.1-0.6,0.2-0.6c0.1-0.2-0.1-0.3-0.1-0.5c0.2-0.4,0.3-0.5,0.4-0.9l-0.1,0.1c0.1,0.1,0.2,0.1,0.3,0
							c-0.1-0.2,0.3-0.5-0.2-0.5c0.4-0.3,0.3-1,0.8-1.2c-0.1,0-0.1-0.1-0.1-0.2c0.2-0.3,0.6-0.5,0.7-0.9c0.1,0,0.1,0.2,0.2,0.1
							c0-0.1-0.1-0.1-0.1-0.2c0.1-0.3,0.4-0.5,0.6-0.7c0.3-0.2,0.6-0.3,0.8-0.5c0.6-0.8,1.6-1.3,2.5-1.7l0,0.1
							c0.2-0.4,0.8,0.1,0.9-0.5c0.1,0.1,0.3,0,0.3,0.1c0.2-0.3,0.7,0,1-0.3c0,0-0.1,0-0.1,0.1c0.4,0.1,0.7-0.2,1.1,0
							c0,0-0.1,0.1-0.1,0.2c0.2,0.2,0.3-0.4,0.4,0c0.1,0,0.1-0.2,0-0.2c0.8,0.1,1.8-0.1,2.7,0c0.6,0.4-0.1,0.7,0.4,0.5
							c0,0.1,0.1-0.1,0.1-0.1c0.2-0.1,0.2,0.5,0.3,0.4c0-0.3,0.1-0.1,0.2-0.3c0.3,0.3,0.3,0.5,0.6,0.5l-0.1,0.1
							c0.5-0.2,0.8,0.2,1.2-0.1c1.8,0.9,3.4,2.2,4.4,4c0.4,0.9,0.8,1.9,1,2.8c0.2,1,0.2,2,0,3c-0.4,0.4-0.4,0.5-0.3,1
							c-0.1,0-0.1-0.1-0.1,0c0.3,0.1,0,0.4,0.2,0.5c-0.2,0.7-0.4,1.4-0.7,2.1c0-0.1-0.2-0.3-0.2-0.1l0.1,0.2l-0.1,0
							c0,0.1,0.1,0.3,0.2,0.2c-0.3,0.9-1,1.7-1.7,2.4c-0.7,0.6-1.5,1.1-2.3,1.7c-0.4,0.1-0.9,0.5-1.4,0.8c-1.5,0.2-2.7,0.1-4.1,0.4
							C111.7,20.7,111.9,19.9,112.4,19.7z"/>
						<path class="st2" d="M111.3,19.9c0-0.1-0.2-0.2-0.1-0.4C111.3,19.6,111.3,19.8,111.3,19.9z"/>
						<path class="st2" d="M108.2,17.6C108.2,17.6,108.2,17.5,108.2,17.6c0-0.1,0.1-0.2,0.1-0.1C108.3,17.5,108.2,17.6,108.2,17.6z"
							/>
						<path class="st2" d="M107.5,17.1c0.1-0.1,0.3-0.1,0.4-0.1L107.5,17.1z"/>
						<path class="st2" d="M107.2,16.2c0-0.1,0.1-0.2,0.1-0.1C107.3,16.2,107.2,16.2,107.2,16.2z"/>
						<path class="st2" d="M107,16.4c0,0,0-0.1,0-0.2C106.9,16.3,107.1,16.3,107,16.4z"/>
						<path class="st2" d="M106.1,15c0,0-0.2,0-0.1-0.1C106,14.9,106.3,14.9,106.1,15z"/>
						<path class="st2" d="M105.5,14.5C105.5,14.5,105.5,14.4,105.5,14.5c0-0.1,0.1-0.1,0.1-0.1L105.5,14.5z"/>
						<polygon class="st2" points="109.9,3.1 109.8,3.2 109.8,3.1 						"/>
						<path class="st2" d="M116,4.2c0.1,0,0,0.1,0,0.2C116,4.3,116.1,4.3,116,4.2z"/>
						<polygon class="st2" points="119,6.4 118.9,6.4 119.2,6.2 						"/>
					</g>
				</g>
			</g>
		</g>
	</g>
</g>
</svg>
