<!-- Generator: Adobe Illustrator 21.0.0, SVG Export Plug-In  -->
<svg version="1.1"
	 xmlns="http://www.w3.org/2000/svg" xmlns:xlink="http://www.w3.org/1999/xlink" xmlns:a="http://ns.adobe.com/AdobeSVGViewerExtensions/3.0/"
	 x="0px" y="0px" width="155px" height="9px" viewBox="0 0 155 9" style="enable-background:new 0 0 155 9;" xml:space="preserve">
<style type="text/css">
	.st0{fill:#311D18;}
	.st1{fill:#EEB14E;}
	.st2{fill:#82312A;}
</style>
<defs>
</defs>
<g>
	<g>
		<path class="st0" d="M0.4,4.3c-0.6,0,0.3,0.1-0.4,0C0.1,4.3,0.2,4.3,0.4,4.3z"/>
		<path class="st0" d="M153.1,4.4c-1.8,0.3-4.2,0-6.3,0.2c-0.2,0,0.1-0.2-0.5-0.1c-1.9,0.3-5,0.1-7.4-0.1l0.1-0.1
			c-0.5,0-1,0.1-1.5,0.1c0,0,0.2,0,0-0.1c-0.1,0.1-0.9,0-1.1,0.1c-0.2,0-0.2-0.1-0.4-0.2L136,4.4c-0.8,0.3-1.8,0-2.9,0.1
			c0,0,0.2,0,0.1-0.1c-1.7,0.2-3.8,0.1-5.6,0.2c0.1,0,0.1-0.1,0-0.2c-0.1,0.1-0.7,0.2-1.2,0.2c-0.2-0.1-0.9,0.1-1.4,0l0,0
			c-0.4,0.1-0.6-0.1-1,0.1l-0.3-0.1c-0.2,0.2-0.6-0.1-1,0l0,0c-0.3,0-0.5,0-0.8,0l0,0c-0.7,0-1.2-0.1-1.1,0.1
			c-0.3-0.1,0.7-0.1,0.3-0.2c-2.4,0.1-4.9,0.1-7.3,0.1c-0.3-0.1-0.5-0.1-0.5-0.1c-0.2,0-0.9,0-1.1,0.1c0.1,0-0.2-0.1-0.3-0.1
			c-0.4-0.1-0.5,0.2-1,0.1c0.2,0,0.3-0.1,0.2-0.1c-0.4,0.1-1,0.1-1.5,0.1c0.1,0,0.2,0,0.2-0.1c-0.5,0.1-1,0-1.4,0.1l0.2-0.1
			c-0.8-0.1-0.2,0.2-0.9,0.1c0.2,0,0.1-0.1,0.1-0.1c-0.6,0.1-1.6,0.1-2.2,0.1c0,0,0,0,0,0c-0.7,0-1.4,0-2.1,0
			c-0.3,0,0.1-0.2-0.6-0.2c0,0.2-1.2,0.1-0.8,0.2c-0.6,0-1.5-0.1-1.9,0c0.3-0.1-0.3-0.2,0.2-0.2L100,4.5c0.1-0.1,0.4,0,0.3-0.1
			c-0.2,0-1,0.1-1.2,0c-0.5,0.1-0.9,0.3-1.6,0.3c0.4-0.1-0.2-0.2,0-0.2l-1,0.3c-0.2,0-0.1-0.1-0.4-0.1c0,0-0.1,0.1-0.2,0.1
			c-0.1,0-1,0-1.1-0.1c-0.1-0.1,0.4,0,0.1-0.1c-0.5,0-0.5,0.1-0.9,0.1l0,0c-0.3,0-0.9,0.1-0.6,0.2c0.2,0-0.1-0.1,0.2,0
			c-0.2,0.1-0.7,0.1-1.2,0.1c0.2,0,0.1-0.1,0.2-0.1c-0.6,0.1-1.3,0.2-2,0.2c0,0.1,0.3-0.1,0.4-0.1c-0.9-0.1-1.8,0.1-2.6,0
			c0.1,0,0.1,0.1,0.1,0.1C88,5,88,4.9,87.7,4.9c0-0.1-0.3,0-0.6,0c-0.1,0-0.1,0,0.2,0c-0.4,0.1-2,0.2-2.9,0.1c0,0-0.6,0.2-0.8,0.2
			L83.7,5C83.5,5,83,5.1,82.9,5c-0.5,0.1,1.7-0.1,1.1,0c-0.2-0.1-0.8,0.2-0.7,0c-0.4,0-0.8,0.1-1.2,0c0.1,0,0.3-0.1,0-0.1
			c-0.6,0-0.2,0-0.7,0.1l-0.3,0c0,0.1-0.5,0-0.3,0.1C80.7,5,79.9,5.1,80,5l0.1-0.1c-0.3,0-0.4,0.1-0.6,0.2c0,0-0.1,0-0.1-0.1
			c0,0.2-0.6,0-0.9,0.1C77.9,5,77,5.1,76.8,5C76.4,5,76,5.1,75.5,5.1c0.1,0,0.2,0,0.3-0.1c-0.3-0.1-0.4,0-0.6,0
			c0.1,0-0.6-0.1-0.9-0.2c-0.4,0.1-0.3,0.2-0.3,0.2c-0.4-0.2-1.2,0.1-1.7,0c0.1,0,0.6-0.1,0.3-0.1c-0.4-0.2-0.8,0.1-1.4,0l0.2,0.2
			C70.9,5,70.3,5.2,70.4,5c-0.2,0.1-0.7-0.1-0.7,0.1c-1-0.1-2.5,0.1-3.1-0.2c-0.1,0-0.5,0-0.4,0.1c0.2,0.1,0.3-0.1,0.4,0
			c-0.1,0-0.2,0-0.2,0.1c-0.3,0-0.6,0-0.3-0.2c-0.7-0.1-0.7,0.3-1.6,0.2c0-0.1,0-0.1-0.3-0.1l-0.5,0.1c-0.6,0-0.3-0.1-0.3-0.3
			c-0.3,0-0.7,0-0.8,0.1l-0.4-0.1c0.3,0.1-0.3,0.1-0.4,0.1l0.1,0c-0.1,0-0.4,0-0.6,0C61.5,5,61.8,5,62,5c-0.2,0-0.4,0-0.6,0.1
			C61.5,5,60.9,5,60.7,5c-0.3,0-0.3,0.1-0.4,0.1c0-0.1-0.5,0-0.2-0.1c0.1,0,0.2,0.1,0.4,0c-0.2,0-0.2-0.1-0.5-0.1
			c-0.3,0.1,0.1,0.2-0.5,0.1c0.1,0,0.2-0.1,0.3-0.1l-0.5-0.1l0,0.1c-0.1,0,0,0-0.1,0c-0.2,0.1-0.8,0-0.9,0.1c-0.3,0-0.5-0.1-0.8-0.1
			l0,0c-0.3-0.1-0.7,0-1,0l0,0c-0.2,0-0.6,0-0.8,0.1c-0.4-0.1-0.1-0.4-0.6-0.2c-0.4,0-0.7,0.2-0.5,0.2c-0.8-0.1-1.6,0.1-2.3-0.1
			c-0.1,0,0,0.1-0.3,0.1c-1.1,0-2.4,0.1-3.2-0.1c0.3,0,0-0.1,0-0.2C48.5,5,48.5,4.8,48.4,5c0,0.1,0,0.1,0.3,0.2c-0.7,0-1.7,0-2,0
			c0.2,0,0,0.1-0.1,0.1c0-0.1-0.4-0.2-0.8-0.1l-0.1,0.1l-0.2-0.1c-0.1,0-0.2,0.2-0.5,0.1c0,0,0-0.1-0.1-0.1
			c-0.4,0.1-0.9,0.2-1.3,0.1l-0.3-0.1c-0.2,0-0.5,0.1-0.2,0.1c-0.7-0.1-1.2-0.1-1.4-0.2c-1.2,0.3-3,0.3-4.4,0.3l0-0.1
			c-0.4-0.1-0.2,0.1-0.5,0.1c0.1-0.1-0.3-0.1,0-0.2C36.2,5,36,5.2,35.7,5.2c-0.1,0.1,0.3-0.1,0.2,0.1c-0.1,0-0.8-0.1-0.8,0.1
			c-0.1,0,0-0.1,0-0.2l-0.3,0.1c-0.4-0.1,0.9-0.3,0.5-0.4l-0.3,0c-0.3-0.1,0.8-0.1,0-0.2c-0.3,0.1-0.6,0.2-0.3,0.3
			c-0.7,0-0.3,0.3-1.1,0.3c-0.2-0.1,0.6,0,0.5-0.1c-0.4-0.1-0.7,0.1-1,0c0.3,0,0.1,0.2-0.2,0.2c-0.4-0.1,0.2-0.1-0.3-0.1
			c-0.1,0.1-0.6,0.1-0.2,0.2c-0.2,0.2-0.6,0-0.9,0.1c-0.2-0.1,0.6-0.3,0-0.3c0.1,0.1-0.7,0.2-0.4,0.3c-0.2,0-0.3-0.1-0.1-0.2
			c-0.3-0.1-0.8,0.2-0.9,0l-0.1,0.1c-0.1,0-0.3-0.1-0.4-0.1c-0.3,0-0.9,0.2-0.9,0c-0.1,0-0.8,0-0.5,0.1c0.4,0.1,0.5-0.1,0.7,0.1
			c-0.3-0.1-0.6,0-0.8,0.1l0-0.1c-0.1,0-0.5,0-0.6,0.1c0.1,0,0.1-0.1-0.1-0.1l-0.2,0.1c-0.6,0.1-0.1-0.2-0.7-0.1l0.4-0.1
			c-0.1,0-0.3-0.1-0.6,0c-0.1,0.1-0.3,0.2-0.4,0.3c-0.3,0-0.1-0.1-0.5,0l0.4-0.1c0.1,0-0.3-0.2-0.7-0.2c-0.3,0-0.7,0.2-0.3,0.2
			c-0.2,0-0.5-0.1-0.3-0.1c-0.5,0,0.1,0.1-0.4,0.2c-0.2-0.1-0.7-0.1-1-0.2L23.6,5l-0.3,0c0.4-0.1-0.2-0.1,0-0.2
			c-0.2,0-0.4,0-0.6,0.1c0.6,0.2-0.7,0.3-0.5,0.5c-0.8,0.1-0.5-0.5-1.3-0.2c0.1,0-0.3,0.2,0.2,0.1c-0.5,0-0.3,0.2-0.9,0.1
			c0.4-0.1-0.5-0.2,0.2-0.3c0,0.1,0.3,0,0.4,0c-0.2-0.1,0-0.2-0.5-0.2c-0.3,0-0.7,0-0.7,0.1c0,0.1,0.5,0,0.3,0.1
			c-0.6,0-0.7-0.1-1,0.1c0.4,0,0.5,0.1,0.5,0.2l-0.5,0l0.1-0.1c-0.7-0.1-0.2,0.1-0.9,0.1l-0.3-0.1c0.2-0.1,1,0.1,0.9-0.1
			c-0.5,0-0.6,0.1-1,0c0.1,0,0.2,0,0.3,0c-0.2,0-0.3-0.3-1-0.1C16.7,5.2,17,5.2,17,5.2c-0.7,0-1,0.1-1.4,0.1c0.1-0.1-0.8,0-0.3-0.2
			c0.2,0.1,1.3,0.1,1.6-0.1c-0.3-0.2,0.6,0,0.7-0.2c-0.6,0-0.6-0.2-0.7-0.3c-0.2,0-0.3,0-0.4,0.1c-0.1,0.1,0.1,0.1,0.2,0.2
			c-0.7,0-1.3,0-1.6,0.1c-0.2-0.1-0.2-0.2,0.1-0.2c-0.8,0-1.6,0-2.4,0c0.5,0.2-0.8,0-0.5,0.2c0.4,0,0.7,0.2,0.5,0.2
			c-0.2,0,0-0.1-0.1-0.1c-0.3,0.1-0.5-0.2-0.8,0C12.5,5.2,12,5,12.1,4.9c-0.5,0.1,0-0.1-0.5-0.1c-0.5,0.1-1.1,0.1-1.7,0.2
			c-0.7-0.1-1.8,0-2.5,0C7.1,4.9,7.3,4.7,7,4.7c-0.4,0,0.3,0.2-0.3,0.1l0.1,0c-0.2,0-1.2-0.1-1.3,0.1l0.2-0.2c-0.1,0-0.2,0-0.3,0
			c0-0.1-0.1-0.1,0-0.1c-0.4-0.1-0.8,0-1.2,0l0.3,0.1c-0.7,0.1-1.2,0-1.9,0l0-0.1L2,4.7c0.1-0.1-0.3-0.2-0.5-0.1l1.1-0.2
			c0.3,0.1-0.3,0.1-0.1,0.2c0.2,0.1,0.8,0.1,0.9,0c-0.2,0-0.3,0-0.5,0C2.9,4.5,3.2,4.5,3.4,4.4c-0.1,0-0.3,0-0.3,0
			C3.3,4.3,3.6,4.3,4,4.3c-0.3,0.1,0.2,0.1,0,0.1c0-0.1,0.4-0.2,1-0.1c0.4,0.1,1-0.1,1.6,0C6.4,4.4,6.1,4.5,5.7,4.5
			c0.4,0.1,0.4,0,0.8,0.1c0.2-0.1,0.3-0.2,0.8-0.3l0,0.1c0.5,0,0.5-0.2,1-0.2c1,0,2,0,2.8,0.1l0,0.1c0.4-0.2,1.4-0.1,2-0.2
			c1,0.1,2.1-0.1,2.6,0.1c1.7-0.1,3.2-0.1,4.9-0.1l-0.3,0.1c0.3-0.1,0.2,0.1,0.5,0.1c-0.4-0.1,0.4-0.1,0.6-0.2
			c0.8,0.1,1.8,0,2.5-0.1l0,0.1c0.7-0.2,1.5,0,2.4,0c0.1,0,0.3,0.1,0.5,0.1c0.5-0.1,0.7-0.1,1.4-0.2c0.5,0,1.3,0,1.8,0.1
			C32.1,4,34,4.1,36,4l0.1,0.1C38,3.8,40.4,4,42,3.9l-0.2,0.2c0.5,0.1,1.2,0,1-0.2C43.4,4,44.2,3.8,44.5,4c0.5,0,0.6-0.1,1.1-0.1
			c1.1,0.1,1.4,0.1,2.4,0l-0.2,0c-0.1,0-0.1,0.1,0.1,0.1c0.4,0,1.4,0,1-0.2C50,4,51.4,3.8,52.4,3.9c-0.1-0.1,0.2-0.1,0.3-0.1
			c0.9,0,1.9,0.1,2.7,0c0.1,0-0.2,0.1,0.1,0.1c0.2,0,0-0.1,0.3-0.1c1.5-0.1,3.1,0.1,4.4,0.1c2.4-0.1,5-0.1,7.3-0.1l0,0
			C68.3,3.7,69.3,4,70,3.8c0.2,0,0.7,0,0.6,0.1c0.6-0.1,1.7,0.1,2.6,0c-0.1,0-0.1,0-0.2,0c0.9,0.1,1.7,0,2.7,0c-0.1,0-0.3,0-0.3,0.1
			c0.4,0.1,0.9-0.2,1.1,0c0.2,0,0.2-0.1,0-0.1c2.1,0.1,4.3-0.1,6.5-0.1C84.5,4,83,4.2,84.3,4c0.1,0,0.1-0.1,0.1,0
			c0.5-0.1,0.7,0.2,1.1,0.1C85.3,4,85.7,4.1,85.7,4c1,0.1,1.1,0.2,1.9,0.1l-0.1,0.1c0.9-0.2,1.9-0.1,2.7-0.3c4.9,0,9.6-0.2,14.3-0.2
			c4.7,0,9.3-0.1,14.1,0.1c1.1,0.2,1.2,0.2,2.4,0.1c0,0-0.1,0,0,0.1c0.1-0.1,0.9,0,1-0.1c1.8,0,3.4,0,5.2,0c-0.3,0-0.4,0.1-0.1,0.1
			l0.4-0.1l0.1,0c0.2,0,0.5-0.1,0.2-0.1c4.6-0.1,9.1,0.2,13.5,0.1c1.1,0.1,2.6,0,3.7,0c3.4,0.2,6.5,0.3,10,0.2
			C155,4,154.6,4.3,153.1,4.4z"/>
		<path class="st0" d="M1.1,4.3c0.1,0.1,0.5,0.1,0.2,0.2C1.2,4.5,1,4.4,1.1,4.3z"/>
		<path class="st0" d="M11.7,5.1c0,0,0.2,0,0.2,0c-0.1,0-0.3,0.1-0.4,0C11.6,5.1,11.6,5.1,11.7,5.1z"/>
		<path class="st0" d="M14.4,5.1c0,0.1-0.6,0.1-1,0.1L14.4,5.1z"/>
		<path class="st0" d="M16.9,5.4c0.2,0.1,0.2,0.1-0.1,0.1C16.8,5.4,16.9,5.4,16.9,5.4z"/>
		<path class="st0" d="M17.1,5.2c0.2,0,0.3,0,0.4,0.1C17.5,5.2,17,5.3,17.1,5.2z"/>
		<path class="st0" d="M22.6,5.4c0.1,0,0.4-0.1,0.5,0C23,5.4,22.5,5.5,22.6,5.4z"/>
		<path class="st0" d="M25.2,5.3c0.1,0,0.1,0,0.2,0C25.5,5.3,25.4,5.4,25.2,5.3L25.2,5.3z"/>
		<polygon class="st0" points="71.7,5 71.4,5.1 71.4,5 		"/>
		<path class="st0" d="M92.1,5c0.3,0,0.2,0.1,0.2,0.1C92,5.1,92.4,5,92.1,5z"/>
		<polygon class="st0" points="103,4.7 103,4.7 103,4.6 		"/>
	</g>
	<g>
		<circle class="st1" cx="108.4" cy="4.4" r="3.8"/>
		<g>
			<path class="st2" d="M108.3,8.3C108.4,8.3,108.3,8.2,108.3,8.3C108.4,8.3,108.3,8.4,108.3,8.3z"/>
			<path class="st2" d="M108.7,8.3c0.3-0.3,0.7-0.1,0.9-0.4c0,0,0,0.2,0.1,0.1c0.2-0.3,0.7-0.4,1.1-0.5l0,0c0.1,0,0.1-0.2,0.1-0.2
				c0,0,0,0,0,0.1c0-0.1,0.1-0.1,0.1-0.2c0,0,0.1,0.1,0.1,0.1l0-0.1c-0.1-0.3,0.2-0.2,0.2-0.4c0,0,0,0,0,0.1c0-0.3,0.2-0.5,0.3-0.8
				c0,0,0.1,0.1,0.1,0.1c-0.1-0.1-0.1-0.2-0.1-0.2c0.1,0,0-0.2,0-0.2l0,0c-0.1-0.1,0.1-0.1,0-0.2l0.1,0c-0.1-0.1,0.1-0.1,0-0.1l0,0
				c0-0.1,0.1-0.1,0-0.1l0,0c0-0.1,0.1-0.2,0-0.2c0.1,0,0,0.1,0.2,0.1c-0.1-0.4,0-0.7,0-1.1c0,0,0.1-0.1,0.1-0.1c0,0,0-0.1-0.1-0.2
				c0,0,0.1,0,0.1-0.1c0-0.1-0.1,0-0.1-0.1c0,0,0.1,0,0.1,0c-0.1,0-0.1-0.1-0.2-0.2c0,0,0,0,0.1,0c-0.1,0,0-0.2-0.1-0.2l0.1,0
				c0-0.1-0.2,0-0.1-0.1c0,0,0.1,0,0.1,0c-0.2,0-0.2-0.2-0.2-0.3c0,0,0,0,0,0c-0.1-0.1-0.1-0.2-0.2-0.3c0,0,0.2-0.1,0.1-0.2
				c-0.1,0.1-0.1-0.1-0.2,0c0-0.1-0.1-0.2-0.1-0.2c0.1,0,0.1-0.1,0.2-0.1l0-0.1c0.1,0,0,0.1,0.1,0c0,0-0.1-0.1-0.1-0.1
				c-0.1,0-0.3,0.1-0.4,0c0.1,0,0.1-0.1,0.1-0.1c-0.1,0-0.2,0-0.3,0.1c0,0,0.1-0.1,0-0.1c0,0-0.1,0-0.1,0c0,0-0.1-0.1-0.1-0.2
				c0-0.1,0.1,0,0.1,0c-0.1,0-0.1,0-0.1,0l0,0c0,0-0.1,0-0.1,0.1c0,0,0-0.1,0.1,0c-0.1,0-0.1,0-0.2,0c0,0,0,0,0.1-0.1
				c-0.1,0-0.2,0-0.3,0c0,0.1,0.1-0.1,0.1,0c-0.1-0.2-0.3,0-0.3-0.2c0,0,0,0.1,0,0.1c0,0,0-0.1-0.1-0.1c0-0.1-0.1,0-0.1,0
				c0,0,0,0,0,0c-0.1,0-0.3,0-0.4-0.1c0,0-0.1,0.1-0.1,0.1l0-0.1c0-0.1-0.1,0-0.1-0.1c-0.1,0.1,0.3,0,0.2,0c0-0.1-0.1,0.1-0.1,0
				c-0.1,0-0.1,0.1-0.2,0c0,0,0.1-0.1,0-0.1c-0.1,0,0,0-0.1,0.1l0,0c0,0.1-0.1,0-0.1,0.1c0-0.1-0.1,0-0.1-0.1l0-0.1
				c0,0-0.1,0.1-0.1,0.2c0,0,0,0,0-0.1c0,0.2-0.1,0-0.1,0.1c-0.1-0.1-0.2,0-0.2-0.1c-0.1,0.1-0.1,0.1-0.2,0.1c0,0,0,0,0-0.1
				c0,0-0.1,0-0.1,0c0,0-0.1-0.1-0.1-0.1c-0.1,0.1,0,0.1,0,0.2c-0.1-0.2-0.1,0.1-0.2,0c0,0,0.1-0.1,0-0.1c-0.1-0.1-0.1,0.1-0.2,0.1
				l0.1,0.1c-0.1-0.1-0.1,0.1-0.1,0c0,0.1-0.1,0-0.1,0.1c-0.2-0.1-0.3,0.2-0.5,0c0,0-0.1,0,0,0.1c0.1,0.1,0-0.1,0.1,0c0,0,0,0,0,0.1
				c-0.1,0-0.1,0-0.1-0.1c-0.1,0,0,0.2-0.1,0.3c0-0.1,0-0.1-0.1,0l0,0.1c-0.1,0-0.1-0.1-0.2-0.2c0,0-0.1,0.1-0.1,0.1l-0.1-0.1
				c0.1,0,0,0.1,0,0.1l0,0c0,0-0.1,0-0.1,0c0,0,0.1,0,0.1,0c0,0,0,0.1,0,0.1c0-0.1-0.1,0-0.1,0c0,0,0,0.1,0,0.1c0,0-0.1,0-0.1,0
				c0,0,0.1,0,0,0c0,0-0.1-0.1-0.1,0c0,0.1,0.1,0.1,0,0.1c0,0,0-0.1,0-0.1l-0.1,0l0.1,0.1c0,0,0,0,0,0c0,0.1-0.1,0.1,0,0.2
				c0,0-0.1,0-0.1,0l0,0c-0.1,0-0.1,0.1-0.1,0.1l0,0c0,0,0,0.1,0,0.1c-0.1,0-0.3-0.2-0.2-0.1c0,0.1,0.1,0.2,0.1,0.2
				c-0.1,0-0.1,0.2-0.2,0.2c0,0,0,0,0,0.1c-0.1,0.1-0.1,0.3-0.3,0.4c0-0.1-0.1,0-0.1-0.1c0.1,0.1-0.1,0,0,0.1c0.1,0,0.1,0,0.1,0
				c0,0.1,0,0.2-0.1,0.2c0,0,0.1,0,0.1,0c-0.1,0-0.2,0-0.1,0.1l0.1,0l-0.1,0c0,0,0.1,0.1,0.1,0.1c0,0-0.1,0-0.1,0
				c0,0.1,0.1,0.2,0.1,0.2l-0.1,0c0,0,0.1,0.1,0.1,0c-0.1,0.1-0.1,0.1-0.2,0.2c0.2,0.2,0.2,0.4,0.2,0.6l-0.1,0c0,0.1,0.1,0,0.1,0.1
				c-0.1,0-0.1,0-0.2,0c-0.1,0.1,0.1,0.1,0.1,0.1c0.1,0-0.1,0,0,0c0,0,0,0.1,0.1,0.1c0,0-0.1,0-0.2,0l0.1,0c-0.1,0.1-0.2-0.1-0.4,0
				l0,0c-0.1,0.1-0.1-0.1-0.2,0c0.1,0,0.2,0.1,0.3,0c0,0.1,0.3,0,0.3,0.1c-0.1,0,0-0.1-0.1,0c-0.1,0.1,0.1,0.1,0,0.1
				c0-0.1,0.1,0,0.2,0c0,0.1-0.1,0-0.1,0.1c0.1,0,0.1,0,0.2,0c0.1,0,0,0.1,0.1,0.1c-0.1,0.1-0.2,0-0.3,0.1c0.1,0,0.2,0.1,0.3,0
				c0,0-0.1,0.1-0.2,0.1c0,0.1,0.2,0,0,0.1l0.1,0c0,0,0,0-0.1,0.1c0,0,0.2,0.1,0,0.1c0,0,0.1,0.1,0.1,0c0-0.1-0.1,0,0-0.1
				c-0.1,0.1,0,0.1,0.1,0.1l-0.1,0c0,0,0,0,0.1,0c0,0-0.1,0-0.1,0l0.1,0c0.1,0-0.1,0.1-0.1,0.1l-0.1,0c0,0,0,0.1,0,0.1
				c0.1,0,0.2-0.1,0.2-0.1c0.1,0-0.1,0.1,0,0.1l-0.1,0c0,0-0.1,0.1-0.1,0.1c0,0,0.2,0,0.2-0.1c0,0,0,0.1-0.1,0.1
				c0.1,0,0.1-0.1,0.1,0c0,0-0.1,0.1-0.1,0.2l-0.1,0l0,0c-0.1,0-0.1,0.1-0.2,0.1c0,0,0.1,0,0.1,0c0.1-0.2,0.3-0.1,0.4-0.2
				c0.1,0.1-0.3,0.3,0,0.2c0,0,0.2-0.1,0.1-0.1c0,0.1,0.2-0.1,0.2,0c-0.1,0-0.1,0.2-0.2,0.2c0,0,0-0.1,0-0.1c0,0.1-0.1,0.1-0.1,0.2
				c0,0,0.1,0.1,0.1,0c0.1-0.1-0.1,0,0-0.1c0.1,0,0,0.2,0.1,0.1c0,0,0-0.1,0.1-0.1l0.1,0l-0.1,0c0,0.1,0.1-0.1,0.2,0l-0.1,0.1
				c-0.1,0.1-0.1-0.1-0.2,0c0,0,0.1,0,0.1,0.1c0,0,0,0-0.1,0c0,0-0.1,0.2,0,0.2c0.1,0,0,0,0.1-0.1c0.1,0,0.2,0,0.2,0
				c-0.1,0.1,0.1,0.1-0.1,0.1c0-0.1-0.1-0.2-0.2-0.1c-0.1,0.1,0-0.1-0.2,0c0.1,0.1,0,0.2-0.1,0.3c0,0,0.1,0,0.1,0
				c0.1-0.1,0-0.1,0.1-0.2c0.1,0.1,0.2,0.1,0.3,0c0,0.1-0.1,0.1-0.1,0.1c0.1,0,0.2,0.1,0.3,0.2c0-0.2,0.1,0,0.1-0.1
				c0-0.1,0-0.2,0-0.2c0,0,0,0.1,0,0.1c0.1-0.1,0,0.2,0.1,0.1c-0.1,0-0.1,0.2-0.2,0.3c0.1,0,0,0.1,0,0.1c0.1,0,0.2,0,0.3,0
				c0.1,0.1,0.2,0.1,0.3,0.1c0,0.1,0,0.2,0,0.2c0.1,0,0-0.2,0.1-0.1l0,0c0,0,0.1,0.1,0.2-0.1l-0.1,0.1c0,0,0,0,0.1,0
				c0,0,0,0.1,0,0.1c0,0.1,0.1,0,0.2,0l0-0.1c0.1-0.1,0.2,0,0.3,0l0,0.1l0.1,0c0,0.1,0,0.1,0.1,0.1L108,8.3c0-0.1,0.1-0.1,0-0.2
				c0-0.1-0.1-0.1-0.1,0c0,0,0,0,0.1,0c0,0.1-0.1,0.1-0.1,0.2c0,0,0,0,0.1,0c0,0.1-0.1,0.1-0.2,0c0.1,0,0-0.1,0-0.1
				c0,0.1-0.1,0.1-0.2,0.1c0-0.1-0.2,0-0.3,0c0.1-0.1,0.1-0.2,0.2-0.2c0-0.1-0.1,0-0.1-0.1c0,0.1-0.1,0.2-0.2,0.2l0-0.1
				c-0.1,0-0.1,0.1-0.2,0.1c-0.1-0.1-0.3-0.2-0.4-0.2l0-0.1c-0.1,0.1-0.2,0-0.3,0c-0.1-0.1-0.3-0.1-0.3-0.3
				c-0.3-0.1-0.5-0.2-0.7-0.5l0.1,0c-0.1,0,0-0.1,0-0.1c0,0.1-0.1,0-0.2,0c0-0.2-0.2-0.2-0.3-0.3l0.1,0c-0.2,0-0.2-0.2-0.2-0.3
				c0,0,0.1-0.1,0-0.1c-0.1,0-0.2-0.1-0.3-0.1c0-0.1-0.1-0.2,0-0.3c-0.3-0.2-0.2-0.6-0.4-0.9l0.1,0c-0.2-0.3,0-0.7-0.1-1l0.2,0
				c0.1-0.1,0-0.2-0.1-0.2c0.1-0.1,0-0.2,0.1-0.3c0.1-0.1,0-0.1,0-0.2c0.1-0.2,0.1-0.2,0.2-0.4l0,0c0,0,0.1,0.1,0.1,0
				c0-0.1,0.1-0.2-0.1-0.2c0.2-0.1,0.1-0.4,0.3-0.5c-0.1,0,0-0.1-0.1-0.1c0.1-0.2,0.3-0.2,0.3-0.4c0,0,0,0.1,0.1,0c0,0-0.1,0,0-0.1
				c0.1-0.3,0.4-0.3,0.6-0.5c0.3-0.4,0.7-0.6,1.1-0.7l0,0c0.1-0.2,0.4,0,0.4-0.2c0,0,0.1,0,0.1,0.1c0.1-0.1,0.3,0,0.5-0.1
				c0,0,0,0,0,0c0.2,0.1,0.3-0.1,0.5,0c0,0,0,0,0,0.1c0.1,0.1,0.1-0.2,0.2,0c0,0,0-0.1,0-0.1c0.4,0,0.8,0,1.2,0
				c0.2,0.2-0.1,0.3,0.2,0.2c0,0,0-0.1,0,0c0.1,0,0.1,0.2,0.1,0.2c0-0.1,0.1,0,0.1-0.1c0.1,0.1,0.1,0.2,0.3,0.2l0,0
				c0.2-0.1,0.3,0.1,0.5,0c0.8,0.4,1.5,1,1.9,1.8c0.4,0.8,0.6,1.7,0.4,2.5c-0.2,0.2-0.2,0.2-0.1,0.4c0,0,0,0-0.1,0
				c0.1,0,0,0.2,0.1,0.2c-0.1,0.3-0.2,0.6-0.3,0.9c0-0.1-0.1-0.1-0.1-0.1l0,0.1l0,0c0,0,0,0.1,0.1,0.1c-0.3,0.8-1.1,1.3-1.7,1.7
				c-0.2,0.1-0.4,0.2-0.6,0.3c-0.6,0.1-1.2,0.1-1.8,0.2C108.4,8.7,108.5,8.4,108.7,8.3z"/>
			<path class="st2" d="M108.2,8.4c0-0.1-0.1-0.1,0-0.2C108.2,8.2,108.2,8.3,108.2,8.4z"/>
			<path class="st2" d="M106.8,7.3C106.8,7.4,106.8,7.3,106.8,7.3C106.9,7.3,106.9,7.3,106.8,7.3C106.9,7.3,106.9,7.3,106.8,7.3z"/>
			<path class="st2" d="M106.5,7.1c0,0,0.1,0,0.2,0L106.5,7.1z"/>
			<path class="st2" d="M106.4,6.7C106.4,6.7,106.4,6.7,106.4,6.7C106.5,6.7,106.4,6.7,106.4,6.7z"/>
			<path class="st2" d="M106.3,6.8C106.3,6.8,106.3,6.8,106.3,6.8C106.3,6.8,106.4,6.8,106.3,6.8z"/>
			<path class="st2" d="M105.9,6.2C105.9,6.2,105.9,6.2,105.9,6.2C105.9,6.2,106,6.2,105.9,6.2z"/>
			<path class="st2" d="M105.7,6C105.7,6,105.7,6,105.7,6C105.7,5.9,105.7,5.9,105.7,6L105.7,6z"/>
			<polygon class="st2" points="107.6,1.1 107.6,1.1 107.5,1.1 			"/>
			<path class="st2" d="M110.2,1.5C110.3,1.5,110.2,1.6,110.2,1.5C110.2,1.6,110.3,1.6,110.2,1.5z"/>
			<polygon class="st2" points="111.5,2.5 111.5,2.5 111.6,2.4 			"/>
		</g>
	</g>
	<g>
		<circle class="st1" cx="79.4" cy="4.4" r="3.8"/>
		<g>
			<path class="st2" d="M75.4,4.3C75.4,4.4,75.5,4.2,75.4,4.3C75.4,4.3,75.3,4.3,75.4,4.3z"/>
			<path class="st2" d="M75.4,4.7c0.3,0.3,0.1,0.7,0.4,0.9c0,0-0.2,0-0.1,0.1c0.3,0.2,0.4,0.7,0.5,1.1l0,0c0,0.1,0.2,0.1,0.2,0.1
				c0,0,0,0-0.1,0c0.1,0,0.1,0.1,0.2,0.1c0,0-0.1,0.1-0.1,0.1l0.1,0C76.8,7,76.7,7.3,77,7.3c0,0,0,0-0.1,0c0.3,0,0.5,0.2,0.8,0.3
				c0,0-0.1,0.1-0.1,0.1c0.1-0.1,0.2-0.1,0.2-0.1c0,0.1,0.2,0,0.2,0l0,0c0.1-0.1,0.1,0.1,0.2,0l0,0.1c0.1-0.1,0.1,0.1,0.1,0l0,0
				c0.1,0,0.1,0.1,0.1,0l0,0c0.1,0,0.2,0.1,0.2,0c0,0.1-0.1,0-0.1,0.2c0.4-0.1,0.7,0,1.1,0c0,0,0.1,0.1,0.1,0.1c0,0,0.1,0,0.2-0.1
				c0,0,0,0.1,0.1,0.1c0.1,0,0-0.1,0.1-0.1c0,0,0,0.1,0,0.1c0-0.1,0.1-0.1,0.2-0.2c0,0,0,0,0,0.1c0-0.1,0.2,0,0.2-0.1l0,0.1
				c0.1,0,0-0.2,0.1-0.1c0,0,0,0.1,0,0.1c0-0.2,0.2-0.2,0.3-0.2c0,0,0,0,0,0c0.1-0.1,0.2-0.1,0.3-0.2c0,0,0.1,0.2,0.2,0.1
				c-0.1-0.1,0.1-0.1,0-0.2c0.1,0,0.2-0.1,0.2-0.1c0,0.1,0.1,0.1,0.1,0.2l0.1,0c0,0.1-0.1,0,0,0.1c0,0,0.1-0.1,0.1-0.1
				c0-0.1-0.1-0.3,0-0.4c0,0.1,0.1,0.1,0.1,0.1c0-0.1,0-0.2-0.1-0.3c0,0,0.1,0.1,0.1,0c0,0,0-0.1,0-0.1c0,0,0.1-0.1,0.2-0.1
				c0.1,0,0,0.1,0,0.1c0-0.1,0-0.1,0-0.1l0,0c0,0,0-0.1-0.1-0.1c0,0,0.1,0,0,0.1c0-0.1,0-0.1,0-0.2c0,0,0,0,0.1,0.1
				c0-0.1,0-0.2,0-0.3c-0.1,0,0.1,0.1,0,0.1c0.2-0.1,0-0.3,0.2-0.3c0,0-0.1,0-0.1,0c0,0,0.1,0,0.1-0.1c0.1,0,0-0.1,0-0.1
				c0,0,0,0,0,0c0-0.1,0-0.3,0.1-0.4c0,0-0.1-0.1-0.1-0.1l0.1,0c0.1,0,0-0.1,0.1-0.1c-0.1-0.1,0,0.3,0,0.2c0.1,0-0.1-0.1,0-0.1
				c0-0.1-0.1-0.1,0-0.2c0,0,0.1,0.1,0.1,0c0-0.1,0,0-0.1-0.1l0,0c-0.1,0,0-0.1-0.1-0.1c0.1,0,0-0.1,0.1-0.1l0.1,0
				c0,0-0.1-0.1-0.2-0.1c0,0,0,0,0.1,0c-0.2,0,0-0.1-0.1-0.1c0.1-0.1,0-0.2,0.1-0.2c-0.1-0.1-0.1-0.1-0.1-0.2c0,0,0,0,0.1,0
				c0,0,0-0.1,0-0.1c0,0,0.1-0.1,0.1-0.1c-0.1-0.1-0.1,0-0.2,0c0.2-0.1-0.1-0.1,0-0.2c0,0,0.1,0.1,0.1,0c0.1-0.1-0.1-0.1-0.1-0.2
				l-0.1,0.1c0.1-0.1-0.1-0.1,0-0.1c-0.1,0,0-0.1-0.1-0.1c0.1-0.2-0.2-0.3,0-0.5c0,0,0-0.1-0.1,0c-0.1,0.1,0.1,0,0,0.1
				c0,0,0,0-0.1,0c0-0.1,0-0.1,0.1-0.1c0-0.1-0.2,0-0.3-0.1c0.1,0,0.1,0,0-0.1l-0.1,0c0-0.1,0.1-0.1,0.2-0.2c0,0-0.1-0.1-0.1-0.1
				l0.1-0.1c0,0.1-0.1,0-0.1,0l0,0c0,0,0-0.1,0-0.1c0,0,0,0.1,0,0.1c0,0-0.1,0-0.1,0c0.1,0,0-0.1,0-0.1c0,0-0.1,0-0.1,0
				c0,0,0-0.1,0-0.1c0,0,0,0.1,0,0c0,0,0.1-0.1,0-0.1c-0.1,0-0.1,0.1-0.1,0c0,0,0.1,0,0.1,0l0-0.1l-0.1,0.1c0,0,0,0,0,0
				c-0.1,0-0.1-0.1-0.2,0c0,0,0-0.1,0-0.1l0,0c0-0.1-0.1-0.1-0.1-0.1l0,0c0,0-0.1,0-0.1,0c0-0.1,0.2-0.3,0.1-0.2
				c-0.1,0-0.2,0.1-0.2,0.1c0-0.1-0.2-0.1-0.2-0.2c0,0,0,0-0.1,0c-0.1-0.1-0.3-0.1-0.4-0.3c0.1,0,0-0.1,0.1-0.1
				c-0.1,0.1,0-0.1-0.1,0c0,0.1,0,0.1,0,0.1c-0.1,0-0.2,0-0.2-0.1c0,0,0,0.1,0,0.1c0-0.1,0-0.2-0.1-0.1l0,0.1l0-0.1
				c0,0-0.1,0.1-0.1,0.1c0,0,0-0.1,0-0.1c-0.1,0-0.2,0.1-0.2,0.1l0-0.1c0,0-0.1,0.1,0,0.1c-0.1-0.1-0.1-0.1-0.2-0.2
				c-0.2,0.2-0.4,0.2-0.6,0.2l0-0.1c-0.1,0,0,0.1-0.1,0.1c0-0.1,0-0.1,0-0.2C79,1,79,1.1,79,1.2c0,0.1,0-0.1,0,0c0,0-0.1,0-0.1,0.1
				c0,0,0-0.1,0-0.2l0,0.1c-0.1-0.1,0.1-0.2,0-0.4l0,0c-0.1-0.1,0.1-0.1,0-0.2c0,0.1-0.1,0.2,0,0.3c-0.1,0,0,0.3-0.1,0.3
				c0-0.1,0.1,0,0-0.1c-0.1-0.1-0.1,0.1-0.1,0c0.1,0,0,0.1,0,0.2c-0.1,0,0-0.1-0.1-0.1c0,0.1,0,0.1,0,0.2c0,0.1-0.1,0-0.1,0.1
				c-0.1-0.1,0-0.2-0.1-0.3c0,0.1-0.1,0.2,0,0.3c0,0-0.1-0.1-0.1-0.2c-0.1,0,0,0.2-0.1,0l0,0.1c0,0,0,0-0.1-0.1c0,0-0.1,0.2-0.1,0
				c0,0-0.1,0.1,0,0.1c0.1,0,0-0.1,0.1,0c-0.1-0.1-0.1,0-0.1,0.1l0-0.1c0,0,0,0,0,0.1c0,0,0-0.1,0-0.1l0,0.1c0,0.1-0.1-0.1-0.1-0.1
				l0-0.1c0,0-0.1,0-0.1,0c0,0.1,0.1,0.2,0.1,0.2c0,0.1-0.1-0.1-0.1,0l0-0.1c0,0-0.1-0.1-0.1-0.1c0,0,0,0.2,0.1,0.2
				c0,0-0.1,0-0.1-0.1c0,0.1,0.1,0.1,0,0.1c0,0-0.1-0.1-0.2-0.1l0-0.1l0,0c0-0.1-0.1-0.1-0.1-0.2c0,0,0,0.1,0,0.1
				c0.2,0.1,0.1,0.3,0.2,0.4c-0.1,0.1-0.3-0.3-0.2,0c0,0,0.1,0.2,0.1,0.1c-0.1,0,0.1,0.2,0,0.2c0-0.1-0.2-0.1-0.2-0.2
				c0,0,0.1,0,0.1,0c-0.1,0-0.1-0.1-0.2-0.1c0,0-0.1,0.1,0,0.1c0.1,0.1,0-0.1,0.1,0c0,0.1-0.2,0-0.1,0.1c0,0,0.1,0,0.1,0.1l0,0.1
				l0-0.1c-0.1,0,0.1,0.1,0,0.2L77,2.3c-0.1-0.1,0.1-0.1,0-0.2c0,0,0,0.1-0.1,0.1c0,0,0,0,0-0.1c0,0-0.2-0.1-0.2,0
				c0,0.1,0,0,0.1,0.1c0,0.1,0,0.2,0,0.2c-0.1-0.1-0.1,0.1-0.1-0.1c0.1,0,0.2-0.1,0.1-0.2c-0.1-0.1,0.1,0,0-0.2
				c-0.1,0.1-0.2,0-0.3-0.1c0,0,0,0.1,0,0.1c0.1,0.1,0.1,0,0.2,0.1c-0.1,0.1-0.1,0.2,0,0.3c-0.1,0-0.1-0.1-0.1-0.1
				c0,0.1-0.1,0.2-0.2,0.3c0.2,0,0,0.1,0.1,0.1c0.1,0,0.2,0,0.2,0c0,0-0.1,0-0.1,0c0.1,0.1-0.2,0-0.1,0.1c0-0.1-0.2-0.1-0.3-0.2
				c0,0.1-0.1,0-0.1,0c0,0.1,0,0.2,0,0.3C76,3,76.1,3.2,76,3.3c-0.1,0-0.2,0-0.2,0c0,0.1,0.2,0,0.1,0.1l0,0c0,0-0.1,0.1,0.1,0.2
				l-0.1-0.1c0,0,0,0,0,0.1c0,0-0.1,0-0.1,0c-0.1,0,0,0.1,0,0.2l0.1,0c0.1,0.1,0,0.2,0,0.3l-0.1,0l0,0.1c-0.1,0-0.1,0-0.1,0.1
				l-0.2-0.2c0.1,0,0.1,0.1,0.2,0c0.1,0,0.1-0.1,0-0.1c0,0,0,0,0,0.1c-0.1,0-0.1-0.1-0.2-0.1c0,0,0,0,0,0.1c-0.1,0-0.1-0.1,0-0.2
				c0,0.1,0.1,0,0.1,0c-0.1,0-0.1-0.1-0.1-0.2c0.1,0,0-0.2,0-0.3c0.1,0.1,0.2,0.1,0.2,0.2c0.1,0,0-0.1,0.1-0.1
				c-0.1,0-0.2-0.1-0.2-0.2l0.1,0c0-0.1-0.1-0.1-0.1-0.2c0.1-0.1,0.2-0.3,0.2-0.4l0.1,0c-0.1-0.1,0-0.2,0-0.3C76,2.2,76,1.9,76.1,2
				c0.1-0.3,0.2-0.5,0.5-0.7l0,0.1c0-0.1,0.1,0,0.1,0c-0.1,0,0-0.1,0-0.2c0.2,0,0.2-0.2,0.3-0.3l0,0.1c0-0.2,0.2-0.2,0.3-0.2
				c0,0,0.1,0.1,0.1,0c0-0.1,0.1-0.2,0.1-0.3c0.1,0,0.2-0.1,0.3,0c0.2-0.3,0.6-0.2,0.9-0.4l0,0.1c0.3-0.2,0.7,0,1-0.1l0,0.2
				c0.1,0.1,0.2,0,0.2-0.1c0.1,0.1,0.2,0,0.3,0.1c0.1,0.1,0.1,0,0.2,0c0.2,0.1,0.2,0.1,0.4,0.2l0,0c0,0-0.1,0.1,0,0.1
				c0.1,0,0.2,0.1,0.2-0.1c0.1,0.2,0.4,0.1,0.5,0.3c0-0.1,0.1,0,0.1-0.1c0.2,0.1,0.2,0.3,0.4,0.3c0,0-0.1,0,0,0.1c0,0,0-0.1,0.1,0
				c0.3,0.1,0.3,0.4,0.5,0.6c0.4,0.3,0.6,0.7,0.7,1.1l0,0c0.2,0.1,0,0.4,0.2,0.4c0,0,0,0.1-0.1,0.1c0.1,0.1,0,0.3,0.1,0.5
				c0,0,0,0,0,0c-0.1,0.2,0.1,0.3,0,0.5c0,0,0,0-0.1,0c-0.1,0.1,0.2,0.1,0,0.2c0,0,0.1,0,0.1,0c0,0.4,0,0.8,0,1.2
				c-0.2,0.2-0.3-0.1-0.2,0.2c0,0,0.1,0,0,0c0,0.1-0.2,0.1-0.2,0.1c0.1,0,0,0.1,0.1,0.1c-0.1,0.1-0.2,0.1-0.2,0.3l0,0
				c0.1,0.2-0.1,0.3,0,0.5c-0.4,0.8-1,1.5-1.8,1.9c-0.8,0.4-1.7,0.6-2.5,0.4c-0.2-0.2-0.2-0.2-0.4-0.1c0,0,0,0,0-0.1
				c0,0.1-0.2,0-0.2,0.1c-0.3-0.1-0.6-0.2-0.9-0.3c0.1,0,0.1-0.1,0.1-0.1l-0.1,0l0,0c0,0-0.1,0-0.1,0.1c-0.8-0.3-1.3-1.1-1.7-1.7
				c-0.1-0.2-0.2-0.4-0.3-0.6C75.1,5.5,75.1,5,75,4.4C75,4.4,75.3,4.4,75.4,4.7z"/>
			<path class="st2" d="M75.4,4.2c0.1,0,0.1-0.1,0.2,0C75.5,4.2,75.4,4.2,75.4,4.2z"/>
			<path class="st2" d="M76.4,2.8C76.3,2.8,76.4,2.8,76.4,2.8C76.4,2.8,76.4,2.9,76.4,2.8C76.4,2.8,76.4,2.8,76.4,2.8z"/>
			<path class="st2" d="M76.6,2.5c0,0,0,0.1,0,0.2L76.6,2.5z"/>
			<path class="st2" d="M77,2.4C77,2.4,77,2.4,77,2.4C77,2.4,77,2.4,77,2.4z"/>
			<path class="st2" d="M76.9,2.3C76.9,2.3,76.9,2.3,76.9,2.3C76.9,2.3,76.9,2.4,76.9,2.3z"/>
			<path class="st2" d="M77.5,1.9C77.5,1.9,77.5,1.9,77.5,1.9C77.5,1.9,77.5,2,77.5,1.9z"/>
			<path class="st2" d="M77.7,1.7C77.7,1.7,77.7,1.7,77.7,1.7C77.8,1.7,77.8,1.7,77.7,1.7L77.7,1.7z"/>
			<polygon class="st2" points="82.6,3.6 82.6,3.5 82.6,3.5 			"/>
			<path class="st2" d="M82.2,6.2C82.2,6.3,82.1,6.2,82.2,6.2C82.1,6.2,82.1,6.3,82.2,6.2z"/>
			<polygon class="st2" points="81.2,7.5 81.2,7.5 81.3,7.6 			"/>
		</g>
	</g>
	<g>
		<circle class="st1" cx="48.4" cy="4.6" r="3.8"/>
		<g>
			<path class="st2" d="M48.3,8.6C48.4,8.6,48.3,8.5,48.3,8.6C48.4,8.6,48.4,8.7,48.3,8.6z"/>
			<path class="st2" d="M48.7,8.5c0.3-0.3,0.7-0.1,0.9-0.4c0,0,0,0.2,0.1,0.1c0.2-0.3,0.7-0.4,1.1-0.5l0,0c0.1,0,0.1-0.2,0.1-0.2
				c0,0,0,0,0,0.1c0-0.1,0.1-0.1,0.1-0.2c0,0,0.1,0.1,0.1,0.1l0-0.1C51,7.2,51.3,7.2,51.3,7c0,0,0,0,0,0.1c0-0.3,0.2-0.5,0.3-0.8
				c0,0,0.1,0.1,0.1,0.1c-0.1-0.1-0.1-0.2-0.1-0.2c0.1,0,0-0.2,0-0.2l0,0c-0.1-0.1,0.1-0.1,0-0.2l0.1,0c-0.1-0.1,0.1-0.1,0-0.1l0,0
				c0-0.1,0.1-0.1,0-0.1l0,0c0-0.1,0.1-0.2,0-0.2c0.1,0,0,0.1,0.2,0.1c-0.1-0.4,0-0.7,0-1.1c0,0,0.1-0.1,0.1-0.1c0,0,0-0.1-0.1-0.2
				c0,0,0.1,0,0.1-0.1c0-0.1-0.1,0-0.1-0.1c0,0,0.1,0,0.1,0C52,3.8,52,3.7,52,3.6c0,0,0,0,0.1,0c-0.1,0,0-0.2-0.1-0.2l0.1,0
				c0-0.1-0.2,0-0.1-0.1c0,0,0.1,0,0.1,0c-0.2,0-0.2-0.2-0.2-0.3c0,0,0,0,0,0c-0.1-0.1-0.1-0.2-0.2-0.3c0,0,0.2-0.1,0.1-0.2
				c-0.1,0.1-0.1-0.1-0.2,0c0-0.1-0.1-0.2-0.1-0.2c0.1,0,0.1-0.1,0.2-0.1l0-0.1c0.1,0,0,0.1,0.1,0c0,0-0.1-0.1-0.1-0.1
				c-0.1,0-0.3,0.1-0.4,0c0.1,0,0.1-0.1,0.1-0.1c-0.1,0-0.2,0-0.3,0.1c0,0,0.1-0.1,0-0.1c0,0-0.1,0-0.1,0c0,0-0.1-0.1-0.1-0.2
				c0-0.1,0.1,0,0.1,0c-0.1,0-0.1,0-0.1,0l0,0c0,0-0.1,0-0.1,0.1c0,0,0-0.1,0.1,0c-0.1,0-0.1,0-0.2,0c0,0,0,0,0.1-0.1
				c-0.1,0-0.2,0-0.3,0c0,0.1,0.1-0.1,0.1,0c-0.1-0.2-0.3,0-0.3-0.2c0,0,0,0.1,0,0.1c0,0,0-0.1-0.1-0.1c0-0.1-0.1,0-0.1,0
				c0,0,0,0,0,0c-0.1,0-0.3,0-0.4-0.1c0,0-0.1,0.1-0.1,0.1l0-0.1c0-0.1-0.1,0-0.1-0.1c-0.1,0.1,0.3,0,0.2,0c0-0.1-0.1,0.1-0.1,0
				c-0.1,0-0.1,0.1-0.2,0c0,0,0.1-0.1,0-0.1c-0.1,0,0,0-0.1,0.1l0,0c0,0.1-0.1,0-0.1,0.1c0-0.1-0.1,0-0.1-0.1l0-0.1
				c0,0-0.1,0.1-0.1,0.2c0,0,0,0,0-0.1c0,0.2-0.1,0-0.1,0.1c-0.1-0.1-0.2,0-0.2-0.1c-0.1,0.1-0.1,0.1-0.2,0.1c0,0,0,0,0-0.1
				c0,0-0.1,0-0.1,0c0,0-0.1-0.1-0.1-0.1c-0.1,0.1,0,0.1,0,0.2c-0.1-0.2-0.1,0.1-0.2,0c0,0,0.1-0.1,0-0.1c-0.1-0.1-0.1,0.1-0.2,0.1
				l0.1,0.1c-0.1-0.1-0.1,0.1-0.1,0c0,0.1-0.1,0-0.1,0.1c-0.2-0.1-0.3,0.2-0.5,0c0,0-0.1,0,0,0.1c0.1,0.1,0-0.1,0.1,0c0,0,0,0,0,0.1
				c-0.1,0-0.1,0-0.1-0.1c-0.1,0,0,0.2-0.1,0.3c0-0.1,0-0.1-0.1,0l0,0.1c-0.1,0-0.1-0.1-0.2-0.2c0,0-0.1,0.1-0.1,0.1l-0.1-0.1
				c0.1,0,0,0.1,0,0.1l0,0c0,0-0.1,0-0.1,0c0,0,0.1,0,0.1,0c0,0,0,0.1,0,0.1c0-0.1-0.1,0-0.1,0c0,0,0,0.1,0,0.1c0,0-0.1,0-0.1,0
				c0,0,0.1,0,0,0c0,0-0.1-0.1-0.1,0c0,0.1,0.1,0.1,0,0.1c0,0,0-0.1,0-0.1l-0.1,0l0.1,0.1c0,0,0,0,0,0c0,0.1-0.1,0.1,0,0.2
				c0,0-0.1,0-0.1,0l0,0c-0.1,0-0.1,0.1-0.1,0.1l0,0c0,0,0,0.1,0,0.1c-0.1,0-0.3-0.2-0.2-0.1c0,0.1,0.1,0.2,0.1,0.2
				c-0.1,0-0.1,0.2-0.2,0.2c0,0,0,0,0,0.1c-0.1,0.1-0.1,0.3-0.3,0.4c0-0.1-0.1,0-0.1-0.1c0.1,0.1-0.1,0,0,0.1c0.1,0,0.1,0,0.1,0
				c0,0.1,0,0.2-0.1,0.2c0,0,0.1,0,0.1,0c-0.1,0-0.2,0-0.1,0.1l0.1,0l-0.1,0c0,0,0.1,0.1,0.1,0.1c0,0-0.1,0-0.1,0
				c0,0.1,0.1,0.2,0.1,0.2l-0.1,0c0,0,0.1,0.1,0.1,0c-0.1,0.1-0.1,0.1-0.2,0.2c0.2,0.2,0.2,0.4,0.2,0.6l-0.1,0c0,0.1,0.1,0,0.1,0.1
				c-0.1,0-0.1,0-0.2,0C45,5,45.2,5,45.2,5c0.1,0-0.1,0,0,0c0,0,0,0.1,0.1,0.1c0,0-0.1,0-0.2,0l0.1,0c-0.1,0.1-0.2-0.1-0.4,0l0,0
				c-0.1,0.1-0.1-0.1-0.2,0c0.1,0,0.2,0.1,0.3,0c0,0.1,0.3,0,0.3,0.1c-0.1,0,0-0.1-0.1,0c-0.1,0.1,0.1,0.1,0,0.1c0-0.1,0.1,0,0.2,0
				c0,0.1-0.1,0-0.1,0.1c0.1,0,0.1,0,0.2,0c0.1,0,0,0.1,0.1,0.1c-0.1,0.1-0.2,0-0.3,0.1c0.1,0,0.2,0.1,0.3,0c0,0-0.1,0.1-0.2,0.1
				c0,0.1,0.2,0,0,0.1l0.1,0c0,0,0,0-0.1,0.1c0,0,0.2,0.1,0,0.1c0,0,0.1,0.1,0.1,0c0-0.1-0.1,0,0-0.1c-0.1,0.1,0,0.1,0.1,0.1l-0.1,0
				c0,0,0,0,0.1,0c0,0-0.1,0-0.1,0l0.1,0c0.1,0-0.1,0.1-0.1,0.1l-0.1,0c0,0,0,0.1,0,0.1c0.1,0,0.2-0.1,0.2-0.1c0.1,0-0.1,0.1,0,0.1
				l-0.1,0c0,0-0.1,0.1-0.1,0.1c0,0,0.2,0,0.2-0.1c0,0,0,0.1-0.1,0.1c0.1,0,0.1-0.1,0.1,0c0,0-0.1,0.1-0.1,0.2l-0.1,0l0,0
				c-0.1,0-0.1,0.1-0.2,0.1c0,0,0.1,0,0.1,0c0.1-0.2,0.3-0.1,0.4-0.2c0.1,0.1-0.3,0.3,0,0.2c0,0,0.2-0.1,0.1-0.1
				c0,0.1,0.2-0.1,0.2,0c-0.1,0-0.1,0.2-0.2,0.2c0,0,0-0.1,0-0.1c0,0.1-0.1,0.1-0.1,0.2c0,0,0.1,0.1,0.1,0c0.1-0.1-0.1,0,0-0.1
				c0.1,0,0,0.2,0.1,0.1c0,0,0-0.1,0.1-0.1l0.1,0l-0.1,0c0,0.1,0.1-0.1,0.2,0L46.3,7c-0.1,0.1-0.1-0.1-0.2,0c0,0,0.1,0,0.1,0.1
				c0,0,0,0-0.1,0c0,0-0.1,0.2,0,0.2c0.1,0,0,0,0.1-0.1c0.1,0,0.2,0,0.2,0c-0.1,0.1,0.1,0.1-0.1,0.1c0-0.1-0.1-0.2-0.2-0.1
				c-0.1,0.1,0-0.1-0.2,0c0.1,0.1,0,0.2-0.1,0.3c0,0,0.1,0,0.1,0c0.1-0.1,0-0.1,0.1-0.2c0.1,0.1,0.2,0.1,0.3,0
				c0,0.1-0.1,0.1-0.1,0.1c0.1,0,0.2,0.1,0.3,0.2c0-0.2,0.1,0,0.1-0.1c0-0.1,0-0.2,0-0.2c0,0,0,0.1,0,0.1c0.1-0.1,0,0.2,0.1,0.1
				c-0.1,0-0.1,0.2-0.2,0.3c0.1,0,0,0.1,0,0.1c0.1,0,0.2,0,0.3,0c0.1,0.1,0.2,0.1,0.3,0.1c0,0.1,0,0.2,0,0.2c0.1,0,0-0.2,0.1-0.1
				l0,0c0,0,0.1,0.1,0.2-0.1l-0.1,0.1c0,0,0,0,0.1,0c0,0,0,0.1,0,0.1c0,0.1,0.1,0,0.2,0l0-0.1c0.1-0.1,0.2,0,0.3,0l0,0.1l0.1,0
				c0,0.1,0,0.1,0.1,0.1L48,8.6c0-0.1,0.1-0.1,0-0.2c0-0.1-0.1-0.1-0.1,0c0,0,0,0,0.1,0c0,0.1-0.1,0.1-0.1,0.2c0,0,0,0,0.1,0
				c0,0.1-0.1,0.1-0.2,0c0.1,0,0-0.1,0-0.1c0,0.1-0.1,0.1-0.2,0.1c0-0.1-0.2,0-0.3,0c0.1-0.1,0.1-0.2,0.2-0.2c0-0.1-0.1,0-0.1-0.1
				c0,0.1-0.1,0.2-0.2,0.2l0-0.1c-0.1,0-0.1,0.1-0.2,0.1c-0.1-0.1-0.3-0.2-0.4-0.2l0-0.1c-0.1,0.1-0.2,0-0.3,0C46.2,8,46,8,46,7.9
				c-0.3-0.1-0.5-0.2-0.7-0.5l0.1,0c-0.1,0,0-0.1,0-0.1c0,0.1-0.1,0-0.2,0c0-0.2-0.2-0.2-0.3-0.3L45,7c-0.2,0-0.2-0.2-0.2-0.3
				c0,0,0.1-0.1,0-0.1c-0.1,0-0.2-0.1-0.3-0.1c0-0.1-0.1-0.2,0-0.3c-0.3-0.2-0.2-0.6-0.4-0.9l0.1,0c-0.2-0.3,0-0.7-0.1-1l0.2,0
				c0.1-0.1,0-0.2-0.1-0.2c0.1-0.1,0-0.2,0.1-0.3c0.1-0.1,0-0.1,0-0.2c0.1-0.2,0.1-0.2,0.2-0.4l0,0c0,0,0.1,0.1,0.1,0
				c0-0.1,0.1-0.2-0.1-0.2c0.2-0.1,0.1-0.4,0.3-0.5c-0.1,0,0-0.1-0.1-0.1c0.1-0.2,0.3-0.2,0.3-0.4c0,0,0,0.1,0.1,0c0,0-0.1,0,0-0.1
				c0.1-0.3,0.4-0.3,0.6-0.5c0.3-0.4,0.7-0.6,1.1-0.7l0,0c0.1-0.2,0.4,0,0.4-0.2c0,0,0.1,0,0.1,0.1c0.1-0.1,0.3,0,0.5-0.1
				c0,0,0,0,0,0c0.2,0.1,0.3-0.1,0.5,0c0,0,0,0,0,0.1c0.1,0.1,0.1-0.2,0.2,0c0,0,0-0.1,0-0.1c0.4,0,0.8,0,1.2,0
				c0.2,0.2-0.1,0.3,0.2,0.2c0,0,0-0.1,0,0c0.1,0,0.1,0.2,0.1,0.2c0-0.1,0.1,0,0.1-0.1c0.1,0.1,0.1,0.2,0.3,0.2l0,0
				c0.2-0.1,0.3,0.1,0.5,0c0.8,0.4,1.5,1,1.9,1.8c0.4,0.8,0.6,1.7,0.4,2.5c-0.2,0.2-0.2,0.2-0.1,0.4c0,0,0,0-0.1,0
				c0.1,0,0,0.2,0.1,0.2c-0.1,0.3-0.2,0.6-0.3,0.9c0-0.1-0.1-0.1-0.1-0.1l0,0.1l0,0c0,0,0,0.1,0.1,0.1c-0.3,0.8-1.1,1.3-1.7,1.7
				c-0.2,0.1-0.4,0.2-0.6,0.3C49.5,8.9,49,8.8,48.4,9C48.4,9,48.5,8.6,48.7,8.5z"/>
			<path class="st2" d="M48.2,8.6c0-0.1-0.1-0.1,0-0.2C48.2,8.5,48.2,8.6,48.2,8.6z"/>
			<path class="st2" d="M46.9,7.6C46.8,7.6,46.8,7.6,46.9,7.6C46.9,7.6,46.9,7.5,46.9,7.6C46.9,7.6,46.9,7.6,46.9,7.6z"/>
			<path class="st2" d="M46.6,7.4c0,0,0.1,0,0.2,0L46.6,7.4z"/>
			<path class="st2" d="M46.4,7C46.4,7,46.5,7,46.4,7C46.5,7,46.4,7,46.4,7z"/>
			<path class="st2" d="M46.3,7.1C46.3,7.1,46.3,7.1,46.3,7.1C46.3,7.1,46.4,7,46.3,7.1z"/>
			<path class="st2" d="M46,6.5C45.9,6.5,45.9,6.5,46,6.5C45.9,6.5,46,6.5,46,6.5z"/>
			<path class="st2" d="M45.7,6.3C45.7,6.3,45.7,6.3,45.7,6.3C45.7,6.2,45.8,6.2,45.7,6.3L45.7,6.3z"/>
			<polygon class="st2" points="47.6,1.4 47.6,1.4 47.6,1.3 			"/>
			<path class="st2" d="M50.3,1.8C50.3,1.8,50.3,1.9,50.3,1.8C50.2,1.9,50.3,1.8,50.3,1.8z"/>
			<polygon class="st2" points="51.5,2.8 51.5,2.8 51.6,2.7 			"/>
		</g>
	</g>
</g>
</svg>