<!-- Generator: Adobe Illustrator 21.0.0, SVG Export Plug-In  -->
<svg version="1.1"
	 xmlns="http://www.w3.org/2000/svg" xmlns:xlink="http://www.w3.org/1999/xlink" xmlns:a="http://ns.adobe.com/AdobeSVGViewerExtensions/3.0/"
	 x="0px" y="0px" width="30px" height="30px" viewBox="0 0 30 30" style="enable-background:new 0 0 30 30;" xml:space="preserve">
<style type="text/css">
	.st0{fill:#010101;}
</style>
<defs>
</defs>
<path d="M15,1c7.7,0,14,6.3,14,14s-6.3,14-14,14C7.3,29,1,22.7,1,15S7.3,1,15,1 M15,0C6.7,0,0,6.7,0,15s6.7,15,15,15
	c8.3,0,15-6.7,15-15S23.2,0,15,0L15,0z"/>
<g id="_x37_13-refresh-1_x40_2x.png_3_">
	<g>
		<path class="st0" d="M15,9c0,0-0.1,0-0.1,0V6.7c0-0.2-0.1-0.3-0.3-0.3c-0.1,0-0.1,0-0.2,0.1l0,0l-4,2.6l0,0
			c-0.1,0.1-0.1,0.1-0.1,0.2c0,0.1,0.1,0.2,0.1,0.2l0,0l4,2.6l0,0c0,0,0.1,0.1,0.2,0.1c0.2,0,0.3-0.1,0.3-0.3V9.5c0,0,0.1,0,0.1,0
			c3.4,0,6.2,2.8,6.2,6.2c0,3.4-2.8,6.2-6.2,6.2s-6.2-2.8-6.2-6.2c0-0.2-0.1-0.3-0.3-0.3s-0.3,0.1-0.3,0.3c0,3.7,3,6.8,6.8,6.8
			c3.7,0,6.8-3,6.8-6.8C21.8,12,18.7,9,15,9z"/>
	</g>
</g>
</svg>