<!-- Generator: Adobe Illustrator 21.0.0, SVG Export Plug-In  -->
<svg version="1.1"
	 xmlns="http://www.w3.org/2000/svg" xmlns:xlink="http://www.w3.org/1999/xlink" xmlns:a="http://ns.adobe.com/AdobeSVGViewerExtensions/3.0/"
	 x="0px" y="0px" width="26.9px" height="26.9px" viewBox="0 0 26.9 26.9" style="enable-background:new 0 0 26.9 26.9;"
	 xml:space="preserve">
<style type="text/css">
	.st0{fill:#FFFFFF;}
</style>
<defs>
</defs>
<g>
	<g>
		<path class="st0" d="M13.4,1c6.9,0,12.4,5.6,12.4,12.4c0,6.9-5.6,12.4-12.4,12.4C6.6,25.9,1,20.3,1,13.4C1,6.6,6.6,1,13.4,1
			 M13.4,0C6,0,0,6,0,13.4c0,7.4,6,13.4,13.4,13.4c7.4,0,13.4-6,13.4-13.4C26.9,6,20.9,0,13.4,0L13.4,0z"/>
	</g>
	<g id="_x37_08-search_x40_2x.png_1_">
		<g>
			<g>
				<path class="st0" d="M19,18.7l-3.2-3.2c0.8-0.8,1.2-1.9,1.2-3.1c0-2.5-2.1-4.6-4.6-4.6c-2.5,0-4.6,2.1-4.6,4.6
					c0,2.5,2.1,4.6,4.6,4.6c1.2,0,2.3-0.5,3.1-1.2l3.2,3.2c0.1,0.1,0.2,0.1,0.3,0C19.1,18.9,19.1,18.8,19,18.7z M12.4,16.7
					c-2.3,0-4.2-1.9-4.2-4.2c0-2.3,1.9-4.2,4.2-4.2c2.3,0,4.2,1.9,4.2,4.2C16.7,14.8,14.8,16.7,12.4,16.7z"/>
			</g>
		</g>
		<g>
			<g>
				<path class="st0" d="M18.9,19.3c-0.1,0-0.2,0-0.3-0.1l-3-3c-0.9,0.7-2,1.1-3.1,1.1c-2.7,0-4.9-2.2-4.9-4.9s2.2-4.9,4.9-4.9
					s4.9,2.2,4.9,4.9c0,1.1-0.4,2.2-1.1,3.1l3,3c0.2,0.2,0.2,0.5,0,0.6C19.1,19.3,19,19.3,18.9,19.3z M12.4,8.5c-2.2,0-4,1.8-4,4
					s1.8,4,4,4c2.2,0,4-1.8,4-4S14.6,8.5,12.4,8.5z"/>
			</g>
		</g>
	</g>
</g>
</svg>