<!-- Generator: Adobe Illustrator 21.0.0, SVG Export Plug-In  -->
<svg version="1.1"
	 xmlns="http://www.w3.org/2000/svg" xmlns:xlink="http://www.w3.org/1999/xlink" xmlns:a="http://ns.adobe.com/AdobeSVGViewerExtensions/3.0/"
	 x="0px" y="0px" width="33.3px" height="21.4px" viewBox="0 0 33.3 21.4" style="enable-background:new 0 0 33.3 21.4;"
	 xml:space="preserve">
<style type="text/css">
	.st0{fill:#FFFFFF;}
</style>
<defs>
</defs>
<g id="_x38_88-checkmark_x40_2x.png_1_">
	<path class="st0" d="M32.1,0c-0.3,0-0.6,0.1-0.8,0.3L13.1,18.6L2,7.5C1.8,7.3,1.5,7.1,1.2,7.1C0.5,7.1,0,7.7,0,8.3
		C0,8.7,0.1,9,0.3,9.2l11.9,11.9c0.2,0.2,0.5,0.3,0.8,0.3s0.6-0.1,0.8-0.3L33,2c0.2-0.2,0.3-0.5,0.3-0.8C33.3,0.5,32.8,0,32.1,0z"/>
</g>
</svg>