<!-- Generator: Adobe Illustrator 21.0.0, SVG Export Plug-In  -->
<svg version="1.1"
	 xmlns="http://www.w3.org/2000/svg" xmlns:xlink="http://www.w3.org/1999/xlink" xmlns:a="http://ns.adobe.com/AdobeSVGViewerExtensions/3.0/"
	 x="0px" y="0px" width="680.2px" height="94.1px" viewBox="0 0 680.2 94.1" style="enable-background:new 0 0 680.2 94.1;"
	 xml:space="preserve">
<style type="text/css">
	.st0{fill:#FFFFFF;}
</style>
<defs>
</defs>
<g>
	<path class="st0" d="M59.9,43.4c-2.7-4.6-6.9-4.6-7.4-4.6c0,0,0,0,0,0l17.7-3.7l-17.7-3.7l0,0c0.2-0.2,3.6-3.2,8.8-3.3
		c3.9-0.1,7.3-4.8,5.1-8.5c0,0-0.6,5.8-7.9,3.8c-5.1-1.4-8.1,1.6-8.5,2c0,0,0,0,0,0L60,10.3l-15.1,9.9c0,0,0,0,0,0
		c0-0.2,0.3-4.8,3.9-8.5c2.7-2.8,1.7-8.6-2.4-9.6c0,0,3.6,4.5-2.9,8.3c-4.6,2.7-4.6,6.9-4.6,7.4c0,0,0,0,0,0L35.1,0l-3.7,17.7
		c0,0,0,0,0,0c-0.1-0.2-3.2-3.6-3.3-8.8c-0.1-3.9-4.8-7.3-8.5-5.1c0,0,5.8,0.6,3.8,7.9c-1.4,5.1,1.6,8.1,2,8.5c0,0,0,0,0,0
		l-15.1-9.9l0,0l0,0l8.1,12.3l1.8,2.8c0,0,0,0,0,0c-0.1,0-4.8-0.3-8.6-3.9c-2.8-2.7-8.6-1.7-9.6,2.4c0,0,4.5-3.6,8.3,2.9
		c2.7,4.6,6.9,4.6,7.4,4.6c0,0,0,0,0,0L0,35.1l17.7,3.7c0,0,0,0,0,0c-0.1,0.1-3.6,3.2-8.8,3.3c-3.9,0.1-7.3,4.8-5.1,8.5
		c0,0,0.6-5.8,7.9-3.8c5.1,1.4,8.2-1.6,8.5-2c0,0,0,0,0,0L10.3,60L25.4,50c0,0.2-0.3,4.8-3.9,8.5c-2.7,2.8-1.7,8.6,2.4,9.6
		c0,0-3.6-4.5,2.9-8.3c4.6-2.7,4.6-6.9,4.6-7.4c0,0,0,0,0,0l3.7,17.7l3.7-17.7c0,0,0,0,0,0c0.1,0.1,3.2,3.6,3.3,8.8
		c0.1,3.9,4.8,7.3,8.5,5.1c0,0-5.8-0.6-3.8-7.9c1.4-5.1-1.6-8.1-2-8.5c0,0,0,0,0,0L60,60l-5.2-8L50,44.8l0,0c0.2,0,4.8,0.3,8.5,3.9
		c2.8,2.7,8.6,1.7,9.6-2.4C68.2,46.3,63.7,49.9,59.9,43.4z"/>
	<g>
		<path class="st0" d="M106.2,29c-0.6-2.3-1.6-4.8-4.7-4.8c-2.8,0-4,2-4,4c0,2.6,1.7,3.9,4.6,5.3c2.8,1.4,6.2,3.1,6.2,7.2
			c0,3.8-3.2,6.8-8,6.8c-1.5,0-2.6-0.3-3.5-0.5c-0.9-0.3-1.4-0.6-1.8-0.8c-0.3-0.8-0.8-3.9-1-5.6l1-0.3c0.6,2.2,2.2,5.8,5.9,5.8
			c2.7,0,4.3-1.7,4.3-4.3c0-2.7-2-3.9-4.7-5.4c-2.3-1.2-5.9-3-5.9-7.1c0-3.5,2.8-6.4,7.4-6.4c1.7,0,3.2,0.4,4.5,0.8
			c0.1,1.3,0.3,2.7,0.6,5L106.2,29z"/>
		<path class="st0" d="M130.3,46.9V46c2.1-0.2,2.5-0.4,2.5-2.9v-6c0-2.6-0.9-4.2-3.2-4.2c-1.3,0-2.7,0.7-4,1.9
			c0.1,0.4,0.1,0.8,0.1,1.5v7c0,2.3,0.3,2.5,2.3,2.7v0.9h-7.7V46c2.2-0.2,2.6-0.4,2.6-2.8V37c0-2.7-0.9-4.1-3.1-4.1
			c-1.4,0-2.8,1-3.9,1.9v8.5c0,2.3,0.3,2.6,2.1,2.8v0.9h-7.6V46c2.4-0.2,2.7-0.4,2.7-2.8v-7.5c0-2.3-0.1-2.5-2.2-2.8v-0.8
			c1.6-0.3,3.4-0.8,5-1.5v2.9c0.8-0.5,1.5-1.2,2.6-1.8c0.9-0.6,1.8-1,3-1c1.7,0,3.3,1.1,4,3c1-0.8,2.1-1.5,3-2
			c0.8-0.5,1.7-0.9,2.7-0.9c2.8,0,4.6,2,4.6,5.5v6.9c0,2.4,0.3,2.6,2.3,2.8v0.9H130.3z"/>
		<path class="st0" d="M140,46.9V46c2.3-0.2,2.5-0.4,2.5-2.9v-7.4c0-2.2-0.1-2.4-2.3-2.7v-0.9c1.8-0.3,3.5-0.8,5.1-1.4v12.4
			c0,2.4,0.3,2.7,2.6,2.9v0.9H140z M141.9,25.8c0-1.1,0.9-1.9,1.8-1.9c1,0,1.8,0.8,1.8,1.9c0,1-0.8,1.8-1.8,1.8
			C142.7,27.6,141.9,26.7,141.9,25.8z"/>
		<path class="st0" d="M156.3,46.9c-0.6,0.3-1.2,0.5-1.5,0.5c-2.3,0-3.5-1.4-3.5-4.3V32.6h-2.5l-0.1-0.4l1-1h1.7v-2.6l2.3-2.4
			l0.5,0.1v4.9h4.1c0.3,0.4,0.2,1.2-0.2,1.4h-3.9v9.3c0,2.9,1.2,3.5,2.1,3.5s1.7-0.4,2.2-0.6l0.3,0.9L156.3,46.9z"/>
		<path class="st0" d="M170.1,46.9V46c2.1-0.2,2.4-0.4,2.4-2.8v-6c0-3-1.1-4.4-3.5-4.4c-1.4,0-2.7,0.7-3.7,1.8v8.6
			c0,2.3,0.2,2.6,2.3,2.8v0.9h-7.6V46c2.2-0.2,2.5-0.4,2.5-2.8V26c0-2.3-0.1-2.4-2.4-2.7v-0.8c1.7-0.3,3.9-0.8,5.3-1.3v12.1
			c1.3-1.3,3.2-2.6,5.1-2.6c2.9,0,5,1.8,5,6.2v6.3c0,2.4,0.3,2.6,2.4,2.8v0.9H170.1z"/>
		<path class="st0" d="M188.7,35.4c-0.7-2.1-1.9-3.6-3.7-3.6c-1.4,0-2.3,1.1-2.3,2.5c0,1.6,1.4,2.4,3.1,3.1c2.7,1.1,4.5,2.4,4.5,4.9
			c0,3.3-3.1,5-5.9,5c-1.8,0-3.5-0.7-4.1-1.2c-0.3-0.5-0.6-3-0.6-4.2l0.9-0.2c0.6,2.4,2.3,4.5,4.4,4.5c1.3,0,2.6-1,2.6-2.5
			c0-1.6-1-2.4-2.8-3.3c-2.2-1-4.5-2.2-4.5-5c0-2.5,2.2-4.6,5.5-4.6c1.5,0,2.4,0.3,3.2,0.6c0.3,0.8,0.7,3,0.8,3.9L188.7,35.4z"/>
		<path class="st0" d="M208.7,38.8c0,5.8-4.2,8.6-7.8,8.6c-4.9,0-7.9-4-7.9-8c0-5.9,4.6-8.6,7.9-8.6
			C205.3,30.7,208.7,34.3,208.7,38.8z M196.3,38.2c0,4.5,2,7.9,4.9,7.9c2.2,0,4.1-1.7,4.1-6.6c0-4.2-1.7-7.6-4.8-7.6
			C198.3,31.9,196.3,34.2,196.3,38.2z"/>
		<path class="st0" d="M220.9,46.9V46c2.1-0.2,2.4-0.5,2.4-3v-6c0-2.5-0.9-4.1-3.3-4.1c-1.4,0-2.8,0.9-3.9,1.8v8.5
			c0,2.4,0.2,2.6,2.3,2.8v0.9h-7.8V46c2.4-0.3,2.6-0.4,2.6-2.8v-7.5c0-2.3-0.2-2.4-2.2-2.8v-0.8c1.7-0.3,3.4-0.8,5-1.5v2.9
			c0.7-0.5,1.5-1.1,2.4-1.7c1-0.6,1.9-1.1,3-1.1c2.8,0,4.6,2,4.6,5.5v6.9c0,2.4,0.2,2.6,2.3,2.8v0.9H220.9z"/>
		<path class="st0" d="M230.4,46.9V46c2.3-0.2,2.5-0.4,2.5-2.9v-7.4c0-2.2-0.1-2.4-2.3-2.7v-0.9c1.8-0.3,3.5-0.8,5.1-1.4v12.4
			c0,2.4,0.3,2.7,2.6,2.9v0.9H230.4z M232.3,25.8c0-1.1,0.9-1.9,1.8-1.9c1,0,1.8,0.8,1.8,1.9c0,1-0.8,1.8-1.8,1.8
			C233.2,27.6,232.3,26.7,232.3,25.8z"/>
		<path class="st0" d="M251.6,47.3c-0.5,0-1.3-0.3-1.7-0.7c-0.5-0.5-0.7-1-0.9-1.6c-1.4,1-3.2,2.3-4.2,2.3c-2.6,0-4.3-2.1-4.3-4.4
			c0-1.8,0.9-2.9,2.9-3.6c2.2-0.7,4.8-1.7,5.6-2.3v-0.6c0-2.6-1.2-4.1-3-4.1c-0.7,0-1.3,0.3-1.6,0.7c-0.5,0.5-0.8,1.3-1.1,2.4
			c-0.1,0.6-0.5,0.8-1,0.8c-0.6,0-1.6-0.7-1.6-1.5c0-0.5,0.5-0.9,1.2-1.4c1-0.7,3.3-2.1,5.4-2.5c1.1,0,2.2,0.3,3,1
			c1.3,1,1.6,2.5,1.6,4.4v6.7c0,1.6,0.6,2.2,1.3,2.2c0.4,0,0.9-0.2,1.3-0.4l0.4,0.9L251.6,47.3z M248.9,38.3
			c-0.8,0.4-2.5,1.2-3.2,1.5c-1.4,0.6-2.2,1.3-2.2,2.6c0,1.9,1.4,2.8,2.6,2.8c0.9,0,2.2-0.6,2.9-1.3V38.3z"/>
		<path class="st0" d="M265.9,46.9V46c2.1-0.2,2.4-0.5,2.4-3v-6c0-2.5-0.9-4.1-3.3-4.1c-1.4,0-2.8,0.9-3.9,1.8v8.5
			c0,2.4,0.2,2.6,2.3,2.8v0.9h-7.8V46c2.4-0.3,2.6-0.4,2.6-2.8v-7.5c0-2.3-0.2-2.4-2.2-2.8v-0.8c1.7-0.3,3.4-0.8,5-1.5v2.9
			c0.7-0.5,1.5-1.1,2.4-1.7c1-0.6,1.9-1.1,3-1.1c2.8,0,4.6,2,4.6,5.5v6.9c0,2.4,0.2,2.6,2.3,2.8v0.9H265.9z"/>
		<path class="st0" d="M119.8,60.5c-2.2,0.1-2.7,0.7-3.1,2.3c-0.3,0.9-0.8,2.8-1.4,6.1l-2.7,14.3h-1.1l-10.7-19.1h-0.1l-1.9,9.6
			c-0.6,3.1-0.9,4.9-0.9,6c-0.1,1.7,0.6,2,3.1,2.2l-0.2,1h-8.2l0.2-1c1.9-0.1,2.7-0.5,3.2-2.1c0.4-1.3,0.8-2.9,1.5-6.3l1.9-8.9
			c0.4-1.8,0.3-2.3-0.2-3.1c-0.4-0.8-1-1-3.1-1.1l0.2-0.9h5.2l10.6,18.3h0.1l1.7-9c0.6-3.3,0.9-5.1,1-6.2c0.1-1.7-0.5-2.1-3.1-2.2
			l0.3-0.9h8.1L119.8,60.5z"/>
		<path class="st0" d="M133.6,79.6c-1.9,2.4-4.4,3.7-5.3,3.7c-0.7,0-1.2-0.5-0.6-3.2l0.7-3.4h-0.1c-1.4,2-3.1,3.7-4.6,5
			c-1.2,1-2.4,1.6-3.3,1.6c-0.9,0-2.1-1.2-2.1-4.1c0-3.6,1.7-7.6,4.3-9.8c1.8-1.5,4.4-2.8,6.7-2.8c0.8,0,1.5,0.1,2.2,0.3
			c0.5,0.1,1,0.2,1.4,0.2l0.1,0.1c-0.6,2.2-1.7,7.1-2.5,11.7c-0.3,1.3-0.1,1.5,0.1,1.5c0.3,0,1.5-0.8,2.6-1.9L133.6,79.6z M128.9,74
			c0.4-1.4,0.9-4,1.2-5.2c-0.5-0.3-1.5-0.5-2.4-0.5c-0.9,0-1.9,0.3-2.6,0.8c-2.4,1.8-3.9,6-3.9,9.6c0,1.6,0.5,2.4,1,2.4
			C123.6,81,127.7,76.5,128.9,74z"/>
		<path class="st0" d="M144.9,68.5l-3.6,0.2l-2.1,9.9c-0.4,1.8-0.2,2.2,0.2,2.2c0.6,0,2.4-1.2,3.2-2.1l0.5,0.8
			c-1.2,1.4-3.9,3.9-5.8,3.9c-0.8,0-1.5-1-0.8-4.8l2.1-9.9h-2.7l-0.1-0.3l0.9-1.1h2.2l0.8-3.4l2.7-2.2l0.3,0.2l-1.3,5.4h4.2
			L144.9,68.5z"/>
		<path class="st0" d="M152.9,79.7c-1.2,1.5-4,3.6-5.3,3.6c-0.7,0-1.2-0.6-0.5-3.5l2.2-9.2c0.2-0.8,0.2-1.2,0-1.2
			c-0.3,0-1.4,0.6-2.4,1.5l-0.4-0.8c2-1.9,4.5-3.4,5.5-3.4c0.8,0,0.8,1.2,0.4,2.8l-2.5,9.9c-0.2,0.9-0.1,1.2,0.1,1.2
			c0.4,0,1.7-0.9,2.5-1.7L152.9,79.7z M153.8,61.5c0,1.1-0.8,2.1-1.9,2.1c-0.9,0-1.5-0.6-1.5-1.6c0-0.9,0.7-2.1,2-2.1
			C153.3,59.8,153.8,60.6,153.8,61.5z"/>
		<path class="st0" d="M155.7,77.7c0-4.7,2.5-8.2,5.5-9.8c1.3-0.7,2.8-1.2,3.9-1.2c3,0,4.8,2.1,4.8,5.6c0,3.1-1.3,6.6-3.9,8.7
			c-1.5,1.3-3.5,2.3-5.5,2.3C157.1,83.3,155.7,80.6,155.7,77.7z M162.9,81.7c1.9-0.8,3.9-4.6,3.9-9.3c0-2.9-1.3-4.3-2.9-4.3
			c-0.5,0-1,0.1-1.4,0.3c-1.4,0.6-3.8,3.6-3.8,9.1c0,2.7,1.1,4.4,3,4.4C162.2,81.9,162.6,81.8,162.9,81.7z"/>
		<path class="st0" d="M188.5,79.8c-2.1,2.3-4.1,3.5-5.1,3.5c-0.9,0-1.2-1-0.6-3.7c0.7-2.7,1.3-5.3,1.9-8c0.5-2.1,0.3-2.6-0.3-2.6
			c-1.6,0-5.8,4.5-7.6,7.5c-0.4,1.8-1,3.9-1.4,6.1c-0.9,0.2-1.9,0.5-2.6,0.7l-0.2-0.3c1-3.9,2.1-8.2,2.9-12.2c0.3-1.2,0.2-1.4,0-1.4
			c-0.3,0-1.4,0.8-2.3,1.6l-0.5-0.9c1.9-2.1,4.1-3.4,5.1-3.4c0.8,0,1,1.2,0.3,4l-0.8,3.1h0.1c2.4-3.3,5.1-5.4,6.6-6.3
			c0.9-0.5,1.7-0.8,2.4-0.8c0.9,0,1.9,0.5,0.8,5.1c-0.6,2.4-1.2,5-1.8,7.5c-0.2,1-0.2,1.3,0.1,1.3c0.3,0,1.3-0.6,2.4-1.7L188.5,79.8
			z"/>
		<path class="st0" d="M206.3,79.6c-1.9,2.4-4.4,3.7-5.3,3.7c-0.7,0-1.2-0.5-0.6-3.2l0.7-3.4H201c-1.4,2-3.1,3.7-4.6,5
			c-1.2,1-2.4,1.6-3.3,1.6c-0.9,0-2.1-1.2-2.1-4.1c0-3.6,1.7-7.6,4.3-9.8c1.8-1.5,4.4-2.8,6.7-2.8c0.8,0,1.5,0.1,2.2,0.3
			c0.5,0.1,1,0.2,1.4,0.2l0.1,0.1c-0.6,2.2-1.7,7.1-2.5,11.7c-0.3,1.3-0.1,1.5,0.1,1.5c0.3,0,1.5-0.8,2.6-1.9L206.3,79.6z M201.6,74
			c0.4-1.4,0.9-4,1.2-5.2c-0.5-0.3-1.5-0.5-2.4-0.5c-0.9,0-1.9,0.3-2.6,0.8c-2.4,1.8-3.9,6-3.9,9.6c0,1.6,0.5,2.4,1,2.4
			C196.3,81,200.4,76.5,201.6,74z"/>
		<path class="st0" d="M215.1,79.5c-1.9,2.2-4.4,3.9-5.5,3.9c-0.7,0-1.3-0.8-0.5-4.4c1.3-5.9,2.5-11.8,3.7-17.7
			c0.4-1.5,0.1-1.8-1.5-1.8l-1,0l0.1-0.9c2.8-0.3,4.9-1.3,5.3-1.3c0.3,0,0.4,0.3,0.2,1.1c-1.5,6.9-3,13.9-4.5,21.1
			c-0.2,1-0.1,1.3,0.1,1.3c0.4,0,1.9-0.9,2.9-2L215.1,79.5z"/>
		<path class="st0" d="M256.5,60.5c-3.1,0.3-3.2,0.4-3.7,3.4c-0.8,5.2-1.3,9.4-1.9,14.1c-0.5,3.5-0.2,3.6,2.7,3.9l-0.2,1h-9.1l0.2-1
			c2.8-0.3,3-0.4,3.5-3.9c0.8-5.3,1.6-10.1,2.4-15.2h-0.1l-11.9,19.9h-0.8c-1.2-6.4-2.3-12.6-3.7-19.5h-0.1l-2.6,9.5
			c-1,3.7-1.5,5.7-1.7,6.9c-0.3,1.6,0.1,2,2.7,2.3l-0.2,1h-8.1l0.2-1c2.1-0.2,2.8-0.7,3.4-2.2c0.6-1.5,1.3-3.6,2.6-8.2l2-6.8
			c1-3.6,0.9-3.9-2.6-4.2l0.3-0.9h6c1.2,5.9,2.4,11.6,3.9,18l11.2-18h5.8L256.5,60.5z"/>
		<path class="st0" d="M272.7,79.7c-1.7,2.1-4.1,3.7-5.2,3.7c-0.8,0-1.3-0.7-0.5-3.8c0.3-1.3,0.4-2,0.7-3.2h-0.1
			c-1.8,2.3-3.9,4.5-5.8,5.9c-1,0.7-2.1,1.1-2.9,1.1c-1,0-2.1-0.7-1.2-4.6c0.6-2.8,1.3-5.5,1.9-8.3c0.2-0.9,0.2-1.2-0.1-1.2
			c-0.3,0-1.3,0.7-2.5,1.7l-0.4-0.9c2.1-2.1,4.3-3.4,5.3-3.4c0.8,0,1,0.7,0.4,3.1c-0.6,2.8-1.3,5.8-2,8.6c-0.4,1.8-0.1,2.4,0.4,2.4
			c2,0,6-4.8,7.5-7.5c0.4-1.7,0.8-3.6,1.3-5.8l2.5-0.9h0.4c-1,3.8-1.9,7.8-2.8,12.5c-0.2,1.1-0.1,1.4,0.1,1.4c0.3,0,1.6-0.9,2.6-1.9
			L272.7,79.7z"/>
		<path class="st0" d="M274.3,80.7c0-0.6,0.4-1.2,1-1.5c0.4-0.2,0.7-0.1,0.9,0.1c0.9,1.4,2.3,2.2,3.5,2.2c1.4,0,2.4-1,2.4-2.2
			c0-0.9-0.4-1.7-2.1-3c-1.6-1.2-3.1-2.6-3.1-4.4c0-1.1,0.4-2.2,1.9-3.5c1.1-1,2.8-1.7,4-1.7c1.6,0,2.8,1.1,2.8,2
			c0,0.6-0.4,1.2-0.9,1.5c-0.4,0.2-0.6,0.1-0.8-0.1c-0.7-0.9-1.6-1.6-2.8-1.6c-1,0-1.9,0.8-1.9,2c0,1.3,1,2.2,2.3,3.2
			c2.2,1.6,3,2.7,3,4.2c0,2.7-3.6,5.4-6.5,5.4C276.2,83.3,274.3,82,274.3,80.7z"/>
		<path class="st0" d="M299.2,79.3c-3.2,3.4-5.9,4.1-7.6,4.1c-1.7,0-4-1-4-5.3c0-3.4,1.5-7.2,4.3-9.3c1.5-1.2,3.5-2,5-2
			c1.9,0,3.2,1.3,3.2,2.9c0,3.6-6,5.5-9.5,6.4c-0.1,0.4-0.1,0.8-0.1,1.2c0,1.9,0.6,4.1,2.8,4.1c1.5,0,3.5-1,5.3-2.8L299.2,79.3z
			 M294.1,68.7c-1,0.5-2.8,2.2-3.4,6.2c5.1-1.4,6.7-3,6.7-4.7c0-1.3-0.8-2-1.8-2C295.1,68.2,294.5,68.4,294.1,68.7z"/>
		<path class="st0" d="M318.7,79.7c-1.7,2.1-4.1,3.7-5.2,3.7c-0.8,0-1.3-0.7-0.5-3.8c0.3-1.3,0.4-2,0.7-3.2h-0.1
			c-1.8,2.3-3.9,4.5-5.8,5.9c-1,0.7-2.1,1.1-2.9,1.1c-1,0-2.1-0.7-1.2-4.6c0.6-2.8,1.3-5.5,1.9-8.3c0.2-0.9,0.2-1.2-0.1-1.2
			c-0.3,0-1.3,0.7-2.5,1.7l-0.4-0.9c2.1-2.1,4.3-3.4,5.3-3.4c0.8,0,1,0.7,0.4,3.1c-0.6,2.8-1.3,5.8-2,8.6c-0.4,1.8-0.1,2.4,0.4,2.4
			c2,0,6-4.8,7.5-7.5c0.4-1.7,0.8-3.6,1.3-5.8l2.5-0.9h0.4c-1,3.8-1.9,7.8-2.8,12.5c-0.2,1.1-0.1,1.4,0.1,1.4c0.3,0,1.6-0.9,2.6-1.9
			L318.7,79.7z"/>
		<path class="st0" d="M346.1,79.9c-1.9,2.1-4.2,3.5-5.1,3.5s-1.2-1.1-0.6-3.7l2-8.3c0.4-1.8,0.2-2.3-0.4-2.3
			c-1.7,0-6.1,5.1-7.3,7.5c-0.4,1.7-1,4.1-1.4,6.2c-0.9,0.1-1.9,0.4-2.6,0.6l-0.2-0.3c0.9-3.6,1.8-7.3,2.6-10.8
			c0.5-2.4,0.5-3.3-0.3-3.3c-1.7,0-6.1,5.2-7.3,7.5c-0.5,1.6-1,4-1.5,6.2c-0.9,0.1-1.8,0.4-2.6,0.6l-0.3-0.3c1.1-4.1,2.1-8.2,3-12.2
			c0.3-1.3,0.2-1.5,0-1.5c-0.4,0-1.6,1-2.5,1.8l-0.4-0.9c2-2.2,4.1-3.5,5.1-3.5c0.9,0,1,1.3,0.3,4.4l-0.6,2.6h0.1
			c2.4-3.5,4.9-5.4,6.4-6.3c0.8-0.5,1.5-0.7,2.2-0.7c1,0,1.9,0.9,0.9,5.5l-0.3,1.5h0.1c2.4-3.4,5-5.4,6.6-6.3
			c0.9-0.5,1.5-0.7,2.2-0.7c0.7,0,1.9,0.4,0.8,5.2l-1.8,7.5c-0.2,0.9-0.1,1.2,0.1,1.2c0.3,0,1.4-0.6,2.4-1.6L346.1,79.9z"/>
		<path class="st0" d="M357.4,77.7c0-4.7,2.5-8.2,5.5-9.8c1.3-0.7,2.8-1.2,3.9-1.2c3,0,4.8,2.1,4.8,5.6c0,3.1-1.3,6.6-3.9,8.7
			c-1.5,1.3-3.5,2.3-5.5,2.3C358.8,83.3,357.4,80.6,357.4,77.7z M364.6,81.7c1.9-0.8,3.9-4.6,3.9-9.3c0-2.9-1.3-4.3-2.9-4.3
			c-0.5,0-1,0.1-1.4,0.3c-1.4,0.6-3.8,3.6-3.8,9.1c0,2.7,1.1,4.4,3,4.4C363.9,81.9,364.3,81.8,364.6,81.7z"/>
		<path class="st0" d="M377.4,67.3c0.5-2.7,1.4-5.4,3-7.2c1.7-1.8,3.7-2.9,5.1-2.9c1.3,0,2.2,0.9,2.2,1.5c0,0.5-0.5,1.2-0.9,1.5
			c-0.3,0.2-0.6,0.3-0.9,0c-0.8-0.8-1.5-1.3-2.3-1.3c-1.3,0-2.4,1.7-3.5,8.3h4.1l-0.8,1.1l-3.6,0.4c-0.6,4-1,6.2-1.8,10.2
			c-1.3,6.2-2.6,8.9-4.6,10.9c-1.6,1.7-3.1,2.3-4.1,2.3c-1,0-2.3-0.7-2.2-1.5c0-0.5,0.4-1.1,1-1.5c0.3-0.3,0.5-0.2,0.7,0
			c0.6,0.5,1.6,0.9,2.3,0.9c0.6,0,1.2-0.3,1.5-0.7c0.5-0.5,1.3-2.1,2.5-9c0.9-5,1.3-8,1.9-11.5h-3l-0.1-0.4l1.1-1H377.4z"/>
		<path class="st0" d="M401.5,68.5l-3.6,0.2l-2.1,9.9c-0.4,1.8-0.2,2.2,0.2,2.2c0.6,0,2.4-1.2,3.2-2.1l0.5,0.8
			c-1.2,1.4-3.9,3.9-5.8,3.9c-0.8,0-1.5-1-0.8-4.8l2.1-9.9h-2.7l-0.1-0.3l0.9-1.1h2.2l0.8-3.4l2.7-2.2l0.3,0.2l-1.3,5.4h4.2
			L401.5,68.5z"/>
		<path class="st0" d="M418.2,79.9c-1.9,2.2-4.1,3.5-5.2,3.5c-0.9,0-1.2-1-0.6-3.5l1.9-8.4c0.4-1.9,0.3-2.6-0.3-2.6
			c-1.7,0-5.9,4-7.6,7.2c-0.4,1.6-1,4.8-1.3,6.6c-0.8,0.1-1.8,0.4-2.6,0.7l-0.3-0.3c1.5-6.9,3.1-14.2,4.5-21.6c0.4-1.9,0.2-2-1.2-2
			l-1,0l0.1-0.9c2.8-0.3,4.8-1.3,5.3-1.3c0.3,0,0.4,0.3,0.1,1.3l-3.2,14.9h0.1c2.4-3.2,5-5.1,6.7-6c0.9-0.5,1.8-0.8,2.4-0.8
			c0.9,0,1.9,0.6,1,4.6l-1.9,8.1c-0.2,1-0.2,1.3,0.1,1.3c0.4,0,1.5-0.7,2.5-1.7L418.2,79.9z"/>
		<path class="st0" d="M432.3,79.3c-3.2,3.4-5.9,4.1-7.6,4.1c-1.7,0-4-1-4-5.3c0-3.4,1.5-7.2,4.3-9.3c1.5-1.2,3.5-2,5-2
			c1.9,0,3.2,1.3,3.2,2.9c0,3.6-6,5.5-9.5,6.4c-0.1,0.4-0.1,0.8-0.1,1.2c0,1.9,0.6,4.1,2.8,4.1c1.5,0,3.5-1,5.3-2.8L432.3,79.3z
			 M427.2,68.7c-1,0.5-2.8,2.2-3.4,6.2c5.1-1.4,6.7-3,6.7-4.7c0-1.3-0.8-2-1.8-2C428.2,68.2,427.6,68.4,427.2,68.7z"/>
		<path class="st0" d="M463.9,82.9h-8.5l0.3-1c2.5-0.3,2.6-0.6,2.4-2.2c-0.3-1.5-0.5-3.2-0.9-5.3h-7.5c-0.6,1.2-1.7,3.2-2.5,4.9
			c-1,2.2-0.8,2.4,2,2.6l-0.2,1h-7.7l0.3-1c2.2-0.3,2.6-0.5,4.2-3.5l10.8-19.2l1.1-0.3l1,6.4c0.7,4.6,1.5,9.1,2.3,13.4
			c0.4,2.6,0.7,2.9,3.2,3.1L463.9,82.9z M455.5,63.6L455.5,63.6c-1.9,3.3-3.5,6.3-5.1,9.3h6.5L455.5,63.6z"/>
		<path class="st0" d="M491.6,79.9c-1.9,2.1-4.2,3.5-5.1,3.5s-1.2-1.1-0.6-3.7l2-8.3c0.4-1.8,0.2-2.3-0.4-2.3
			c-1.7,0-6.1,5.1-7.3,7.5c-0.4,1.7-1,4.1-1.4,6.2c-0.9,0.1-1.9,0.4-2.6,0.6l-0.2-0.3c0.9-3.6,1.8-7.3,2.6-10.8
			c0.5-2.4,0.5-3.3-0.3-3.3c-1.7,0-6.1,5.2-7.3,7.5c-0.5,1.6-1,4-1.5,6.2c-0.9,0.1-1.8,0.4-2.6,0.6l-0.3-0.3c1.1-4.1,2.1-8.2,3-12.2
			c0.3-1.3,0.2-1.5,0-1.5c-0.4,0-1.6,1-2.5,1.8l-0.4-0.9c2-2.2,4.1-3.5,5.1-3.5c0.9,0,1,1.3,0.3,4.4l-0.6,2.6h0.1
			c2.4-3.5,4.9-5.4,6.4-6.3c0.8-0.5,1.5-0.7,2.2-0.7c1,0,1.9,0.9,0.9,5.5l-0.3,1.5h0.1c2.4-3.4,5-5.4,6.6-6.3
			c0.9-0.5,1.5-0.7,2.2-0.7c0.7,0,1.9,0.4,0.8,5.2l-1.8,7.5c-0.2,0.9-0.1,1.2,0.1,1.2c0.3,0,1.4-0.6,2.4-1.6L491.6,79.9z"/>
		<path class="st0" d="M505.8,79.3c-3.2,3.4-5.9,4.1-7.6,4.1c-1.7,0-4-1-4-5.3c0-3.4,1.5-7.2,4.3-9.3c1.5-1.2,3.5-2,5-2
			c1.9,0,3.2,1.3,3.2,2.9c0,3.6-6,5.5-9.5,6.4c-0.1,0.4-0.1,0.8-0.1,1.2c0,1.9,0.6,4.1,2.8,4.1c1.5,0,3.5-1,5.3-2.8L505.8,79.3z
			 M500.8,68.7c-1,0.5-2.8,2.2-3.4,6.2c5.1-1.4,6.7-3,6.7-4.7c0-1.3-0.8-2-1.8-2C501.7,68.2,501.2,68.4,500.8,68.7z"/>
		<path class="st0" d="M508.9,70.3c1.8-2.1,4.1-3.5,5-3.5c0.9,0,0.9,1.7,0.4,4.2l-0.4,1.8h0.1c1.8-3.5,4-6,5.4-6
			c0.6,0,1.2,0.4,1.5,0.9c0.3,0.5,0.3,1,0,1.5c-0.3,0.4-0.6,0.8-0.9,1c-0.3,0.2-0.6,0.2-0.8,0c-0.4-0.4-0.8-0.6-1.2-0.6
			c-0.4,0-1,0.4-1.8,1.5c-0.8,1.2-1.9,2.8-2.6,4.5c-0.6,2.4-1,4.7-1.4,7.1c-0.8,0.1-1.8,0.4-2.6,0.6l-0.3-0.3
			c0.9-3.9,1.9-8.3,2.6-12.1c0.2-1.2,0.2-1.5-0.1-1.5c-0.3,0-1.5,0.7-2.6,1.7L508.9,70.3z"/>
		<path class="st0" d="M529.1,79.7c-1.2,1.5-4,3.6-5.3,3.6c-0.7,0-1.2-0.6-0.5-3.5l2.2-9.2c0.2-0.8,0.2-1.2,0-1.2
			c-0.3,0-1.4,0.6-2.4,1.5l-0.4-0.8c2-1.9,4.5-3.4,5.5-3.4c0.8,0,0.8,1.2,0.4,2.8l-2.5,9.9c-0.2,0.9-0.1,1.2,0.1,1.2
			c0.4,0,1.7-0.9,2.5-1.7L529.1,79.7z M530,61.5c0,1.1-0.8,2.1-1.9,2.1c-0.9,0-1.5-0.6-1.5-1.6c0-0.9,0.7-2.1,2-2.1
			C529.5,59.8,530,60.6,530,61.5z"/>
		<path class="st0" d="M542.9,79.3c-2.2,2.6-5.1,4-7.2,4c-2.3,0-3.9-1.8-3.9-5.3c0-3,1.4-6.5,3.7-8.6c1.5-1.3,4-2.7,5.8-2.7
			c1.5,0,2.7,0.9,2.7,1.8c0,0.5-0.4,1.2-1.2,1.7c-0.3,0.2-0.5,0.1-0.8-0.2c-0.8-1-1.6-1.5-2.7-1.5c-1.3,0-2.3,1.1-3,2.4
			c-0.9,1.6-1.6,4.1-1.6,6.5c0,2.6,1,3.9,2.6,3.9c1.8,0,4-1.7,5-2.7L542.9,79.3z"/>
		<path class="st0" d="M560.5,79.6c-1.9,2.4-4.4,3.7-5.3,3.7c-0.7,0-1.2-0.5-0.6-3.2l0.7-3.4h-0.1c-1.4,2-3.1,3.7-4.6,5
			c-1.2,1-2.4,1.6-3.3,1.6c-0.9,0-2.1-1.2-2.1-4.1c0-3.6,1.7-7.6,4.3-9.8c1.8-1.5,4.4-2.8,6.7-2.8c0.8,0,1.5,0.1,2.2,0.3
			c0.5,0.1,1,0.2,1.4,0.2l0.1,0.1c-0.6,2.2-1.7,7.1-2.5,11.7c-0.3,1.3-0.1,1.5,0.1,1.5c0.3,0,1.5-0.8,2.6-1.9L560.5,79.6z M555.8,74
			c0.4-1.4,0.9-4,1.2-5.2c-0.5-0.3-1.5-0.5-2.4-0.5c-0.9,0-1.9,0.3-2.6,0.8c-2.4,1.8-3.9,6-3.9,9.6c0,1.6,0.5,2.4,1,2.4
			C550.6,81,554.6,76.5,555.8,74z"/>
		<path class="st0" d="M578.7,79.8c-2.1,2.3-4.1,3.5-5.1,3.5c-0.9,0-1.2-1-0.6-3.7c0.7-2.7,1.3-5.3,1.9-8c0.5-2.1,0.3-2.6-0.3-2.6
			c-1.6,0-5.8,4.5-7.6,7.5c-0.4,1.8-1,3.9-1.4,6.1c-0.9,0.2-1.9,0.5-2.6,0.7l-0.2-0.3c1-3.9,2.1-8.2,2.9-12.2c0.3-1.2,0.2-1.4,0-1.4
			c-0.3,0-1.4,0.8-2.3,1.6l-0.5-0.9c1.9-2.1,4.1-3.4,5.1-3.4c0.8,0,1,1.2,0.3,4l-0.8,3.1h0.1c2.4-3.3,5.1-5.4,6.6-6.3
			c0.9-0.5,1.7-0.8,2.4-0.8c0.9,0,1.9,0.5,0.8,5.1c-0.6,2.4-1.2,5-1.8,7.5c-0.2,1-0.2,1.3,0.1,1.3c0.3,0,1.3-0.6,2.4-1.7L578.7,79.8
			z"/>
		<path class="st0" d="M601.7,60.5c-2.8,0.3-3,0.5-3.5,3.1l-2.9,15.2c-0.5,2.8-0.3,3,2.6,3.2l-0.2,1h-9.2l0.3-1
			c2.8-0.2,3.1-0.5,3.6-3.2l2.9-15.2c0.5-2.6,0.3-2.8-2.7-3.1l0.3-0.9h9.1L601.7,60.5z"/>
		<path class="st0" d="M616.7,79.8c-2.1,2.3-4.1,3.5-5.1,3.5c-0.9,0-1.2-1-0.6-3.7c0.7-2.7,1.3-5.3,1.9-8c0.5-2.1,0.3-2.6-0.3-2.6
			c-1.6,0-5.8,4.5-7.6,7.5c-0.4,1.8-1,3.9-1.4,6.1c-0.9,0.2-1.9,0.5-2.6,0.7L601,83c1-3.9,2.1-8.2,2.9-12.2c0.3-1.2,0.2-1.4,0-1.4
			c-0.3,0-1.4,0.8-2.3,1.6l-0.5-0.9c1.9-2.1,4.1-3.4,5.1-3.4c0.8,0,1,1.2,0.3,4l-0.8,3.1h0.1c2.4-3.3,5.1-5.4,6.6-6.3
			c0.9-0.5,1.7-0.8,2.4-0.8c0.9,0,1.9,0.5,0.8,5.1c-0.6,2.4-1.2,5-1.8,7.5c-0.2,1-0.2,1.3,0.1,1.3c0.3,0,1.3-0.6,2.4-1.7L616.7,79.8
			z"/>
		<path class="st0" d="M635.2,79.7c-1.9,2.3-4.3,3.6-5.3,3.6c-0.7,0-1.2-0.6-0.6-3.3l0.6-3.1l-0.1,0c-1.6,2.2-3.5,3.7-4.8,4.7
			c-1.3,1.1-2.5,1.7-3.5,1.7c-1.2,0-2.3-1.4-2.3-4.3c0-3.4,1.5-7.2,4.2-9.5c1.7-1.5,4.7-2.8,6.4-2.8c0.5,0,1.2,0,2.1,0.4l1.2-5.9
			c0.3-1.6,0.2-1.8-1.4-1.8h-1.2l0.1-0.9c3-0.4,5-1.3,5.5-1.3c0.3,0,0.4,0.3,0.3,1c-1.7,7.2-3.2,14.2-4.5,21.2
			c-0.2,0.9-0.1,1.2,0.1,1.2c0.4,0,1.6-0.8,2.6-1.8L635.2,79.7z M630.4,74.4l1.2-5.1c-0.5-0.5-1.8-0.9-2.9-0.9
			c-1.1,0-1.9,0.3-2.5,0.8c-2.4,1.7-3.8,6.3-3.8,9.3c0,1.8,0.5,2.7,1.1,2.7C625.2,81,629.2,76.5,630.4,74.4z"/>
		<path class="st0" d="M644.1,79.7c-1.2,1.5-4,3.6-5.3,3.6c-0.7,0-1.2-0.6-0.5-3.5l2.2-9.2c0.2-0.8,0.2-1.2,0-1.2
			c-0.3,0-1.4,0.6-2.4,1.5l-0.4-0.8c2-1.9,4.5-3.4,5.5-3.4c0.8,0,0.8,1.2,0.4,2.8l-2.5,9.9c-0.2,0.9-0.1,1.2,0.1,1.2
			c0.4,0,1.7-0.9,2.5-1.7L644.1,79.7z M645,61.5c0,1.1-0.8,2.1-1.9,2.1c-0.9,0-1.5-0.6-1.5-1.6c0-0.9,0.7-2.1,2-2.1
			C644.5,59.8,645,60.6,645,61.5z"/>
		<path class="st0" d="M662,79.6c-1.9,2.4-4.4,3.7-5.3,3.7c-0.7,0-1.2-0.5-0.6-3.2l0.7-3.4h-0.1c-1.4,2-3.1,3.7-4.6,5
			c-1.2,1-2.4,1.6-3.3,1.6c-0.9,0-2.1-1.2-2.1-4.1c0-3.6,1.7-7.6,4.3-9.8c1.8-1.5,4.4-2.8,6.7-2.8c0.8,0,1.5,0.1,2.2,0.3
			c0.5,0.1,1,0.2,1.4,0.2l0.1,0.1c-0.6,2.2-1.7,7.1-2.5,11.7c-0.3,1.3-0.1,1.5,0.1,1.5c0.3,0,1.5-0.8,2.6-1.9L662,79.6z M657.4,74
			c0.4-1.4,0.9-4,1.2-5.2c-0.5-0.3-1.5-0.5-2.4-0.5c-0.9,0-1.9,0.3-2.6,0.8c-2.4,1.8-3.9,6-3.9,9.6c0,1.6,0.5,2.4,1,2.4
			C652.1,81,656.1,76.5,657.4,74z"/>
		<path class="st0" d="M680.2,79.8c-2.1,2.3-4.1,3.5-5.1,3.5c-0.9,0-1.2-1-0.6-3.7c0.7-2.7,1.3-5.3,1.9-8c0.5-2.1,0.3-2.6-0.3-2.6
			c-1.6,0-5.8,4.5-7.6,7.5c-0.4,1.8-1,3.9-1.4,6.1c-0.9,0.2-1.9,0.5-2.6,0.7l-0.2-0.3c1-3.9,2.1-8.2,2.9-12.2c0.3-1.2,0.2-1.4,0-1.4
			c-0.3,0-1.4,0.8-2.3,1.6l-0.5-0.9c1.9-2.1,4.1-3.4,5.1-3.4c0.8,0,1,1.2,0.3,4l-0.8,3.1h0.1c2.4-3.3,5.1-5.4,6.6-6.3
			c0.9-0.5,1.7-0.8,2.4-0.8c0.9,0,1.9,0.5,0.8,5.1c-0.6,2.4-1.2,5-1.8,7.5c-0.2,1-0.2,1.3,0.1,1.3c0.3,0,1.3-0.6,2.4-1.7L680.2,79.8
			z"/>
	</g>
</g>
</svg>