<!-- Generator: Adobe Illustrator 21.0.0, SVG Export Plug-In  -->
<svg version="1.1"
	 xmlns="http://www.w3.org/2000/svg" xmlns:xlink="http://www.w3.org/1999/xlink" xmlns:a="http://ns.adobe.com/AdobeSVGViewerExtensions/3.0/"
	 x="0px" y="0px" width="49.2px" height="46.8px" viewBox="0 0 49.2 46.8" style="enable-background:new 0 0 49.2 46.8;"
	 xml:space="preserve">
<style type="text/css">
	.st0{fill:#FFFFFF;}
</style>
<defs>
</defs>
<path class="st0" d="M24.6,6.5l3.9,12l0.4,1.4h1.5h12.6l-10.2,7.4l-1.2,0.9l0.4,1.4l3.9,12l-10.2-7.4l-1.2-0.9l-1.2,0.9l-10.2,7.4
	l3.9-12l0.4-1.4l-1.2-0.9L6.2,19.9h12.6h1.5l0.4-1.4L24.6,6.5 M24.6,0l-5.8,17.9H0l15.2,11.1L9.4,46.8l15.2-11.1l15.2,11.1L34,28.9
	l15.2-11.1H30.4L24.6,0L24.6,0z"/>
</svg>