<!-- Generator: Adobe Illustrator 21.0.0, SVG Export Plug-In  -->
<svg version="1.1"
	 xmlns="http://www.w3.org/2000/svg" xmlns:xlink="http://www.w3.org/1999/xlink" xmlns:a="http://ns.adobe.com/AdobeSVGViewerExtensions/3.0/"
	 x="0px" y="0px" width="20.8px" height="250.7px" viewBox="0 0 20.8 250.7" style="enable-background:new 0 0 20.8 250.7;"
	 xml:space="preserve">
<style type="text/css">
	.st0{fill:#E6E7E8;}
</style>
<defs>
</defs>
<rect width="20.8" height="250.7"/>
<g>
	<rect x="11.1" y="206.9" class="st0" width="0.5" height="39.9"/>
</g>
<g>
	<path class="st0" d="M8.8,24.3c0.9,0,1.5,0.1,1.9,0.4c0.4,0.3,0.6,0.7,0.6,1.2c0,0.5-0.2,0.9-0.7,1.2c-0.4,0.3-1.1,0.4-1.9,0.4
		c-0.9,0-1.5-0.1-1.9-0.4s-0.6-0.7-0.6-1.2c0-0.5,0.2-1,0.7-1.2C7.4,24.4,8,24.3,8.8,24.3z M8.8,27c0.7,0,1.3-0.1,1.6-0.3
		c0.3-0.2,0.5-0.4,0.5-0.8c0-0.4-0.2-0.7-0.5-0.8c-0.3-0.2-0.9-0.3-1.6-0.3s-1.2,0.1-1.6,0.3c-0.3,0.2-0.5,0.4-0.5,0.8
		c0,0.4,0.2,0.6,0.5,0.8C7.6,26.9,8.1,27,8.8,27z"/>
	<path class="st0" d="M11.3,20.9v0.6H7.8c-0.3,0-0.6,0-0.8,0c0,0,0.1,0.1,0.2,0.2s0.3,0.3,0.7,0.8l-0.4,0.3l-1-1.3v-0.5H11.3z"/>
	<path class="st0" d="M8.8,15.2c0.9,0,1.5,0.1,1.9,0.4c0.4,0.3,0.6,0.7,0.6,1.2c0,0.5-0.2,0.9-0.7,1.2c-0.4,0.3-1.1,0.4-1.9,0.4
		c-0.9,0-1.5-0.1-1.9-0.4s-0.6-0.7-0.6-1.2c0-0.5,0.2-1,0.7-1.2C7.4,15.3,8,15.2,8.8,15.2z M8.8,17.9c0.7,0,1.3-0.1,1.6-0.3
		c0.3-0.2,0.5-0.4,0.5-0.8c0-0.4-0.2-0.7-0.5-0.8c-0.3-0.2-0.9-0.3-1.6-0.3S7.6,15.9,7.3,16c-0.3,0.2-0.5,0.4-0.5,0.8
		c0,0.4,0.2,0.6,0.5,0.8C7.6,17.8,8.1,17.9,8.8,17.9z"/>
	<path class="st0" d="M7.5,10.9c0.3,0,0.6,0.1,0.8,0.3c0.2,0.2,0.3,0.4,0.4,0.8h0c0.1-0.4,0.2-0.7,0.4-0.9s0.5-0.3,0.8-0.3
		c0.5,0,0.8,0.2,1.1,0.5c0.3,0.3,0.4,0.8,0.4,1.4c0,0.3,0,0.5-0.1,0.7c0,0.2-0.1,0.4-0.2,0.6h-0.5c0.1-0.2,0.2-0.4,0.2-0.7
		c0.1-0.2,0.1-0.5,0.1-0.7c0-0.9-0.3-1.3-1-1.3c-0.6,0-0.9,0.5-0.9,1.4v0.5H8.5v-0.5c0-0.4-0.1-0.7-0.3-0.9
		c-0.2-0.2-0.4-0.3-0.7-0.3c-0.2,0-0.4,0.1-0.6,0.3c-0.1,0.2-0.2,0.4-0.2,0.7c0,0.2,0,0.4,0.1,0.6s0.2,0.4,0.3,0.7L6.8,14
		c-0.2-0.2-0.3-0.4-0.4-0.7c-0.1-0.3-0.1-0.5-0.1-0.8c0-0.5,0.1-0.9,0.3-1.1C6.8,11,7.1,10.9,7.5,10.9z"/>
	<path class="st0" d="M11.3,6.2v3.3h-0.5L9.5,8.1C9.1,7.7,8.8,7.5,8.7,7.3S8.3,7.1,8.2,7.1S7.8,7,7.6,7C7.4,7,7.1,7,7,7.2
		C6.8,7.4,6.8,7.6,6.8,7.9c0,0.2,0,0.4,0.1,0.6C6.9,8.7,7,8.9,7.2,9.1L6.8,9.4c-0.4-0.5-0.6-1-0.6-1.5c0-0.5,0.1-0.8,0.4-1.1
		c0.2-0.3,0.6-0.4,1-0.4c0.3,0,0.6,0.1,0.9,0.3s0.7,0.5,1.2,1l1.1,1.1h0V6.2H11.3z"/>
</g>
</svg>